<svg width="800" height="729" viewBox="0 0 800 729" fill="none" xmlns="http://www.w3.org/2000/svg">
<path d="M789.705 300.855C789.583 300.781 789.46 300.713 789.332 300.645V300.639C788.172 299.988 786.763 299.595 785.224 299.595H440.172C436.657 299.595 433.649 301.642 433.025 304.462L386.122 517.232C385.593 519.636 386.92 521.905 389.192 523.17L396.134 527.166L401.492 524.199H584.453L573.042 482.561H626.539L637.95 524.199H738.319C741.828 524.199 744.842 522.146 745.46 519.327L792.127 307.649L796.891 305.003L789.705 300.855ZM318.675 477.379C319.275 477.379 319.842 477.164 320.221 476.796C321.038 476.014 321.786 475.122 322.566 473.992C323.177 473.116 323.744 472.118 324.291 470.932C324.826 469.724 325.18 468.7 325.411 467.719C325.72 466.469 325.875 465.367 325.88 464.343C325.887 463.644 325.347 463.025 324.522 462.805L324.174 462.732H323.918C323.06 462.732 322.307 463.178 322.044 463.839L320.896 466.715L320.647 467.299C320.331 468.045 320.015 468.785 319.654 469.535C319.307 470.292 318.934 471.036 318.554 471.782L318.309 472.271L316.814 475.085C316.466 475.756 316.692 476.523 317.374 476.991C317.742 477.242 318.199 477.379 318.675 477.379ZM290.478 493.655L291.096 492.924C293.762 489.769 296.176 486.572 298.264 483.422C301.496 478.561 304.368 473.257 306.814 467.655C309.204 461.995 311.02 456.389 312.198 450.997C313.453 445.359 314.13 439.589 314.213 433.86C314.22 433.005 313.415 432.301 312.248 432.244C311.212 432.244 310.356 432.9 310.292 433.739C309.867 439.211 308.959 444.775 307.593 450.278C306.171 455.948 304.341 461.345 302.145 466.333C300.002 471.378 297.285 476.517 294.058 481.61C292.39 484.23 290.523 486.923 288.481 489.617L289.248 491.165C289.396 491.439 289.737 492.163 289.737 492.163C290.22 493.051 290.478 493.655 290.478 493.655ZM170.223 443.248C169.914 443.095 169.567 443.017 169.207 443.017C168.524 443.017 167.88 443.311 167.525 443.789C166.469 445.217 165.51 446.661 164.39 448.377C163.739 449.374 163.128 450.383 162.509 451.396C162.181 451.936 161.852 452.477 161.492 453.055L160.655 454.515C160.03 455.597 159.406 456.677 158.813 457.775C157.995 459.303 157.126 460.93 156.347 462.631C156.012 463.377 156.373 464.217 157.203 464.621C157.519 464.774 157.879 464.858 158.247 464.858C158.955 464.858 159.618 464.548 159.979 464.06C161.131 462.49 162.194 460.862 163.102 459.45C163.771 458.394 164.422 457.324 165.066 456.257L165.967 454.762C166.276 454.21 166.592 453.654 166.907 453.102C167.487 452.084 168.066 451.065 168.614 450.036C169.567 448.251 170.346 446.739 171.053 445.174C171.376 444.455 171.028 443.642 170.223 443.248ZM176.348 359.498C172.902 356.642 168.988 354.41 164.705 352.868L164.261 352.736H163.913C163.166 352.736 162.471 353.088 162.149 353.634C161.917 354.017 161.885 354.453 162.058 354.858C162.232 355.261 162.587 355.587 163.057 355.775C170.218 358.606 176.334 363.876 180.275 370.608C183.933 376.876 185.749 383.938 185.518 391.051C185.362 397.356 183.804 404.224 180.751 412.047C178.08 418.882 174.596 425.676 171.234 432.249L171.145 432.422C170.726 433.241 171.177 434.176 172.169 434.548L172.652 434.701H173.011C173.798 434.701 174.512 434.328 174.848 433.745C178.523 427.283 182.355 420.374 185.273 413.248C188.537 405.311 190.23 398.076 190.456 391.131C190.616 383.245 188.556 375.563 184.48 368.928C182.258 365.325 179.523 362.155 176.348 359.498ZM284.863 417.317L285.121 417.312L285.249 417.297C286.112 417.181 286.846 416.704 287.161 416.036C287.356 415.637 306.189 375.832 300.535 337.479L298.861 337.39L295.565 337.269L295.546 337.406L295.578 337.589C300.304 368.723 288.328 400.979 284 411.285L215.968 344.062C215.364 344.357 214.738 344.64 214.102 344.898C213.2 345.254 212.279 345.565 211.345 345.832L282.957 416.588C283.426 417.05 284.122 417.317 284.863 417.317Z" fill="white"/>
<path d="M311.746 551.279C313.016 549.208 312.381 536.785 312.381 536.785C312.381 536.785 328.493 560.398 319.365 556.973C315.699 555.597 310.477 553.349 311.746 551.279Z" fill="#010043" stroke="#010043"/>
<path d="M637.512 638.832L650.197 695.591H596.692L591.849 673.916C534.011 708.959 454.79 726.805 346.415 716.082C169.321 698.56 46.8457 584.854 46.8457 406.887C46.8457 228.912 205.677 0 383.635 0C561.598 0 745.421 112.289 745.421 290.257C745.421 399.378 731.679 548.244 637.512 638.832Z" fill="#70C573"/>
<path d="M132.148 362.363C132.18 363.186 132.238 364.017 132.347 364.835C132.74 368.383 133.848 371.835 135.445 375.035C136.559 377.251 137.95 379.324 139.553 381.236C140.197 379.137 140.847 377.064 141.465 375.042C137.318 371.725 134.112 367.288 132.148 362.363ZM231.203 394.819C230.998 396.029 230.734 397.239 230.43 398.437C231.526 396.66 232.427 394.76 233.09 392.776C235.453 385.61 235.286 377.869 235.099 370.225C234.984 362.542 235.028 354.84 235.409 347.158C235.659 341.767 236.066 336.385 236.599 331.014C236.11 330.93 235.62 330.84 235.131 330.73C230.572 340.518 230.398 351.736 231.03 362.51C231.661 373.29 233.006 384.173 231.203 394.819ZM237.539 331.174C237.308 335.045 237.121 338.915 236.967 342.785C237.295 338.903 237.747 335.045 238.333 331.259C238.068 331.227 237.804 331.213 237.539 331.174ZM300.8 258.792C298.856 261.793 297.051 264.929 295.642 268.195C310.091 267.847 327.787 271.91 349.333 281.84C349.024 278.072 349.018 274.266 349.024 270.487C349.03 267.814 348.94 264.961 348.451 262.282C347.71 261.864 346.957 261.477 346.177 261.175C345.057 260.75 343.911 260.409 342.733 260.222C341.561 260.009 340.363 259.945 339.165 259.97C337.961 260.009 336.756 260.196 335.546 260.466C335.372 260.512 335.205 260.402 335.16 260.235C335.134 260.093 335.198 259.958 335.308 259.887C336.435 259.211 337.716 258.799 339.023 258.586C340.338 258.362 341.689 258.394 343.003 258.593C344.317 258.819 345.61 259.217 346.783 259.849C347.247 260.093 347.678 260.384 348.103 260.686C347.742 259.307 347.252 258.007 346.584 256.822C346.339 256.763 346.088 256.706 345.843 256.66C345.063 256.525 344.29 256.404 343.512 256.358C342.733 256.294 341.953 256.307 341.161 256.333C340.37 256.365 339.578 256.468 338.746 256.571C338.572 256.589 338.405 256.468 338.387 256.294C338.366 256.166 338.43 256.049 338.522 255.978C339.256 255.482 340.093 255.16 340.962 254.954C341.824 254.736 342.726 254.677 343.615 254.716C344.187 254.755 344.754 254.858 345.308 254.993C344.928 254.549 344.503 254.13 344.041 253.744C342.888 253.602 341.742 253.57 340.621 253.718C339.436 253.879 338.277 254.162 337.181 254.62C336.074 255.057 335.045 255.663 334.078 256.372C333.119 257.092 332.268 257.962 331.509 258.947C331.399 259.089 331.2 259.114 331.058 259.011C330.949 258.927 330.91 258.773 330.955 258.645C331.875 256.127 334.066 254.137 336.55 253.1C337.813 252.584 339.16 252.268 340.518 252.263C340.866 252.257 341.207 252.268 341.548 252.295C336.3 250.402 328.805 253.57 327.31 258.94C326.873 254.176 323.087 250.067 318.547 248.753C318.92 249.05 319.3 249.338 319.647 249.674C320.658 250.678 321.534 251.818 322.179 253.08C322.829 254.343 323.286 255.701 323.428 257.092C323.44 257.266 323.318 257.421 323.138 257.44C322.996 257.454 322.868 257.369 322.815 257.248C322.3 256.017 321.701 254.858 320.981 253.789C320.246 252.733 319.435 251.735 318.501 250.852C317.587 249.963 316.564 249.191 315.475 248.501C315.372 248.437 315.262 248.386 315.159 248.327C314.999 248.334 314.837 248.327 314.677 248.341C313.266 248.457 311.934 248.823 310.672 249.377C311.566 249.455 312.456 249.629 313.311 249.894C316.054 250.768 318.565 252.662 319.828 255.226C319.906 255.379 319.841 255.573 319.686 255.649C319.558 255.715 319.403 255.676 319.306 255.578C318.398 254.594 317.408 253.744 316.312 253.062C315.21 252.385 314.046 251.831 312.815 251.463C311.598 251.078 310.324 250.871 309.041 250.807C308.721 250.795 308.405 250.827 308.083 250.839C307.259 251.406 306.466 252.044 305.72 252.746C306.17 252.707 306.621 252.694 307.065 252.7C307.927 252.739 308.792 252.836 309.615 253.067C310.446 253.279 311.257 253.576 312.003 254.02C312.152 254.112 312.204 254.311 312.113 254.464C312.049 254.574 311.934 254.626 311.811 254.62L309.396 254.439C308.597 254.4 307.819 254.35 307.033 254.35C306.248 254.329 305.462 254.356 304.67 254.368L304.116 254.393C302.886 255.772 301.779 257.273 300.8 258.792ZM130.061 353.694C129.353 345.432 132.167 336.925 137.666 330.717C143.429 324.214 152.045 319.982 155.555 312.029C159.489 303.103 155.606 292.916 154.454 283.231C154.157 280.758 154.074 278.267 154.17 275.787C153.848 277.402 153.629 279.04 153.539 280.694C153.075 286.831 153.835 293.135 152.895 299.478C152.412 302.627 151.491 305.738 149.946 308.559C148.388 311.354 146.121 313.833 143.256 315.295C143.101 315.378 142.908 315.313 142.831 315.16C142.753 315.011 142.811 314.824 142.953 314.741C145.612 313.202 147.621 310.761 148.961 308.037C150.339 305.32 151.144 302.319 151.517 299.286C152.264 293.187 151.517 286.927 151.897 280.584C152.18 276.082 153.314 271.613 155.226 267.518C158.182 253.46 167.036 240.575 179.548 233.433C192.967 225.769 210.135 223.278 220.321 211.653C234.591 195.374 256.928 186.54 278.474 188.644C291.237 189.893 303.511 194.987 313.666 202.805C333.563 190.641 360.447 205.42 372.668 219.839C385.838 235.364 388.393 259.05 378.837 277.023C376.062 282.258 372.295 287.211 371.458 293.078C370.614 298.945 374.761 305.004 380.685 304.888C375.973 309.679 367.853 309.943 362.025 306.601C359.597 305.21 357.556 303.291 355.85 301.081C355.315 325.378 356.339 371.487 370.287 394.071C389.747 425.58 368.412 471.451 368.412 471.451C368.412 471.451 265.043 469.763 248.12 432.291C243.419 421.879 238.429 400.247 236.805 376.014C236.793 381.804 236.42 387.657 234.469 393.254C233.316 396.466 231.583 399.467 229.349 402.049C226.606 410.028 221.57 417.222 214.101 420.886C206.284 424.718 197.05 424.177 188.498 422.554C179.953 420.932 171.467 419.031 162.799 418.214C153.539 417.338 146.417 417.274 136.861 421.987C134.485 417.389 133.976 411.826 134.704 402.681C135.238 395.99 137.183 388.99 139.231 382.28C137.26 380.349 135.573 378.114 134.221 375.685C132.386 372.414 131.214 368.77 130.712 365.035C130.441 362.658 130.48 360.256 130.763 357.893C130.441 356.509 130.184 355.112 130.061 353.694ZM783.021 704.974C783.021 717.82 607.737 728.234 391.511 728.234C175.284 728.234 0 717.82 0 704.974C0 693.718 143.462 684.225 322.152 682.068C344.665 681.83 367.84 681.707 391.511 681.707C465.762 681.707 535.185 682.937 594.343 685.069L596.692 695.591H650.198L648.368 687.412C730.862 691.675 783.021 697.961 783.021 704.974Z" fill="#010043"/>
<path d="M384.633 463.651C377.131 454.437 372.199 442.517 366.152 431.57C370.44 425.252 371.678 417.125 376.255 410.968C381.465 403.975 390.397 400.42 395.342 393.233C399.264 387.535 400.152 380.181 399.218 373.322C398.896 370.997 398.375 368.712 397.743 366.457C398.31 364.384 397.963 361.731 396.894 359.986C396.488 360.043 396.083 360.107 395.676 360.172C394.962 358.215 394.196 356.269 393.416 354.338C393.732 354.055 393.976 353.753 394.125 353.423C395.143 351.079 394.061 347.351 391.703 346.36C389.708 345.523 387.698 344.729 385.669 343.976C391.181 344.608 394.035 338.445 390.126 333.866C385.625 328.585 377.473 324.33 371.986 319.995C370.724 318.991 369.423 317.973 367.878 317.523C366.332 317.077 364.466 317.328 363.441 318.572C361.671 320.697 363.32 323.852 364.96 326.073C369.72 332.521 374.852 339.205 381.986 342.689C376.797 340.905 371.529 339.365 366.179 338.135C364.491 339.411 364.091 341.909 364.775 343.912C365.45 345.921 366.982 347.518 368.599 348.89C370.319 350.358 372.192 351.646 374.175 352.742C374.093 352.779 374.002 352.818 373.919 352.87C372.586 353.636 371.348 354.544 370.202 355.562C370.397 354.338 370.26 353.14 369.63 352.09C362.824 353.197 355.998 352.541 349.171 351.607C339.004 372.788 332.424 395.681 329.782 419.024C328.103 423.738 327.568 428.439 329.679 432.149C329.674 432.149 329.661 432.149 329.654 432.149C343.222 462.429 356.783 492.708 370.351 522.988C378.375 540.915 386.456 558.882 396.256 575.877L411.112 493.243C401.833 483.796 392.991 473.917 384.633 463.651ZM291.166 634.723L311.212 654.873C310.928 654.287 310.594 653.72 310.15 653.23L304.682 646.093C303.168 644.412 293.316 635.425 291.166 634.723L268.597 627.33C263.792 625.759 258.513 627.118 255.073 630.821L237.34 649.895L118.136 646.41L134.292 613.787L131.581 607.432C120.821 582.232 97.9677 564.246 70.9483 559.706C70.9483 559.706 31.3272 651.781 34.0124 661.628C36.6976 671.475 42.963 699.473 75.179 699.473C98.3862 699.473 188.008 690.323 236.304 685.204C241.185 687.251 248.763 689.344 258.159 688.379C275.023 686.633 277.2 683.722 277.2 683.722L290.876 687.244C294.007 688.049 297.271 686.569 298.732 683.69L299.963 681.281C300.716 679.801 302.191 678.822 303.851 678.712L304.682 678.655C310.285 678.287 313.897 672.568 311.829 667.353L311.875 657.757C311.882 657.037 311.747 656.334 311.527 655.664L311.534 655.683C317.774 656.076 322.636 652.624 318.778 649.07C316.415 646.899 295.455 635.501 291.166 634.723ZM300.555 520.758C300.555 512.105 293.517 505.066 284.862 505.066C276.208 505.066 269.163 512.105 269.163 520.758C269.163 529.414 276.208 536.452 284.862 536.452C293.517 536.452 300.555 529.414 300.555 520.758ZM236.599 331.014C236.11 330.929 235.62 330.84 235.131 330.73C230.572 340.518 230.398 351.736 231.029 362.509C231.661 373.29 233.006 384.173 231.203 394.818C230.997 396.029 230.734 397.239 230.43 398.437C231.526 396.66 232.427 394.759 233.09 392.776C235.453 385.609 235.286 377.869 235.099 370.224C234.984 362.541 235.028 354.84 235.409 347.158C235.659 341.767 236.066 336.384 236.599 331.014ZM273.819 325.849C277.161 323.698 279.686 320.382 281.914 316.981C277.257 321.084 271.249 323.44 265.036 322.59C262.763 324.541 260.302 326.203 257.721 327.555C259.188 327.813 260.656 328.045 262.132 328.166C266.233 328.56 270.457 328.09 273.819 325.849ZM354.214 298.686C352.675 296.156 351.509 293.368 350.749 290.513C349.011 284.024 349.011 277.21 349.024 270.487C349.029 267.813 348.94 264.961 348.451 262.282C347.71 261.864 346.957 261.477 346.177 261.175C345.056 260.75 343.91 260.409 342.732 260.221C341.561 260.009 340.363 259.944 339.164 259.97C337.961 260.009 336.756 260.196 335.546 260.466C335.372 260.512 335.205 260.402 335.159 260.235C335.134 260.093 335.198 259.958 335.308 259.887C336.435 259.21 337.716 258.798 339.023 258.586C340.337 258.361 341.689 258.393 343.002 258.592C344.317 258.819 345.61 259.217 346.783 259.848C347.247 260.093 347.678 260.383 348.103 260.685C347.742 259.306 347.252 258.007 346.584 256.822C346.339 256.763 346.088 256.705 345.843 256.66C345.063 256.525 344.29 256.403 343.512 256.358C342.732 256.294 341.953 256.307 341.161 256.332C340.37 256.364 339.578 256.467 338.746 256.57C338.572 256.589 338.405 256.467 338.386 256.294C338.366 256.165 338.43 256.049 338.521 255.978C339.256 255.482 340.093 255.159 340.962 254.953C341.824 254.736 342.726 254.677 343.615 254.715C344.187 254.754 344.754 254.857 345.308 254.992C344.928 254.548 344.503 254.13 344.04 253.743C342.888 253.601 341.742 253.569 340.621 253.718C339.436 253.878 338.277 254.162 337.181 254.619C336.074 255.056 335.045 255.662 334.078 256.371C333.119 257.092 332.268 257.961 331.509 258.947C331.399 259.089 331.2 259.114 331.058 259.011C330.948 258.927 330.91 258.773 330.955 258.645C331.875 256.127 334.066 254.137 336.55 253.1C337.813 252.584 339.159 252.268 340.518 252.263C340.866 252.256 341.207 252.268 341.548 252.295C336.3 250.401 328.805 253.569 327.31 258.94C326.872 254.175 323.087 250.067 318.547 248.752C318.92 249.049 319.299 249.338 319.647 249.674C320.658 250.678 321.534 251.817 322.179 253.08C322.829 254.342 323.286 255.701 323.428 257.092C323.44 257.266 323.318 257.421 323.137 257.44C322.996 257.453 322.867 257.369 322.815 257.247C322.3 256.017 321.701 254.857 320.98 253.789C320.246 252.732 319.435 251.735 318.501 250.852C317.586 249.962 316.564 249.191 315.475 248.501C315.372 248.437 315.262 248.386 315.159 248.327C314.999 248.334 314.837 248.327 314.677 248.34C313.266 248.457 311.934 248.823 310.672 249.377C311.566 249.454 312.456 249.628 313.311 249.893C316.054 250.768 318.565 252.661 319.828 255.225C319.905 255.379 319.841 255.573 319.686 255.649C319.558 255.715 319.402 255.676 319.306 255.578C318.398 254.594 317.407 253.743 316.312 253.061C315.21 252.384 314.045 251.831 312.815 251.463C311.598 251.078 310.324 250.87 309.041 250.806C308.721 250.795 308.405 250.827 308.083 250.838C307.259 251.406 306.466 252.044 305.72 252.746C306.17 252.707 306.621 252.693 307.065 252.7C307.927 252.739 308.791 252.835 309.615 253.066C310.445 253.279 311.257 253.576 312.003 254.02C312.152 254.111 312.204 254.31 312.113 254.464C312.049 254.574 311.934 254.626 311.811 254.619L309.396 254.439C308.597 254.4 307.819 254.349 307.033 254.349C306.248 254.329 305.462 254.356 304.67 254.368L304.116 254.393C302.886 255.772 301.779 257.273 300.8 258.792C296.479 265.464 292.724 272.799 292.861 280.751C293.028 290.41 292.518 300.438 288.108 309.034C287.355 310.516 286.447 311.914 285.436 313.227C284.753 314.67 284.032 316.093 283.22 317.477C281.056 321.16 278.397 324.703 274.707 327.214C270.94 329.744 266.221 330.151 261.983 329.641C259.897 329.39 257.862 328.966 255.86 328.463C253.715 329.436 251.494 330.202 249.22 330.717C249.968 333.113 250.818 335.47 251.784 337.782C253.856 342.739 256.395 347.499 259.421 351.936C262.383 356.411 265.853 360.553 269.659 364.346C273.478 368.125 277.664 371.551 282.177 374.52C282.326 374.616 282.364 374.81 282.267 374.957C282.177 375.092 281.997 375.138 281.848 375.055C277.109 372.37 272.678 369.097 268.694 365.343C264.694 361.601 261.159 357.378 258.056 352.856C255.016 348.297 252.415 343.435 250.432 338.329C249.492 335.92 248.692 333.454 248.03 330.955C244.604 331.599 241.082 331.696 237.539 331.174C237.218 336.52 236.953 341.865 236.8 347.209C236.594 354.872 236.535 362.529 236.741 370.192C236.864 377.823 237.077 385.776 234.469 393.254C233.316 396.466 231.583 399.467 229.348 402.049C227.262 408.115 223.843 413.719 219.046 417.672C226.716 430.507 235.588 442.691 246.878 452.44C260.025 463.793 276.813 471.65 294.187 471.451C298.186 471.398 302.275 470.902 305.823 469.068C309.37 467.226 312.3 463.845 312.751 459.872C313.421 453.895 308.604 448.79 303.781 445.203C298.959 441.614 290.825 438.087 291.186 432.091C292.177 415.824 292.95 399.242 293.943 382.975C302.358 386.156 311.683 389.351 320.111 386.22C327.735 383.388 332.648 376.059 336.454 368.873C347.865 347.344 353.924 323.04 354.214 298.686Z" fill="#F4B47E"/>
<path d="M284.256 683.452C283.574 682.775 282.904 682.086 282.305 681.345C281.687 680.618 281.141 679.84 280.599 679.042C280.066 678.23 279.595 677.386 279.105 676.503C279.048 676.393 278.925 676.324 278.79 676.343C278.616 676.361 278.487 676.517 278.506 676.697C278.622 677.733 278.945 678.744 279.375 679.705C279.556 680.117 279.775 680.508 280.006 680.895C279.91 680.972 279.807 681.043 279.723 681.128C279.395 681.469 279.176 681.894 279.022 682.331C278.893 682.77 278.81 683.227 278.86 683.69C278.899 684.141 279.009 684.598 279.272 684.985C279.318 685.042 279.375 685.087 279.446 685.113C279.627 685.179 279.821 685.087 279.892 684.907L279.897 684.882C280.039 684.495 280.13 684.147 280.244 683.82C280.368 683.491 280.457 683.175 280.58 682.866C280.663 682.622 280.761 682.39 280.857 682.146C280.914 682.222 280.967 682.313 281.031 682.39C281.708 683.207 282.46 683.955 283.323 684.573C284.174 685.184 285.093 685.712 286.099 686.034C286.239 686.08 286.408 686.034 286.511 685.911C286.639 685.751 286.621 685.513 286.452 685.378C285.693 684.74 284.947 684.122 284.256 683.452ZM303.279 657.179C304.85 658.872 306.298 660.681 307.728 662.504C309.151 664.332 310.504 666.219 311.843 668.131C311.934 668.254 312.094 668.3 312.236 668.234C312.396 668.158 311.914 668.285 311.843 668.131C310.838 665.993 310.175 663.643 308.855 661.685C307.536 659.722 306.047 657.881 304.508 656.083C302.911 654.338 301.25 652.645 299.46 651.099C297.671 649.553 295.79 648.111 293.787 646.862C293.638 646.765 293.433 646.792 293.311 646.933C293.176 647.087 293.188 647.325 293.343 647.46C295.088 649.006 296.82 650.552 298.476 652.174C300.136 653.784 301.758 655.433 303.279 657.179ZM277.502 682.203C277.424 681.983 277.348 681.764 277.212 681.558C277.09 681.346 276.955 681.128 276.722 680.915L276.703 680.902C276.678 680.876 276.646 680.851 276.607 680.831C276.381 680.716 276.098 680.805 275.99 681.03C275.834 681.327 275.802 681.622 275.802 681.906C275.789 682.196 275.86 682.473 275.951 682.743C276.06 683.001 276.175 683.26 276.374 683.47C276.562 683.697 276.774 683.896 277.083 684.031C277.109 684.044 277.141 684.058 277.174 684.058C277.385 684.097 277.593 683.955 277.63 683.742V683.729C277.689 683.413 277.669 683.157 277.644 682.905C277.637 682.654 277.566 682.427 277.502 682.203ZM121.465 646.533C116.847 645.696 112.153 645.291 107.446 645.225C102.739 645.168 98.0318 645.509 93.3698 646.14C88.7141 646.842 84.0971 647.814 79.5961 649.187C75.095 650.552 70.7033 652.252 66.4984 654.338C66.3568 654.409 66.2859 654.583 66.344 654.738C66.4083 654.898 66.5951 654.976 66.7561 654.912C71.0898 653.205 75.4942 651.717 79.9825 650.525C84.4642 649.335 89.0039 648.368 93.6015 647.769C98.1863 647.094 102.816 646.765 107.453 646.689C112.089 646.604 116.732 646.824 121.362 647.274C121.555 647.293 121.735 647.158 121.767 646.965C121.806 646.764 121.671 646.572 121.465 646.533ZM235.46 684.623C232.646 683.008 230.926 679.543 231.331 676.117C231.352 675.943 231.249 675.769 231.075 675.711C230.876 675.647 230.668 675.757 230.604 675.956C229.684 678.802 230.547 682.086 232.601 684.36C231.487 684.186 230.386 683.884 229.355 683.433C227.585 682.66 225.968 681.416 225.183 679.607C225.125 679.472 224.977 679.389 224.828 679.421C224.661 679.453 224.545 679.62 224.577 679.794C224.783 680.876 225.375 681.874 226.103 682.711C226.857 683.53 227.758 684.193 228.724 684.721C230.668 685.744 232.866 686.261 235.093 686.156C235.363 686.137 235.627 685.989 235.768 685.744C235.995 685.346 235.853 684.849 235.46 684.623ZM365.598 433.153C364.8 433.629 364.04 434.114 363.26 434.537C362.469 434.956 361.689 435.375 360.884 435.729C360.086 436.104 359.262 436.419 358.432 436.733C357.595 437.044 356.737 437.3 355.861 437.591C355.721 437.636 355.612 437.765 355.598 437.918C355.579 438.126 355.733 438.312 355.939 438.332C356.906 438.428 357.871 438.332 358.823 438.138C359.77 437.957 360.692 437.63 361.574 437.223C362.449 436.804 363.286 436.31 364.04 435.697C364.786 435.093 365.482 434.409 366.03 433.611C366.101 433.515 366.108 433.373 366.042 433.263C365.946 433.115 365.747 433.064 365.598 433.153ZM314.798 366.625C314.206 366.599 313.627 366.619 313.041 366.619C312.46 366.631 311.882 366.625 311.289 366.657C310.697 366.684 310.098 366.695 309.48 366.78C309.377 366.793 309.281 366.857 309.228 366.954C309.139 367.109 309.196 367.315 309.357 367.398C309.924 367.72 310.536 367.907 311.154 368.049C311.772 368.196 312.41 368.248 313.041 368.26C313.677 368.26 314.315 368.223 314.933 368.081C315.559 367.944 316.17 367.771 316.744 367.457C316.847 367.398 316.93 367.288 316.943 367.16C316.968 366.947 316.813 366.748 316.602 366.722C315.978 366.645 315.385 366.645 314.798 366.625ZM316.415 353.165L306.923 352.6L299.183 352.033C300.889 354.009 303.092 355.626 305.436 356.907C306.872 357.687 308.378 358.344 309.937 358.859C311.456 359.368 313.176 359.721 314.644 359.838L314.754 359.844C317.465 358.621 320.079 356.766 322.179 354.59C322.435 354.332 322.744 354.003 322.931 353.771C323.002 353.682 323.034 353.604 323.055 353.559C322.984 353.527 322.7 353.476 322.346 353.476L321.154 353.417C319.576 353.346 317.993 353.263 316.415 353.165ZM307.033 350.965L316.511 351.66C318.096 351.768 319.672 351.898 321.25 352.04L322.435 352.143C322.796 352.207 323.331 352.117 323.956 352.619C324.271 352.889 324.406 353.385 324.315 353.758C324.233 354.126 324.066 354.35 323.91 354.544C323.581 354.911 323.331 355.149 323.021 355.446C320.651 357.706 317.902 359.368 314.766 360.514L314.644 360.558C312.828 360.526 311.289 360.231 309.654 359.792C308.018 359.335 306.422 358.724 304.889 357.976C303.362 357.216 301.893 356.329 300.53 355.279C299.164 354.229 297.888 353.03 296.866 351.576C296.621 351.235 296.703 350.757 297.046 350.519C297.193 350.416 297.36 350.372 297.529 350.384H297.547L307.033 350.965ZM323.897 343.339C324.96 343.565 326.093 343.281 327.033 342.767C327.973 342.218 328.752 341.426 329.32 340.486C330.44 338.592 330.562 336.391 330.44 334.395C330.285 332.391 329.931 330.408 329.306 328.509C328.702 326.609 327.883 324.774 326.808 323.111C326.724 322.99 326.57 322.932 326.428 322.99C326.261 323.054 326.184 323.235 326.248 323.395C326.943 325.204 327.542 327.02 327.968 328.882C328.386 330.737 328.688 332.617 328.798 334.498C328.926 336.364 328.798 338.226 328.039 339.784C327.284 341.298 325.752 342.586 323.974 342.598C323.801 342.598 323.64 342.721 323.608 342.895C323.563 343.094 323.691 343.295 323.897 343.339ZM286.15 295.891C288.506 295.1 290.909 294.5 293.343 294.159C295.777 293.824 298.236 293.677 300.683 293.844C303.13 293.94 305.564 294.34 307.947 294.932C310.329 295.518 312.648 296.367 314.914 297.392C315.075 297.469 315.281 297.417 315.379 297.257C315.493 297.09 315.449 296.857 315.276 296.742C313.144 295.338 310.786 294.281 308.341 293.528C305.887 292.769 303.33 292.362 300.768 292.202C298.197 292.117 295.617 292.266 293.11 292.794C290.599 293.309 288.153 294.127 285.898 295.312C285.763 295.383 285.699 295.543 285.745 295.692C285.802 295.859 285.983 295.949 286.15 295.891ZM337.279 300.734C338.501 299.723 339.777 298.842 341.147 298.126C342.513 297.424 343.942 296.852 345.424 296.465C346.899 296.058 348.418 295.834 349.951 295.756C351.49 295.679 353.036 295.802 354.587 296.053C354.754 296.079 354.928 295.994 354.999 295.827C355.083 295.64 354.992 295.415 354.8 295.338C353.281 294.688 351.618 294.365 349.951 294.294C348.283 294.217 346.602 294.436 344.985 294.873C343.382 295.331 341.824 296.001 340.44 296.928C339.049 297.842 337.787 298.97 336.822 300.303C336.737 300.418 336.737 300.58 336.833 300.695C336.943 300.83 337.149 300.843 337.279 300.734ZM792.673 370.593H447.622C444.106 370.593 441.1 373.104 440.474 376.568L393.578 637.544C392.773 642 396.192 646.089 400.719 646.089H584.8L590.067 669.284C590.756 672.266 591.49 675.235 592.185 678.209H505.692L474.332 695.591H596.312C596.319 695.616 596.325 695.648 596.332 695.674C596.378 695.868 596.57 695.989 596.769 695.952C596.97 695.913 597.098 695.713 597.06 695.513C595.257 686.652 593.409 677.804 591.49 668.968L585.669 642.489L579.635 616.047C577.6 607.263 575.5 598.5 573.363 589.742H626.243C626.243 589.76 626.229 589.781 626.229 589.806C628.027 598.667 629.868 607.522 631.773 616.356L637.563 642.844L643.571 669.284C645.6 678.095 647.692 686.89 649.829 695.674C649.875 695.868 650.067 695.989 650.268 695.952C650.442 695.919 650.538 695.758 650.545 695.591H694.666L664.131 678.209H646.931C646.281 675.132 645.657 672.047 644.994 668.968L639.964 646.089H745.768C749.279 646.089 752.292 643.571 752.911 640.113L799.814 379.132C800.619 374.681 797.193 370.593 792.673 370.593ZM369.738 438.332C374.317 447.25 378.658 456.311 384.633 463.651C392.99 473.917 401.833 483.796 411.112 493.243L413.152 481.889C401.981 471.284 391.259 460.362 384.587 451.759C380.763 446.825 375.579 442.344 369.738 438.332ZM324.233 567.389C324.233 567.254 324.148 567.126 324.013 567.08C323.846 567.028 323.666 567.119 323.613 567.286L322.455 570.848C322.044 572.019 321.65 573.192 321.2 574.338C320.768 575.496 320.292 576.63 319.821 577.776L318.327 581.21C318.27 581.356 318.302 581.537 318.437 581.647C318.592 581.782 318.83 581.763 318.965 581.601C319.802 580.622 320.498 579.54 321.129 578.421C321.765 577.3 322.288 576.122 322.739 574.917C323.176 573.707 323.556 572.477 323.794 571.207C324.052 569.951 324.226 568.677 324.233 567.389ZM188.806 477.568C188.962 468.457 187.093 459.266 183.011 451.1C180.957 447.031 178.356 443.218 175.168 439.947C171.974 436.701 168.195 434.011 164.041 432.174C163.887 432.104 163.7 432.168 163.629 432.323C163.552 432.478 163.616 432.664 163.777 432.742C171.846 436.657 177.956 443.746 181.762 451.713C185.574 459.724 187.397 468.669 187.164 477.529C186.985 486.436 185.033 495.233 182.322 503.745C179.605 512.279 176.135 520.573 172.663 528.874C172.587 529.054 172.67 529.272 172.857 529.357C173.043 529.439 173.262 529.357 173.347 529.169C177.132 521.01 180.842 512.78 183.708 504.202C186.579 495.638 188.568 486.681 188.806 477.568ZM169.374 542.932C169.218 542.841 169.026 542.887 168.935 543.035C167.841 544.856 166.836 546.718 165.844 548.585C164.853 550.453 163.945 552.366 162.985 554.246C162.097 556.165 161.176 558.071 160.319 560.003C159.469 561.941 158.632 563.885 157.892 565.875C157.834 566.037 157.898 566.23 158.053 566.326C158.233 566.431 158.465 566.372 158.568 566.198C159.662 564.375 160.654 562.508 161.633 560.634C162.612 558.761 163.526 556.854 164.466 554.96C165.342 553.036 166.263 551.135 167.1 549.191C167.943 547.253 168.774 545.302 169.502 543.312C169.554 543.17 169.502 543.008 169.374 542.932ZM394.736 573.185L387.853 579C380.06 602.949 360.602 641.046 360.602 641.046V682.036L319.821 681.906L311.534 655.683C317.774 656.076 322.636 652.625 318.778 649.07C316.415 646.9 311.444 645.573 307.149 644.788L289.736 601.52C292.293 597.81 294.67 593.978 296.813 590.012C300.13 583.888 302.918 577.486 305.255 570.919C307.522 564.338 309.352 557.588 310.574 550.737C311.817 543.884 312.487 536.935 312.563 529.988C312.563 529.821 312.435 529.679 312.268 529.672C312.094 529.659 311.946 529.787 311.934 529.968C311.495 536.864 310.574 543.717 309.21 550.472C307.831 557.227 306.028 563.892 303.704 570.377C301.449 576.882 298.682 583.211 295.519 589.33C293.588 593.07 291.482 596.723 289.247 600.296L280.406 578.323C282.552 577.473 279.556 576.18 280.406 578.323C279.556 576.18 278.263 579.172 280.406 578.323L307.149 644.788C307.149 644.788 292.518 635.167 291.166 634.723L268.597 627.33C263.792 625.759 258.513 627.118 255.073 630.821L254.43 631.516H254.437C254.552 631.631 254.558 631.812 254.462 631.935C252.53 634.458 250.437 636.855 248.3 639.205C246.168 641.556 243.941 643.816 241.731 646.089C239.471 648.311 237.218 650.545 234.906 652.709C232.587 654.873 230.256 657.017 227.848 659.084C227.687 659.219 227.456 659.201 227.321 659.045C227.198 658.897 227.198 658.684 227.326 658.549C229.458 656.2 231.674 653.933 233.888 651.666L235.691 649.843L178.536 648.176L158.181 567.209L134.292 613.787L131.581 607.432C120.821 582.232 97.9675 564.246 70.948 559.706C70.948 559.706 69.3575 563.409 66.8333 569.405C63.0986 562.456 60.2588 554.82 58.8486 546.434C58.8486 546.434 91.8243 450.231 136.887 421.981C146.423 417.279 153.545 417.338 162.799 418.214C171.466 419.031 179.952 420.932 188.498 422.554C196.643 424.1 205.394 424.653 212.96 421.394L283.414 506.785C276.337 507.512 270.811 513.489 270.811 520.759C270.811 528.519 277.104 534.81 284.862 534.81C292.621 534.81 298.906 528.519 298.906 520.759C298.906 513.361 293.181 507.313 285.919 506.766C288.275 500.396 304.199 455.222 298.86 411.677C303.46 411.935 307.895 412.496 311.895 413.5L311.888 413.486C311.888 413.486 319.384 415.373 329.777 419.038C328.965 421.318 328.43 423.597 328.327 425.761C328.32 425.884 328.315 425.999 328.315 426.122C328.302 426.598 328.309 427.069 328.341 427.531C328.347 427.616 328.359 427.7 328.366 427.783C328.405 428.201 328.469 428.613 328.547 429.027C328.565 429.103 328.579 429.194 328.597 429.276C328.695 429.722 328.823 430.159 328.979 430.584C329.011 430.681 329.049 430.777 329.087 430.868C329.26 431.305 329.448 431.737 329.686 432.156C329.679 432.149 329.667 432.149 329.654 432.149C343.222 462.429 356.783 492.708 370.351 522.988C371.787 526.207 373.235 529.428 374.69 532.641C374.941 533.195 375.193 533.755 375.451 534.309C376.906 537.523 378.381 540.723 379.875 543.923C380.131 544.47 380.39 545.018 380.648 545.565C382.174 548.804 383.725 552.031 385.309 555.238C385.483 555.591 385.664 555.939 385.838 556.293C387.318 559.269 388.832 562.224 390.383 565.161C391.801 567.853 393.242 570.532 394.736 573.185ZM235.119 380.116C233.147 379.363 232.033 378.899 232.033 378.899C232.033 378.937 232.033 378.976 232.033 379.008C232.079 380.303 232.104 381.591 232.104 382.879C232.104 383.117 232.093 383.355 232.086 383.594C232.079 384.688 232.066 385.777 232.015 386.865C231.995 387.406 231.937 387.947 231.905 388.487C231.855 389.274 231.809 390.059 231.731 390.845C231.596 392.172 231.422 393.499 231.203 394.819C230.997 396.029 230.734 397.239 230.43 398.437C231.525 396.66 232.427 394.76 233.09 392.776C234.435 388.7 234.945 384.437 235.119 380.116ZM297.213 411.716C297.206 411.67 297.22 411.631 297.22 411.588C295.72 411.528 294.206 411.491 292.68 411.491C292.506 409.643 292.513 408.502 292.513 408.502C292.513 408.502 299.466 403.093 299.466 398.728C299.466 394.368 293.298 394.071 293.298 394.071C271.623 393.067 246.786 384.521 236.676 380.715C236.464 384.946 235.892 389.171 234.469 393.254C233.316 396.466 231.583 399.467 229.348 402.049C229.348 402.056 229.348 402.063 229.343 402.07C229.007 403.042 228.641 404.001 228.234 404.941C228.209 405 228.19 405.05 228.163 405.103C227.777 405.997 227.365 406.873 226.914 407.724C226.889 407.781 226.864 407.839 226.832 407.891C226.393 408.722 225.924 409.52 225.428 410.312C225.318 410.492 225.195 410.666 225.08 410.847C224.636 411.528 224.165 412.192 223.676 412.837C223.573 412.965 223.476 413.1 223.38 413.23C222.877 413.854 222.356 414.459 221.809 415.046C221.596 415.277 221.377 415.502 221.151 415.728C220.611 416.282 220.05 416.817 219.465 417.318C219.22 417.524 218.968 417.711 218.724 417.905C218.266 418.278 217.79 418.626 217.308 418.967C217.017 419.166 216.727 419.367 216.425 419.559C215.801 419.953 215.163 420.326 214.493 420.667L284.585 505.62C287.529 497.518 302.417 453.786 297.213 411.716ZM301.856 315.094C302.648 312.415 301.964 309.853 300.342 309.376C298.72 308.893 296.763 310.684 295.969 313.362C295.185 316.041 295.861 318.598 297.49 319.081C299.112 319.557 301.07 317.774 301.856 315.094ZM342.455 309.376C340.833 308.893 338.876 310.684 338.089 313.362C337.298 316.041 337.979 318.598 339.603 319.081C341.225 319.557 343.183 317.774 343.974 315.094C344.761 312.415 344.084 309.853 342.455 309.376ZM371.902 290.92C371.709 291.628 371.561 292.343 371.458 293.078C370.975 296.445 372.141 299.871 374.337 302.157L371.902 290.92ZM341.554 358.227L343.125 365.485C344.98 360.791 346.989 356.16 349.171 351.608C355.998 352.541 362.823 353.198 369.63 352.09C371.6 355.361 368.798 360.101 365.817 362.477C362.83 364.847 358.921 365.646 355.173 366.375C355.733 367.958 356.222 369.555 356.698 371.158C356.364 370.547 356.023 369.941 355.65 369.362C355.566 369.227 355.392 369.175 355.25 369.239C355.09 369.317 355.019 369.504 355.095 369.658C356.422 372.498 357.51 375.428 358.29 378.429C359.063 381.437 359.596 384.502 359.758 387.593C359.996 390.683 359.873 393.787 359.487 396.866C359.114 399.945 358.411 402.985 357.471 405.965C357.414 406.146 357.498 406.338 357.672 406.416C357.858 406.505 358.084 406.423 358.167 406.235C359.5 403.337 360.395 400.233 360.93 397.079C361.348 394.613 361.509 392.106 361.471 389.601L382.881 381.719C382.038 382.796 381.245 383.903 380.57 385.081C379.713 386.568 378.967 388.114 378.432 389.736C378.381 389.905 378.445 390.084 378.592 390.182C378.773 390.285 379.006 390.233 379.114 390.052C379.985 388.622 380.854 387.22 381.799 385.866C382.752 384.521 383.731 383.194 384.788 381.939C385.168 381.474 385.566 381.03 385.966 380.587L390.931 378.757L390.364 376.124C390.822 375.705 391.279 375.287 391.748 374.868C391.851 374.779 391.883 374.617 391.812 374.482C391.73 374.326 391.542 374.269 391.387 374.353C390.957 374.584 390.557 374.861 390.145 375.12L389.836 373.702C389.07 374.159 388.393 374.514 387.917 374.708C382.908 376.742 376.963 376.298 372.309 373.548C369.9 372.119 367.645 369.369 368.663 366.76C369.578 364.435 372.462 363.733 374.935 363.353C378.741 362.775 382.54 362.189 386.346 361.601C386.622 361.583 386.906 361.576 387.183 361.544C388.535 361.409 389.887 361.228 391.22 360.913C391.375 360.874 391.497 360.739 391.504 360.565C391.517 360.359 391.355 360.179 391.149 360.172C389.797 360.096 388.457 360.101 387.119 360.089H386.887L386.126 356.573C385.632 356.573 385.179 356.546 384.806 356.482C378.857 355.453 373.196 352.806 368.599 348.89C366.982 347.518 365.449 345.921 364.774 343.913C364.091 341.909 364.491 339.411 366.179 338.135C371.529 339.365 376.796 340.905 381.986 342.689C381.446 342.424 380.93 342.11 380.408 341.806L385.309 344.421C385.438 344.492 385.611 344.459 385.703 344.338C385.811 344.203 385.785 344.002 385.65 343.899C384.047 342.611 382.354 341.447 380.628 340.333C378.903 339.212 377.119 338.194 375.314 337.215C374.639 336.861 373.956 336.52 373.281 336.179C370.228 333.1 367.53 329.559 364.96 326.074C363.32 323.852 361.671 320.698 363.441 318.573C364.466 317.329 366.332 317.077 367.878 317.523C369.422 317.974 370.724 318.991 371.986 319.996C374.143 321.702 376.719 323.395 379.314 325.147L375.605 308.024C371.252 309.505 366.081 308.932 362.025 306.601C358.754 304.727 356.172 301.919 354.214 298.686C353.969 319.106 349.667 339.489 341.554 358.227ZM304.682 678.655L303.851 678.712C302.918 678.777 302.055 679.138 301.328 679.685C300.69 678.609 300.02 677.553 299.313 676.53C298.366 675.138 297.328 673.818 296.273 672.518C295.198 671.23 294.089 669.968 292.911 668.776C291.74 667.578 290.528 666.413 289.228 665.35C289.093 665.24 288.899 665.235 288.757 665.343C288.597 665.466 288.565 665.704 288.693 665.864C289.704 667.198 290.773 668.467 291.829 669.748L295.004 673.568L298.204 677.372C299.022 678.333 299.846 679.291 300.676 680.245C300.4 680.554 300.155 680.895 299.963 681.281L299.576 682.036L319.821 681.906L311.534 674.665C310.157 676.365 307.117 678.493 304.682 678.655Z" fill="#010043"/>
</svg>
