<svg width="189" height="219" viewBox="0 0 189 219" fill="none" xmlns="http://www.w3.org/2000/svg">
<g clip-path="url(#clip0_1022_283)">
<path d="M186.757 121.295C180.856 156.329 157.918 180.392 129.021 190.741C127.822 191.841 126.475 192.879 124.995 193.844V199.584C124.995 203.897 122.371 207.846 118.021 210.9L118.022 193.949C110.646 195.636 102.998 196.488 95.2355 196.458C50.7528 196.282 16.6648 164.364 4.22392 117.566C-9.63373 65.4383 13.8688 -4.35192 97.7525 0.855784C142.164 3.6111 200.219 41.3822 186.757 121.295Z" fill="#70C573"/>
<path d="M95.4264 28.1348C61.1292 28.1348 33.3271 55.9568 33.3271 90.2747C33.3271 101.419 36.2626 111.877 41.3954 120.921L55.5492 146.27V146.271V162.058C55.5492 162.07 55.5492 162.081 55.5492 162.093V177.881C55.5492 184.032 59.4912 189.637 65.9558 193.85V199.584C65.9558 209.268 79.1725 217.12 95.4754 217.12C104.518 217.12 112.607 214.701 118.021 210.898L118.022 197.457C120.155 196.589 122.128 195.595 123.934 194.502V162.902C131.026 158.622 135.402 152.749 135.402 146.27L149.942 120.049C154.773 111.208 157.524 101.063 157.524 90.2747C157.524 55.9568 129.722 28.1348 95.4264 28.1348ZM135.402 162.093C135.402 162.081 135.402 162.07 135.402 162.058C135.402 162.07 135.4 162.081 135.4 162.093H135.402ZM133.935 184.267C134.031 184.063 134.12 183.857 134.207 183.649C134.12 183.857 134.031 184.063 133.935 184.267ZM133.819 184.5C133.858 184.424 133.899 184.345 133.935 184.267C133.899 184.345 133.858 184.424 133.819 184.5ZM133.819 184.5C133.725 184.696 133.628 184.888 133.524 185.08C133.628 184.888 133.725 184.696 133.819 184.5ZM133.395 185.315C133.29 185.506 133.181 185.696 133.067 185.885C133.181 185.696 133.288 185.506 133.395 185.315ZM133.395 185.315C133.438 185.237 133.484 185.159 133.524 185.08C133.484 185.159 133.438 185.237 133.395 185.315ZM134.207 183.649C134.235 183.581 134.268 183.513 134.295 183.445C134.268 183.513 134.235 183.581 134.207 183.649ZM124.995 193.85C126.875 192.625 128.538 191.281 129.956 189.839C128.462 191.357 126.689 192.765 124.684 194.041C124.786 193.976 124.895 193.916 124.995 193.85ZM124.684 194.041C124.439 194.198 124.188 194.351 123.934 194.502V194.511C124.189 194.357 124.437 194.199 124.684 194.041ZM134.295 183.445C134.407 183.169 134.511 182.892 134.606 182.613C134.511 182.892 134.407 183.169 134.295 183.445ZM130.014 189.779C129.996 189.8 129.975 189.82 129.956 189.839C129.975 189.82 129.996 189.8 130.014 189.779ZM130.734 189.012C130.918 188.807 131.098 188.6 131.271 188.391C131.096 188.6 130.918 188.807 130.734 189.012ZM131.395 188.241C131.353 188.292 131.312 188.341 131.271 188.391C131.312 188.341 131.353 188.292 131.395 188.241ZM130.635 189.122C130.434 189.344 130.227 189.563 130.014 189.779C130.227 189.563 130.434 189.344 130.635 189.122ZM133.067 185.885C133.021 185.959 132.975 186.034 132.927 186.107C132.975 186.034 133.021 185.959 133.067 185.885ZM130.734 189.012C130.7 189.049 130.667 189.087 130.635 189.122C130.667 189.087 130.7 189.049 130.734 189.012ZM131.395 188.241C131.557 188.043 131.713 187.844 131.866 187.646C131.713 187.844 131.557 188.043 131.395 188.241ZM132.56 186.679C132.688 186.49 132.808 186.299 132.927 186.107C132.808 186.299 132.688 186.49 132.56 186.679ZM132.56 186.679C132.513 186.748 132.465 186.816 132.419 186.885C132.465 186.816 132.513 186.748 132.56 186.679ZM131.866 187.646C131.912 187.584 131.958 187.524 132.002 187.465C131.958 187.524 131.912 187.584 131.866 187.646ZM132.419 186.885C132.285 187.078 132.145 187.272 132.002 187.465C132.145 187.272 132.283 187.078 132.419 186.885ZM135.402 177.887C135.402 177.885 135.402 177.883 135.402 177.881C135.402 177.883 135.402 177.885 135.402 177.887Z" fill="#FBEEE6"/>
<path d="M77.4595 167.007V150.8C71.2891 152.652 66.0387 155.424 62.2188 158.816C65.5916 161.454 70.9864 165.028 77.4595 167.007ZM89.014 148.572V169.357H101.836V148.572C99.7475 148.371 97.608 148.268 95.4261 148.268C93.2436 148.268 91.1026 148.371 89.014 148.572ZM113.391 168.037C120.197 165.623 125.711 161.154 128.444 158.651C124.641 155.334 119.461 152.621 113.391 150.802V168.037ZM136.7 146.27C136.7 146.988 136.12 147.568 135.402 147.568C134.684 147.568 134.104 146.988 134.104 146.27C134.104 133.907 116.776 123.851 95.475 123.851C74.175 123.851 56.8462 133.907 56.8462 146.27C56.8462 146.988 56.2644 147.568 55.5489 147.568C54.8308 147.568 54.2495 146.988 54.2495 146.27C54.2495 139.457 58.6285 133.104 66.5796 128.381C74.3178 123.785 84.5805 121.252 95.475 121.252C106.37 121.252 116.632 123.785 124.371 128.381C132.322 133.104 136.7 139.457 136.7 146.27Z" fill="#593EA1"/>
<path d="M41.6999 141.659C42.2118 142.159 42.2221 142.983 41.7203 143.495L32.2965 153.14C32.0431 153.4 31.7064 153.53 31.3696 153.53C31.0414 153.53 30.7131 153.407 30.4614 153.16C29.9478 152.658 29.9393 151.837 30.441 151.323L39.8648 141.68C40.3649 141.167 41.188 141.157 41.6999 141.659ZM157.301 149.789C157.803 150.303 157.794 151.125 157.28 151.627C157.029 151.874 156.701 151.996 156.373 151.996C156.035 151.996 155.699 151.865 155.444 151.607L147.52 143.495C147.018 142.983 147.027 142.159 147.54 141.659C148.053 141.157 148.876 141.167 149.376 141.68L157.301 149.789ZM30.441 28.7916C29.9393 28.2776 29.9478 27.4556 30.4614 26.9536C30.9733 26.4516 31.7965 26.4618 32.2965 26.974L41.7203 36.6185C42.2221 37.1307 42.2118 37.9544 41.6999 38.4565C41.4465 38.7033 41.12 38.8258 40.7917 38.8258C40.455 38.8258 40.1183 38.6948 39.8648 38.4344L30.441 28.7916ZM158.925 27.1289C159.286 27.631 159.248 28.3338 158.799 28.7916L149.376 38.4344C149.122 38.6948 148.785 38.8258 148.449 38.8258C148.12 38.8258 147.792 38.7033 147.54 38.4565C147.027 37.9544 147.018 37.1307 147.52 36.6185L156.944 26.974C157.372 26.5349 158.034 26.4686 158.539 26.7715C158.624 26.8226 158.706 26.8821 158.779 26.9536C158.835 27.0081 158.881 27.0676 158.925 27.1289ZM20.7519 88.27C20.7519 88.988 20.1702 89.5687 19.4542 89.5687H6.67655C5.96056 89.5687 5.37891 88.988 5.37891 88.27C5.37891 87.5519 5.96056 86.9698 6.67655 86.9698H19.4542C20.1702 86.9698 20.7519 87.5519 20.7519 88.27ZM183.862 88.27C183.862 88.988 183.281 89.5687 182.564 89.5687H169.788C169.07 89.5687 168.488 88.988 168.488 88.27C168.488 87.5519 169.07 86.9698 169.788 86.9698H182.564C183.281 86.9698 183.862 87.5519 183.862 88.27ZM95.1081 14.8415V2.05536C95.1081 1.38993 95.6101 0.847035 96.2545 0.772153C96.3055 0.765345 96.3549 0.756836 96.4059 0.756836C96.5129 0.756836 96.6153 0.772153 96.7137 0.797681C97.2819 0.935532 97.7038 1.44439 97.7038 2.05536V14.8415C97.7038 15.5579 97.1235 16.14 96.4059 16.14C95.6884 16.14 95.1081 15.5579 95.1081 14.8415ZM108.966 105.656V99.0222C108.966 93.9915 113.056 89.8989 118.083 89.8989H118.21C122.517 89.8989 126.024 93.4078 126.024 97.7189V97.8361C126.024 102.149 122.517 105.656 118.21 105.656H108.966ZM148.806 119.419L136.169 142.209L134.268 145.638C134.256 145.657 134.251 145.677 134.242 145.696C134.222 145.738 134.203 145.781 134.186 145.827C134.173 145.866 134.161 145.903 134.151 145.944C134.141 145.984 134.13 146.026 134.123 146.069C134.116 146.113 134.113 146.159 134.11 146.205C134.11 146.227 134.105 146.247 134.105 146.27C134.105 150.698 131.878 154.831 128.045 158.312C124.688 161.358 120.101 163.904 114.689 165.713V148.419C114.689 146.077 112.265 144.185 108.966 143.775V108.255H118.21C123.949 108.255 128.622 103.582 128.622 97.8361V97.7189C128.622 91.9752 123.949 87.3015 118.21 87.3015H118.083C111.626 87.3015 106.37 92.5589 106.37 99.0222V105.656H84.482V99.0222C84.482 92.5589 79.227 87.3015 72.7675 87.3015H72.6434C66.9015 87.3015 62.2298 91.9752 62.2298 97.7189V97.8361C62.2298 103.582 66.9015 108.255 72.6434 108.255H81.8833V143.775C78.5857 144.185 76.162 146.077 76.162 148.419V165.677C70.7688 163.863 66.199 161.314 62.859 158.267C59.0543 154.796 56.8466 150.679 56.8466 146.27C56.8466 146.247 56.8416 146.225 56.8401 146.203C56.8381 146.157 56.833 146.111 56.8264 146.065C56.8194 146.025 56.8108 145.984 56.8007 145.943C56.7891 145.903 56.777 145.865 56.7634 145.825C56.7482 145.779 56.7296 145.737 56.7074 145.696C56.6973 145.676 56.6917 145.655 56.6816 145.636L54.7767 142.224L42.5299 120.285C42.5282 120.284 42.5265 120.28 42.5248 120.277C37.358 111.176 34.6266 100.801 34.6266 90.2746C34.6266 56.7278 61.9013 29.4349 95.4265 29.4349C128.951 29.4349 156.224 56.7278 156.224 90.2746C156.224 100.462 153.658 110.542 148.806 119.419ZM134.105 177.881C134.105 183.712 130.245 189.031 123.934 193.023C116.869 197.492 106.726 200.299 95.4754 200.299C74.1754 200.299 56.8466 190.242 56.8466 177.881V170.878C58.9251 174.264 62.2126 177.351 66.58 179.946C74.3182 184.543 84.5809 187.075 95.4754 187.075C106.17 187.075 116.249 184.629 123.934 180.193C124.079 180.109 124.228 180.031 124.371 179.946C128.739 177.351 132.026 174.264 134.105 170.878V177.881ZM123.696 199.584C123.696 203.241 121.582 206.619 118.021 209.337C116.407 210.569 114.495 211.667 112.349 212.591V200.729C114.313 200.198 116.211 199.577 118.022 198.861C120.026 198.067 121.92 197.161 123.696 196.151V199.584ZM96.7733 202.879C101.267 202.795 105.636 202.283 109.75 201.369V213.582C105.91 214.882 101.493 215.677 96.7733 215.801V202.879ZM81.1995 201.369C85.3156 202.283 89.6845 202.795 94.176 202.879V215.801C89.4585 215.677 85.0401 214.882 81.1995 213.582V201.369ZM67.2537 199.584V196.151C70.633 198.071 74.4645 199.611 78.6043 200.729V212.591C71.7179 209.628 67.2537 204.9 67.2537 199.584ZM95.4754 171.285C106.17 171.285 116.249 168.841 123.934 164.405C124.079 164.321 124.228 164.241 124.371 164.158C128.739 161.562 132.026 158.476 134.105 155.09V162.058C134.105 167.89 130.245 173.208 123.934 177.199C116.869 181.668 106.726 184.476 95.4754 184.476C74.1754 184.476 56.8466 174.419 56.8466 162.058V155.09C58.9251 158.476 62.2126 161.562 66.58 164.158C74.3182 168.755 84.5809 171.285 95.4754 171.285ZM81.8833 105.656H72.6434C68.3335 105.656 64.8265 102.149 64.8265 97.8361V97.7189C64.8265 93.4078 68.3335 89.8989 72.6434 89.8989H72.7675C77.7949 89.8989 81.8833 93.9915 81.8833 99.0222V105.656ZM106.37 122.132V143.763C103.017 144.146 100.537 146.051 100.537 148.419V168.494C98.8805 168.622 97.1916 168.688 95.4754 168.688C93.7254 168.688 92.0027 168.618 90.3138 168.487V148.419C90.3138 146.051 87.8341 144.146 84.482 143.763V108.255H106.37V122.132ZM107.614 150.553C105.092 150.553 103.134 149.406 103.134 148.419C103.134 147.604 104.478 146.68 106.37 146.384V148.419H108.966V146.399C110.803 146.712 112.094 147.619 112.094 148.419C112.094 149.406 110.136 150.553 107.614 150.553ZM112.094 166.505C109.277 167.288 106.274 167.876 103.134 168.244V152.107C104.347 152.762 105.9 153.15 107.614 153.15C109.328 153.15 110.881 152.762 112.094 152.107V166.505ZM84.482 148.419V146.384C86.3748 146.68 87.7171 147.604 87.7171 148.419C87.7171 149.406 85.7612 150.553 83.2371 150.553C80.7151 150.553 78.7572 149.406 78.7572 148.419C78.7572 147.619 80.048 146.712 81.8833 146.399V148.419H84.482ZM78.7572 152.107C79.9698 152.762 81.523 153.15 83.2371 153.15C84.9533 153.15 86.5045 152.762 87.7171 152.107V168.234C84.5754 167.859 81.5719 167.266 78.7572 166.477V152.107ZM95.4265 26.8362C60.4692 26.8362 32.0295 55.2948 32.0295 90.2746C32.0295 101.247 34.8765 112.062 40.2628 121.553L40.2645 121.557L41.5502 123.859L54.2499 146.608V162.058C54.2499 162.068 54.2499 162.076 54.2499 162.087C54.2499 162.088 54.2499 162.09 54.2499 162.093V177.881C54.2499 181.372 55.4029 184.74 57.5935 187.832C59.3197 190.268 61.6904 192.531 64.6565 194.546V199.584C64.6565 204.744 67.9526 209.545 73.9392 213.1C79.713 216.529 87.3598 218.418 95.4754 218.418C103.59 218.418 111.238 216.529 117.012 213.1C122.997 209.545 126.293 204.744 126.293 199.584V194.546C128.509 193.042 130.393 191.398 131.926 189.647C135.045 186.078 136.7 182.066 136.7 177.881V162.093C136.7 162.09 136.7 162.088 136.7 162.087C136.7 162.076 136.7 162.068 136.7 162.058V146.605L151.078 120.679L151.081 120.672C156.144 111.407 158.821 100.896 158.821 90.2746C158.821 55.2948 130.383 26.8362 95.4265 26.8362Z" fill="#010043"/>
</g>
<defs>
<clipPath id="clip0_1022_283">
<rect width="188.724" height="219" fill="white"/>
</clipPath>
</defs>
</svg>
