<svg width="799" height="1045" viewBox="0 0 799 1045" fill="none" xmlns="http://www.w3.org/2000/svg">
<path d="M505.58 917.645C124.642 917.645 32.1882 762.418 3.61888 631.107C-24.9503 499.797 119.873 43.1804 288.496 6.57403C457.112 -30.0325 715.112 92.7773 775.255 212.974C829.797 321.971 805.402 917.645 505.58 917.645Z" fill="#70C573"/>
<path d="M228.672 160.359L228.246 170.568C230.064 168.523 232.217 166.77 234.584 165.353C235.87 164.573 237.225 163.926 238.617 163.369C240.347 162.67 242.136 162.102 243.962 161.678C247.26 161.023 250.672 160.81 254.014 161.209C255.22 161.359 256.417 161.607 257.595 161.899C259.529 162.386 261.399 163.068 263.154 163.98L261.514 154.054C261.514 154.054 271.194 146.465 272.824 140.523C274.465 134.573 279.074 126.249 279.224 120.299C279.374 114.357 269.996 121.937 267.913 125.797C265.831 129.667 261.514 136.211 261.514 136.211C261.514 136.211 259.129 110.939 258.535 110.638L252.596 79.6986C252.1 77.1128 248.519 76.2185 247.197 78.5031C247.091 78.689 246.993 78.9016 246.932 79.1229C246.33 81.0977 247.624 103.421 248.35 115.021C247.933 115.216 247.508 115.402 247.074 115.597L237.137 81.2836C236.383 78.7068 232.714 77.9807 231.623 80.3272C231.534 80.5221 231.463 80.7346 231.419 80.9648C230.967 83.1875 235.355 110.399 236.968 120.254C236.933 120.272 236.898 120.281 236.872 120.299L224.461 90.5194C223.442 88.093 219.754 87.9602 218.939 90.4662C218.868 90.6699 218.824 90.8913 218.797 91.1215C218.629 93.1049 224.107 113.277 227.288 124.744C226.969 124.894 226.66 125.036 226.358 125.187L217.069 103.297C216.04 100.862 212.352 100.747 211.547 103.253C211.476 103.465 211.431 103.687 211.412 103.917C211.262 105.608 215.251 120.431 218.424 131.89C218.726 138.62 220.34 154.913 228.672 160.359ZM451.881 416.037C444.834 412.212 437.849 408.253 430.952 404.136C430.837 404.075 430.776 403.967 430.758 403.852L430.022 403.481C430.022 403.481 420.608 413.93 416.441 419.287C415.388 420.633 407.667 422.563 396.719 424.698C388.068 426.388 377.412 428.195 366.421 429.94C336.282 434.738 303.724 439.07 303.724 439.07C303.724 439.07 290.101 425.238 276.078 425.238C262.064 425.238 254.795 425.088 255.441 428.214C256.088 431.339 275.687 438.768 275.687 438.768L221.572 439.07C221.572 439.07 251.94 458.391 273.356 458.691C294.771 458.984 303.724 458.691 303.724 458.691C303.724 458.691 337.896 458.691 371.89 458.691C401.178 458.691 430.332 458.691 437.361 458.691C450.559 458.691 467.162 433.438 471.285 426.822C464.857 423.166 458.369 419.614 451.881 416.037ZM426.503 171.276C425.811 170.702 425.182 170.063 424.633 169.364C425.386 170.489 426.042 171.791 426.351 173.11C426.397 172.499 426.449 171.879 426.503 171.276ZM365.97 190.686H365.995C366.856 190.546 367.644 190.465 368.434 190.492C369.214 190.536 369.975 190.625 370.712 190.82C371.465 190.988 372.174 191.272 372.874 191.59C373.583 191.926 374.231 192.36 374.923 192.865L374.948 192.883C375.09 192.98 375.267 193.015 375.445 192.954C375.72 192.856 375.861 192.547 375.765 192.272C375.426 191.333 374.754 190.536 373.964 189.908C373.176 189.261 372.218 188.854 371.244 188.614C369.284 188.173 367.042 188.543 365.587 189.926C365.491 190.014 365.428 190.164 365.455 190.315C365.499 190.563 365.73 190.73 365.97 190.686ZM368.078 178.803L368.096 178.812C368.824 179.193 369.514 179.53 370.152 179.928C370.783 180.335 371.411 180.725 371.978 181.186C372.572 181.61 373.114 182.115 373.664 182.61C374.213 183.125 374.717 183.682 375.286 184.267L375.294 184.285C375.409 184.409 375.578 184.471 375.755 184.444C376.047 184.409 376.251 184.143 376.216 183.841C376.091 182.939 375.711 182.098 375.215 181.335C374.727 180.565 374.071 179.919 373.335 179.371C372.599 178.839 371.784 178.396 370.898 178.165C370.029 177.918 369.116 177.803 368.221 177.954C368.088 177.971 367.963 178.06 367.892 178.184C367.777 178.405 367.857 178.68 368.078 178.803ZM375.082 198.169C373.76 200.1 372.307 202.074 371.261 204.412C370.26 206.732 369.701 209.504 370.587 212.116C371.438 214.692 373.875 216.827 376.624 216.641C376.818 216.624 376.987 216.482 377.023 216.278C377.058 216.038 376.899 215.818 376.659 215.781L376.641 215.773C374.488 215.428 372.883 213.533 372.422 211.584C371.97 209.548 372.422 207.335 373.335 205.324C374.231 203.278 375.596 201.348 376.793 199.223C377.981 197.116 379.088 194.743 379.159 192.184C379.168 191.953 378.999 191.723 378.759 191.669C378.484 191.598 378.211 191.776 378.14 192.051C377.564 194.265 376.393 196.239 375.082 198.169ZM378.946 226.319C378.786 226.497 378.796 226.779 378.973 226.948C380.153 228.037 381.836 228.532 383.449 228.542C385.081 228.569 386.676 228.117 388.112 227.373C389.513 226.612 390.745 225.612 391.764 224.477C392.792 223.361 393.688 222.167 394.449 220.9C394.556 220.714 394.547 220.483 394.405 220.307C394.228 220.076 393.909 220.042 393.678 220.218C392.633 221.042 391.675 221.927 390.709 222.741C390.603 222.839 390.488 222.937 390.382 223.025C389.565 223.69 388.75 224.291 387.908 224.823C387.616 225.009 387.332 225.222 387.039 225.381C384.752 226.612 382.013 227.196 379.443 226.213L379.424 226.205C379.265 226.151 379.078 226.186 378.946 226.319ZM390.868 176.846C390.886 177.086 391.099 177.263 391.347 177.246C392.907 177.121 394.424 177.157 395.894 177.405C397.366 177.679 398.785 178.094 400.088 178.751C401.409 179.388 402.614 180.247 403.721 181.23C404.82 182.23 405.77 183.407 406.638 184.701C406.754 184.878 406.984 184.976 407.205 184.914C407.48 184.843 407.648 184.559 407.578 184.285C407.152 182.647 406.283 181.141 405.166 179.84C404.059 178.528 402.641 177.476 401.08 176.714C399.502 175.978 397.801 175.545 396.081 175.5C394.37 175.447 392.659 175.721 391.126 176.405C390.957 176.483 390.851 176.66 390.868 176.846ZM403.306 191.032C403.306 189.492 402.055 188.234 400.503 188.234C398.962 188.234 397.703 189.492 397.703 191.032C397.703 192.573 398.962 193.831 400.503 193.831C402.055 193.831 403.306 192.573 403.306 191.032ZM365.72 230.41C358.904 210.38 364.905 172.622 365.553 158.277C365.685 155.205 366.252 152.159 367.192 149.246C368.939 147.723 371.102 146.642 373.291 146.244C370.631 152.858 373.166 160.572 377.475 166.255C378.778 167.974 380.312 169.629 382.305 170.462C384.3 171.294 386.853 171.1 388.316 169.506C388.35 169.47 388.369 169.425 388.404 169.381C389.086 168.558 389.334 167.407 389.15 166.363C391.055 168.567 393.492 170.312 396.213 171.365C397.561 171.879 399.077 172.233 400.451 171.754C402.081 171.188 403.137 169.515 403.465 167.814C403.784 166.115 403.509 164.36 403.234 162.644C406.364 168.31 410.919 173.189 416.372 176.677C418.082 177.776 419.97 178.759 422 178.759C423.656 178.751 425.369 177.874 426.13 176.466C425.98 179.317 425.926 182.177 425.963 185.028C427.539 182.726 429.259 180.442 431.733 179.166C434.435 177.776 438.283 178.104 439.888 180.69C441.12 182.681 440.659 185.25 440.003 187.499C438.868 191.395 437.184 195.256 434.322 198.134C432.398 200.073 429.845 201.481 427.176 201.941C428.285 210.274 430.155 218.5 432.778 226.487C435.304 234.21 438.673 241.913 444.48 247.598C444.905 248.005 445.374 248.403 445.862 248.758C446.367 252.725 446.863 256.373 447.253 259.136C447.688 262.244 447.989 264.21 447.989 264.21L437.733 268.974L412.222 280.796C406.727 283.346 400.601 278.864 401.345 272.853C401.355 272.799 401.355 272.737 401.364 272.674C401.728 269.683 401.922 266.415 401.78 263.068C401.639 259.747 401.178 256.356 400.211 253.061C399.883 251.928 399.369 251.095 398.731 250.457C399.316 250.457 399.91 250.467 400.496 250.44C403.721 250.281 406.894 249.511 409.918 248.386C412.897 247.155 415.732 245.534 418.205 243.453C420.67 241.373 422.797 238.893 424.314 236.086C424.429 235.865 424.375 235.59 424.181 235.431C423.95 235.254 423.631 235.298 423.453 235.519C421.556 237.937 419.385 240.079 416.956 241.886C414.536 243.683 411.895 245.198 409.076 246.279C406.3 247.447 403.331 248.155 400.336 248.528C398.545 248.748 396.746 248.802 394.928 248.722C387.828 247.466 375.657 250.954 367.342 234.325C366.731 233.119 366.199 231.81 365.72 230.41ZM263.144 165.122C260.122 164.061 256.984 163.396 253.828 163.21C252.26 163.112 250.682 163.112 249.113 163.227C248.979 163.237 248.846 163.254 248.713 163.264C247.268 163.379 245.842 163.582 244.423 163.901C241.321 164.485 238.334 165.591 235.515 167.027C232.874 168.373 230.417 170.099 228.175 172.117L222.706 301.1H276.76C284.746 301.1 291.554 306.899 292.813 314.781L294.533 325.575L304.434 325.451L281.609 276.111L263.34 165.122C263.269 165.122 263.206 165.14 263.144 165.122ZM329.12 270.958L291.669 275.022L329.12 270.958Z" fill="#F4B47E"/>
<path d="M410.344 473.293C410.105 472.417 409.804 471.559 409.406 470.726H450.774C450.757 470.77 450.712 470.797 450.712 470.85C450.614 471.991 450.659 473.099 450.72 474.214C450.774 475.33 450.934 476.428 451.085 477.526C451.262 478.625 451.456 479.713 451.741 480.794C451.927 481.52 452.148 482.246 452.387 482.972C451.404 482.954 450.42 482.928 449.444 482.91L430.129 482.786L410.815 482.964C410.672 482.964 410.53 482.964 410.38 482.972C410.709 481.937 410.859 480.873 410.947 479.802C411.053 478.713 411.009 477.615 410.93 476.526C410.805 475.436 410.655 474.356 410.344 473.293ZM467.084 780.668C466.871 780.81 466.588 780.764 466.419 780.58C464.017 777.834 461.889 774.868 459.94 771.769C457.999 768.677 456.323 765.429 454.781 762.116C453.336 758.76 452.006 755.35 450.995 751.844C449.976 748.338 449.169 744.778 448.71 741.165C448.683 740.927 448.85 740.714 449.09 740.679C449.303 740.652 449.507 740.785 449.559 740.988C450.561 744.46 451.608 747.887 452.821 751.251C454.036 754.617 455.322 757.954 456.846 761.187C458.282 764.453 459.94 767.623 461.668 770.749C463.406 773.885 465.293 776.931 467.244 779.959C467.394 780.198 467.323 780.517 467.084 780.668ZM448.345 532.853C448.31 532.728 448.327 532.605 448.381 532.507C448.7 531.896 449.108 531.391 449.525 530.904C449.932 530.408 450.411 529.992 450.889 529.575C451.385 529.186 451.883 528.796 452.44 528.487C453 528.168 453.567 527.866 454.222 527.672C454.524 527.592 454.833 527.761 454.914 528.062C454.958 528.203 454.931 528.354 454.87 528.469C454.551 529.08 454.134 529.567 453.709 530.045C453.292 530.531 452.804 530.94 452.317 531.338C451.812 531.718 451.306 532.1 450.73 532.392C450.171 532.701 449.596 532.993 448.931 533.179C448.683 533.25 448.416 533.1 448.345 532.853ZM507.159 720.498C510.926 682.44 534.479 625.643 518.878 576.728C503.267 527.814 469.575 470.726 469.575 470.726H451.572C452.016 471.77 452.325 472.842 452.617 473.913C452.919 474.984 453.123 476.075 453.319 477.163C453.496 478.262 453.655 479.36 453.726 480.466C453.788 481.307 453.805 482.148 453.788 482.999C458.779 483.087 463.769 483.193 468.751 483.398C469.034 483.415 469.256 483.653 469.247 483.937C469.23 484.202 469.016 484.415 468.751 484.433C462.316 484.698 455.879 484.813 449.444 484.92L430.129 485.044L425.086 484.999C426.318 488.789 427.7 492.509 429.332 496.122C431.008 499.822 432.851 503.453 435.005 506.898C437.07 510.386 439.428 513.708 441.954 516.895C444.339 519.933 446.936 522.801 449.648 525.582C449.888 525.378 450.119 525.157 450.357 524.944C451.474 524.015 452.636 523.112 453.868 522.333C455.1 521.536 456.359 520.801 457.715 520.225C457.98 520.109 458.282 520.234 458.397 520.499C458.485 520.703 458.433 520.933 458.282 521.075C457.236 522.093 456.146 523.005 455.064 523.936L451.812 526.68L448.523 529.381C447.406 530.276 446.315 531.178 445.127 532.029C444.923 532.171 444.649 532.127 444.516 531.931C444.401 531.781 444.401 531.586 444.498 531.436C445.287 530.195 446.227 529.07 447.201 527.991C447.726 527.406 448.266 526.866 448.823 526.334C445.775 523.89 442.974 521.129 440.403 518.17C437.673 515.027 435.261 511.609 433.064 508.067C430.963 504.463 429.057 500.744 427.559 496.857C426.07 493.004 424.89 489.037 424.155 484.991L410.815 484.876C404.379 484.761 397.943 484.629 391.5 484.344C391.269 484.335 391.083 484.132 391.092 483.893C391.1 483.672 391.277 483.494 391.5 483.486C397.447 483.219 403.395 483.096 409.342 482.989C409.342 482.981 409.342 482.981 409.342 482.981C409.148 481.91 409.06 480.865 408.944 479.819L408.67 476.72L408.456 473.604C408.403 472.655 408.341 471.709 408.35 470.726H374.471L430.191 683.732L513.045 1000.5C515.457 1000.27 517.876 1000.14 520.287 1000.04C522.974 999.907 525.659 999.882 528.344 999.863C531.039 999.863 533.726 999.882 536.411 999.996C539.096 1000.09 541.783 1000.21 544.468 1000.48C544.753 1000.51 544.966 1000.77 544.939 1001.05C544.912 1001.29 544.708 1001.48 544.468 1001.51C541.783 1001.78 539.096 1001.9 536.411 1002C533.726 1002.11 531.039 1002.12 528.344 1002.13C525.659 1002.1 522.974 1002.08 520.287 1001.95C517.965 1001.86 515.634 1001.72 513.312 1001.52L514.782 1007.13H544.576C544.576 1007.13 556.506 924.18 537.697 856.387C518.886 788.584 503.383 758.557 507.159 720.498Z" fill="#70C573"/>
<path d="M400.504 188.234C402.055 188.234 403.306 189.492 403.306 191.032C403.306 192.574 402.055 193.831 400.504 193.831C398.962 193.831 397.703 192.574 397.703 191.032C397.703 189.492 398.962 188.234 400.504 188.234ZM227.112 172.49C226.97 172.331 226.962 172.092 227.085 171.933C227.448 171.455 227.848 171.011 228.246 170.568C230.064 168.523 232.217 166.77 234.585 165.353C235.871 164.574 237.226 163.927 238.617 163.37C240.347 162.671 242.137 162.103 243.963 161.678C247.261 161.023 250.673 160.81 254.015 161.209C255.22 161.359 256.417 161.607 257.596 161.899C259.529 162.387 261.399 163.068 263.154 163.98C263.287 164.051 263.437 164.113 263.571 164.184C263.819 164.316 263.908 164.635 263.775 164.884C263.677 165.044 263.508 165.113 263.341 165.123C263.269 165.123 263.206 165.14 263.145 165.123C260.123 164.061 256.984 163.396 253.828 163.21C252.26 163.112 250.682 163.112 249.114 163.228C248.979 163.237 248.847 163.254 248.714 163.264C247.269 163.379 245.842 163.583 244.424 163.901C241.322 164.485 238.335 165.591 235.515 167.027C232.874 168.373 230.418 170.099 228.175 172.118C228.025 172.252 227.875 172.375 227.723 172.507C227.556 172.676 227.281 172.667 227.112 172.49ZM511.839 1000.95C511.856 1000.74 512.025 1000.58 512.229 1000.56C512.504 1000.54 512.769 1000.52 513.044 1000.5C515.456 1000.27 517.876 1000.14 520.286 1000.04C522.973 999.908 525.658 999.883 528.343 999.864C531.038 999.864 533.725 999.883 536.41 999.996C539.095 1000.09 541.782 1000.21 544.467 1000.48C544.752 1000.51 544.965 1000.77 544.938 1001.05C544.911 1001.29 544.707 1001.48 544.467 1001.51C541.782 1001.78 539.095 1001.9 536.41 1002C533.725 1002.11 531.038 1002.12 528.343 1002.13C525.658 1002.1 522.973 1002.08 520.286 1001.95C517.964 1001.86 515.633 1001.72 513.311 1001.52C512.947 1001.48 512.592 1001.47 512.229 1001.43C511.989 1001.41 511.812 1001.19 511.839 1000.95ZM467.243 779.96C467.393 780.198 467.322 780.517 467.084 780.668C466.87 780.81 466.588 780.765 466.419 780.58C464.016 777.834 461.888 774.868 459.939 771.769C457.998 768.678 456.322 765.429 454.78 762.117C453.335 758.761 452.005 755.351 450.994 751.845C449.975 748.339 449.168 744.779 448.709 741.165C448.682 740.927 448.849 740.714 449.089 740.679C449.303 740.653 449.506 740.785 449.558 740.989C450.56 744.46 451.607 747.887 452.82 751.251C454.035 754.617 455.321 757.954 456.845 761.187C458.281 764.454 459.939 767.624 461.667 770.75C463.405 773.885 465.292 776.932 467.243 779.96ZM448.93 533.18C448.682 533.251 448.415 533.101 448.344 532.853C448.309 532.728 448.326 532.605 448.38 532.507C448.699 531.897 449.107 531.392 449.524 530.904C449.931 530.409 450.41 529.992 450.888 529.576C451.384 529.186 451.882 528.796 452.44 528.487C452.999 528.168 453.566 527.867 454.221 527.673C454.523 527.592 454.833 527.761 454.913 528.062C454.957 528.203 454.93 528.354 454.869 528.469C454.55 529.08 454.133 529.568 453.708 530.046C453.291 530.532 452.803 530.94 452.316 531.338C451.811 531.718 451.305 532.1 450.729 532.392C450.17 532.701 449.595 532.993 448.93 533.18ZM469.246 483.938C469.229 484.203 469.015 484.416 468.75 484.433C462.315 484.698 455.878 484.813 449.443 484.921L430.128 485.044L425.085 485C426.317 488.79 427.699 492.509 429.331 496.122C431.007 499.823 432.85 503.453 435.004 506.898C437.069 510.387 439.427 513.708 441.953 516.895C444.338 519.933 446.935 522.802 449.647 525.582C449.887 525.378 450.118 525.157 450.356 524.944C451.473 524.015 452.635 523.112 453.867 522.333C455.1 521.536 456.358 520.801 457.714 520.225C457.979 520.11 458.281 520.234 458.396 520.499C458.484 520.703 458.432 520.933 458.281 521.075C457.235 522.093 456.145 523.005 455.063 523.936L451.811 526.68L448.522 529.382C447.406 530.276 446.314 531.179 445.126 532.029C444.922 532.171 444.648 532.127 444.515 531.931C444.4 531.781 444.4 531.586 444.498 531.436C445.286 530.196 446.226 529.071 447.2 527.991C447.725 527.406 448.265 526.866 448.822 526.335C445.774 523.89 442.973 521.129 440.402 518.17C437.672 515.027 435.26 511.609 433.063 508.067C430.962 504.463 429.056 500.744 427.558 496.858C426.069 493.004 424.889 489.038 424.155 484.992L410.814 484.877C404.379 484.761 397.942 484.629 391.499 484.345C391.268 484.335 391.082 484.132 391.091 483.894C391.099 483.673 391.276 483.494 391.499 483.486C397.446 483.22 403.395 483.097 409.341 482.989C409.341 482.982 409.341 482.982 409.341 482.982C409.147 481.91 409.059 480.866 408.943 479.819L408.669 476.72L408.455 473.604C408.402 472.656 408.34 471.709 408.35 470.726C408.35 470.62 408.34 470.522 408.34 470.424C408.34 470.167 408.544 469.973 408.792 469.983C408.961 469.983 409.103 470.079 409.182 470.213C409.27 470.38 409.334 470.557 409.405 470.726C409.803 471.559 410.104 472.417 410.343 473.293C410.654 474.357 410.804 475.436 410.929 476.526C411.008 477.615 411.052 478.713 410.946 479.802C410.858 480.873 410.708 481.937 410.379 482.972C410.529 482.964 410.672 482.964 410.814 482.964L430.128 482.786L449.443 482.91C450.419 482.928 451.403 482.955 452.386 482.972C452.147 482.246 451.926 481.52 451.74 480.794C451.455 479.714 451.261 478.625 451.084 477.527C450.933 476.428 450.773 475.33 450.719 474.215C450.658 473.099 450.614 471.991 450.712 470.851C450.712 470.797 450.756 470.77 450.773 470.726C450.854 470.557 450.994 470.425 451.19 470.442C451.358 470.461 451.5 470.566 451.563 470.708C451.563 470.716 451.571 470.716 451.571 470.726C452.015 471.77 452.324 472.842 452.616 473.913C452.918 474.985 453.122 476.075 453.318 477.164C453.495 478.262 453.654 479.36 453.725 480.466C453.787 481.307 453.804 482.148 453.787 482.999C458.778 483.087 463.768 483.193 468.75 483.398C469.033 483.415 469.255 483.654 469.246 483.938ZM498.728 352.096C497.629 358.604 496.362 365.094 494.775 371.505C493.179 377.916 491.415 384.293 489.35 390.562C485.237 403.127 480.273 415.426 474.361 427.266L473.855 428.275L472.881 427.717C472.348 427.415 471.817 427.124 471.285 426.822C464.858 423.166 458.369 419.614 451.882 416.037C444.834 412.212 437.849 408.253 430.953 404.137C430.838 404.075 430.776 403.968 430.759 403.853C430.732 403.756 430.74 403.641 430.803 403.543C430.918 403.348 431.174 403.278 431.378 403.384C438.416 407.218 445.587 410.805 452.697 414.514C459.478 418.013 466.259 421.553 472.915 425.309C478.412 413.796 483.279 401.994 487.338 389.897C489.422 383.682 491.38 377.411 493.081 371.064C494.792 364.724 496.397 358.347 497.717 351.909C497.781 351.627 498.046 351.449 498.33 351.512C498.605 351.564 498.782 351.821 498.728 352.096ZM290.678 275.128C290.553 274.756 290.428 274.402 290.305 274.03C290.234 273.8 290.359 273.561 290.588 273.49C290.801 273.419 291.032 273.525 291.12 273.729C291.306 274.155 291.483 274.589 291.67 275.023C293.628 279.565 295.508 284.143 297.351 288.73C299.373 293.751 301.278 298.816 303.256 303.845L308.866 319.084C309.62 321.175 310.356 323.273 311.092 325.372C312.138 328.383 313.174 331.401 314.15 334.439C314.238 334.713 314.087 334.997 313.812 335.086C313.564 335.165 313.289 335.041 313.193 334.802C311.826 331.685 310.533 328.542 309.247 325.389C308.494 323.521 307.74 321.661 306.987 319.793L301.128 304.651C299.275 299.568 297.361 294.503 295.552 289.402C293.876 284.665 292.229 279.919 290.678 275.128ZM398.989 282.593C398.838 282.398 398.864 282.133 399.051 281.983C399.228 281.841 399.476 281.858 399.627 282.008C403.004 285.214 408.013 285.95 412.444 285.143C416.974 284.32 421.202 282.177 425.475 280.017C427.949 278.838 430.413 277.643 432.877 276.457C434.73 275.572 436.582 274.685 438.443 273.817C442.787 271.799 447.139 269.806 451.563 267.938C451.819 267.832 452.12 267.955 452.236 268.212C452.334 268.46 452.236 268.735 452.015 268.867C447.83 271.215 443.575 273.419 439.321 275.616C436.421 277.112 433.498 278.563 430.572 280.017C429.206 280.689 427.841 281.363 426.477 282.052C422.177 284.072 417.727 286.365 412.738 287.029C410.247 287.357 407.694 287.242 405.273 286.551C402.872 285.834 400.575 284.54 398.989 282.593ZM365.465 318.145C367.433 313.602 369.622 309.15 372.138 304.881C374.666 300.621 377.449 296.522 380.568 292.687C380.747 292.466 381.066 292.439 381.287 292.608C381.491 292.785 381.535 293.077 381.393 293.29C378.735 297.407 376.199 301.579 373.885 305.872C371.571 310.158 369.409 314.524 367.547 319.032C365.961 322.626 364.613 326.319 363.355 330.047C363.053 330.933 362.726 331.818 362.442 332.712C361.281 336.307 360.296 339.955 359.374 343.63C359.322 343.87 359.251 344.108 359.197 344.339C358.993 345.18 358.763 346.013 358.568 346.854C358.505 347.084 358.275 347.226 358.046 347.172C357.823 347.119 357.681 346.915 357.708 346.704C357.815 345.844 357.938 344.985 358.071 344.135C358.665 340.107 359.526 336.113 360.598 332.171C361.892 327.39 363.576 322.724 365.465 318.145ZM390.736 248.678C390.807 248.484 391.011 248.359 391.215 248.395C392.447 248.572 393.688 248.67 394.928 248.722C396.746 248.802 398.545 248.749 400.337 248.528C403.331 248.155 406.301 247.447 409.076 246.279C411.896 245.198 414.537 243.684 416.957 241.886C419.386 240.08 421.556 237.937 423.453 235.52C423.632 235.299 423.951 235.254 424.181 235.431C424.376 235.591 424.429 235.865 424.314 236.086C422.798 238.893 420.67 241.374 418.206 243.453C415.732 245.535 412.897 247.155 409.918 248.386C406.895 249.511 403.721 250.281 400.496 250.44C399.91 250.467 399.316 250.458 398.732 250.458C396.099 250.432 393.484 250.06 391.011 249.236C390.78 249.156 390.657 248.908 390.736 248.678ZM365.588 189.926C367.043 188.544 369.284 188.173 371.244 188.615C372.219 188.854 373.176 189.262 373.964 189.909C374.754 190.537 375.427 191.333 375.765 192.272C375.861 192.547 375.721 192.856 375.446 192.954C375.267 193.015 375.091 192.981 374.948 192.883L374.923 192.866C374.231 192.361 373.584 191.927 372.874 191.591C372.175 191.272 371.465 190.988 370.712 190.821C369.976 190.625 369.215 190.537 368.434 190.492C367.645 190.466 366.856 190.546 365.996 190.686H365.97C365.73 190.731 365.5 190.563 365.455 190.316C365.428 190.164 365.492 190.014 365.588 189.926ZM383.45 228.542C381.837 228.533 380.153 228.037 378.973 226.948C378.796 226.78 378.787 226.497 378.946 226.319C379.079 226.186 379.265 226.151 379.425 226.205L379.444 226.213C382.014 227.196 384.753 226.612 387.04 225.381C387.332 225.222 387.616 225.009 387.909 224.823C388.751 224.291 389.566 223.69 390.382 223.026C390.488 222.937 390.603 222.839 390.709 222.742C391.676 221.927 392.633 221.042 393.679 220.219C393.909 220.042 394.228 220.077 394.405 220.307C394.547 220.484 394.557 220.714 394.45 220.9C393.688 222.167 392.793 223.362 391.764 224.477C390.745 225.612 389.513 226.612 388.112 227.373C386.677 228.118 385.081 228.569 383.45 228.542ZM375.215 181.336C375.711 182.098 376.092 182.939 376.217 183.841C376.252 184.143 376.048 184.409 375.756 184.444C375.579 184.471 375.41 184.409 375.294 184.285L375.286 184.267C374.718 183.682 374.214 183.125 373.664 182.611C373.115 182.115 372.573 181.61 371.979 181.186C371.412 180.725 370.783 180.335 370.153 179.928C369.515 179.531 368.824 179.193 368.096 178.813L368.079 178.803C367.858 178.68 367.777 178.406 367.893 178.185C367.964 178.06 368.088 177.972 368.221 177.954C369.117 177.803 370.03 177.918 370.898 178.166C371.785 178.396 372.6 178.839 373.336 179.371C374.072 179.919 374.727 180.566 375.215 181.336ZM403.721 181.23C402.614 180.247 401.409 179.389 400.089 178.751C398.785 178.095 397.367 177.68 395.895 177.405C394.424 177.157 392.908 177.121 391.347 177.246C391.099 177.263 390.886 177.086 390.869 176.847C390.851 176.66 390.957 176.484 391.126 176.405C392.66 175.722 394.371 175.447 396.081 175.501C397.801 175.545 399.503 175.979 401.081 176.714C402.641 177.476 404.06 178.529 405.167 179.84C406.284 181.142 407.152 182.647 407.579 184.285C407.648 184.559 407.481 184.843 407.206 184.914C406.985 184.976 406.754 184.878 406.639 184.701C405.77 183.408 404.821 182.23 403.721 181.23ZM373.336 205.325C372.423 207.335 371.971 209.549 372.423 211.584C372.884 213.533 374.489 215.428 376.642 215.774L376.659 215.781C376.899 215.818 377.059 216.039 377.024 216.279C376.988 216.482 376.819 216.624 376.624 216.641C373.876 216.828 371.439 214.693 370.587 212.116C369.701 209.505 370.26 206.732 371.262 204.413C372.307 202.074 373.761 200.1 375.083 198.169C376.394 196.239 377.564 194.265 378.141 192.051C378.212 191.777 378.485 191.598 378.76 191.669C379 191.723 379.169 191.953 379.159 192.184C379.088 194.743 377.981 197.116 376.793 199.223C375.596 201.348 374.231 203.278 373.336 205.325ZM544.3 1021.97C543.794 1024.46 542.295 1024.74 540.958 1022.57C539.62 1020.41 538.936 1016.63 539.441 1014.12C539.947 1011.63 541.446 1011.36 542.793 1013.53C544.131 1015.69 544.813 1019.47 544.3 1021.97ZM544.575 1007.13H514.781C514.781 1007.13 512.947 1018.24 505.642 1023.89C498.834 1029.17 498.613 1044.6 498.613 1044.6H551.062L544.575 1007.13ZM200.511 382.964C183.722 378.129 175.611 357.205 185.823 357.205C194.358 357.205 197.48 362.306 197.48 362.306C197.48 362.306 200.661 357.205 207.142 357.205C217.361 357.205 215.793 378.129 200.511 382.964ZM255.441 428.214C254.795 425.088 262.064 425.238 276.078 425.238C290.101 425.238 303.725 439.07 303.725 439.07C303.725 439.07 336.283 434.738 366.422 429.94C377.413 428.195 388.068 426.388 396.719 424.698C397.021 423.387 397.188 422.032 397.188 420.634H309.708L294.533 325.576L292.813 314.781C291.554 306.899 284.747 301.101 276.76 301.101H132.274C122.275 301.101 114.652 310.025 116.23 319.89L133.063 425.388C134.322 433.269 141.129 439.07 149.116 439.07H221.573L275.688 438.768C275.688 438.768 256.089 431.34 255.441 428.214ZM312.953 1026.69C309.602 1026.69 307.111 1023.98 307.386 1020.63C307.661 1017.28 310.594 1014.57 313.946 1014.57C317.296 1014.57 319.795 1017.28 319.512 1020.63C319.238 1023.98 316.303 1026.69 312.953 1026.69ZM303.982 1007.13H304.053C304.053 1007.13 299.825 1018.9 277.585 1021.85C256.736 1024.61 242.544 1044.6 242.544 1044.6H325.584L333.845 1007.13H333.774C333.774 1007.13 378.318 924.181 386.144 856.387C393.971 788.585 390.275 758.557 409.005 720.498C414.377 709.58 421.991 697.112 430.19 683.733L374.47 470.726L303.982 1007.13ZM426.503 171.277C426.45 171.879 426.397 172.499 426.352 173.11C426.042 171.791 425.387 170.489 424.633 169.364C425.183 170.063 425.812 170.702 426.503 171.277ZM346.052 222.91C347.009 222.45 347.55 221.449 348.038 220.503C349.677 217.296 351.317 214.082 352.956 210.876C352.443 217.659 355.714 224.61 361.281 228.542C362.584 229.464 364.162 230.216 365.721 230.41C358.905 210.38 364.906 172.623 365.553 158.278C365.686 155.205 366.253 152.159 367.193 149.246C368.94 147.723 371.102 146.642 373.291 146.244C370.632 152.859 373.167 160.572 377.476 166.256C378.779 167.974 380.313 169.629 382.306 170.462C384.301 171.294 386.853 171.1 388.316 169.506C388.351 169.47 388.37 169.426 388.405 169.381C389.087 168.558 389.335 167.408 389.15 166.363C391.055 168.567 393.492 170.312 396.214 171.365C397.561 171.879 399.078 172.233 400.452 171.755C402.082 171.188 403.137 169.516 403.466 167.815C403.785 166.115 403.51 164.361 403.235 162.644C406.364 168.31 410.92 173.189 416.372 176.678C418.083 177.776 419.97 178.759 422 178.759C423.657 178.751 425.369 177.874 426.131 176.466C425.981 179.318 425.927 182.177 425.963 185.028C427.54 182.726 429.26 180.443 431.733 179.166C434.436 177.776 438.284 178.104 439.888 180.69C441.121 182.682 440.659 185.251 440.004 187.499C438.868 191.395 437.184 195.256 434.322 198.134C432.398 200.073 429.846 201.481 427.176 201.942C428.285 210.275 430.155 218.5 432.779 226.488C435.305 234.21 438.674 241.913 444.48 247.598C444.905 248.006 445.374 248.403 445.862 248.758C446.971 249.546 448.221 250.068 449.487 249.749C451.863 249.165 452.653 246.145 452.413 243.71C452.174 241.285 451.376 238.734 452.297 236.476C455.463 238.052 456.659 242.701 460.134 243.303C462.917 243.791 465.434 241.099 465.825 238.3C466.215 235.512 465.115 232.757 464.026 230.153C468.05 231.499 472.181 232.864 476.417 232.766C480.663 232.668 485.122 230.809 487.188 227.098C489.918 222.193 487.701 216.11 485.451 210.966C489.652 213.347 495.316 212.815 498.995 209.689C502.682 206.563 504.127 201.066 502.461 196.54C502.088 195.54 501.565 194.495 501.778 193.441C502.061 192.103 503.391 191.316 504.437 190.439C508.4 187.127 509.046 180.929 506.874 176.236C504.712 171.551 500.289 168.239 495.564 166.14C490.848 164.034 485.751 162.953 480.796 161.484C475.841 159.996 470.886 158.039 467.101 154.515C465.577 153.107 464.274 151.468 462.953 149.839C460.418 142.463 454.638 136.149 447.29 133.404C449.576 133.44 454.913 134.6 456.854 133.404C458.796 132.2 460.036 129.588 458.99 127.56C458.158 125.939 456.243 125.231 454.469 124.762C449.576 123.487 444.524 122.628 439.489 122.858C440.73 122.38 441.776 121.282 442.157 119.98C442.76 117.97 442.007 115.73 440.65 114.118C437.69 110.594 432.504 109.938 427.912 110.355C423.693 110.735 419.784 111.86 415.901 113.56C417.568 111.842 417.018 108.787 415.298 107.132C413.579 105.458 411.079 104.9 408.695 104.688C404.138 104.298 399.414 105.006 395.443 107.255C391.463 109.496 388.626 112.666 387.793 117.147C386.844 115.331 385.869 113.489 384.424 112.037C382.98 110.585 380.976 109.549 378.938 109.77C377.059 109.965 375.446 111.169 374.133 112.533C372.6 114.127 371.323 116.084 371.075 118.289C370.676 121.955 373.53 125.798 375.88 128.649C368.753 129.118 361.494 129.614 354.845 132.218C354.021 132.545 353.187 132.908 352.549 133.528C351.911 134.139 351.494 135.051 351.69 135.91C351.893 136.805 352.664 137.433 353.427 137.938C356.333 139.86 359.818 140.524 363.31 140.435C357.823 145.093 353.418 151.256 350.173 157.481C345.041 167.346 342.302 178.264 340.015 189.146C337.887 199.277 336.213 210.309 340.778 219.616C341.787 221.688 343.969 223.901 346.052 222.91Z" fill="#010043"/>
</svg>
