<svg width="730" height="697" viewBox="0 0 730 697" fill="none" xmlns="http://www.w3.org/2000/svg">
<path d="M243.333 695.432H0.000976562V491.589H243.333V695.432Z" fill="#010043"/>
<path d="M729.999 695.432H486.667V528.861H729.999V695.432Z" fill="#010043"/>
<path d="M486.667 695.432H243.333V289.976H486.667V695.432Z" fill="#70C573"/>
<path d="M373.298 7.90674L405.333 72.7794C406.672 75.4937 409.276 77.3909 412.291 77.8373L483.877 88.2529C491.504 89.3313 494.517 98.6686 489.012 104.025L437.219 154.539C435.06 156.66 434.056 159.71 434.577 162.722L446.781 233.994C448.084 241.582 440.158 247.348 433.35 243.776L369.316 210.113C366.601 208.7 363.4 208.7 360.684 210.113L296.651 243.776C289.843 247.348 281.917 241.582 283.22 233.994L295.461 162.722C295.945 159.71 294.978 156.66 292.782 154.539L240.989 104.025C235.484 98.6686 238.497 89.3313 246.087 88.2529L317.71 77.8373C320.725 77.3909 323.329 75.4937 324.668 72.7794L356.703 7.90674C360.089 1.02425 369.912 1.02425 373.298 7.90674Z" fill="#F4B47E"/>
<path d="M375.195 81.3721C375.195 78.8415 373.855 76.4979 371.659 75.2343C369.428 73.8948 366.674 73.8948 364.441 75.123L335.197 91.4154C332.927 92.679 331.625 94.8372 331.588 97.3291C331.551 99.9338 333.002 102.537 335.272 103.876C337.467 105.216 340.034 105.216 342.341 103.95L360.833 93.609L361.13 181.21C361.167 185.228 364.256 188.278 368.348 188.278H368.387C372.478 188.278 375.567 185.228 375.53 181.173L375.195 81.3721Z" fill="white"/>
<path d="M162.111 56.4485C162.111 56.4485 161.144 120.652 129.815 125.971C98.4864 131.329 111.249 84.5329 162.111 56.4485Z" fill="#70C573"/>
<path d="M210.592 349.492C210.592 349.492 221.754 412.729 191.989 423.888C162.223 435.048 165.944 386.69 210.592 349.492Z" fill="#70C573"/>
<path d="M96.5146 444.459C96.5146 444.459 157.162 465.55 172.939 437.949C188.677 410.348 140.344 406.293 96.5146 444.459Z" fill="#70C573"/>
<path d="M176.548 291.241C176.548 291.241 178.371 355.408 147.303 362.14C116.236 368.836 126.951 321.521 176.548 291.241Z" fill="#70C573"/>
<path d="M49.8203 368.575C49.8203 368.575 106.785 398.26 126.393 373.262C146.001 348.266 98.7851 337.218 49.8203 368.575Z" fill="#70C573"/>
<path d="M167.617 238.309C167.617 238.309 152.959 300.801 121.184 299.35C89.4454 297.863 111.92 254.899 167.617 238.309Z" fill="#70C573"/>
<path d="M25.3018 280.64C25.3018 280.64 72.7768 323.939 98.1531 304.782C123.491 285.624 80.6654 262.86 25.3018 280.64Z" fill="#70C573"/>
<path d="M173.087 178.049C173.087 178.049 146.819 236.673 115.937 229.196C85.0181 221.718 115.268 183.778 173.087 178.049Z" fill="#70C573"/>
<path d="M25.3389 192.63C25.3389 192.63 63.6985 244.111 92.2364 230.126C120.774 216.138 83.0467 185.636 25.3389 192.63Z" fill="#70C573"/>
<path d="M187.71 123.516C187.71 123.516 152.251 177.043 122.969 164.657C93.6867 152.27 129.704 119.759 187.71 123.516Z" fill="#70C573"/>
<path d="M39.5518 113.845C39.5518 113.845 69.0199 170.907 99.4538 161.718C129.889 152.568 97.5933 116.374 39.5518 113.845Z" fill="#70C573"/>
<path d="M121.295 122.586C117.053 136.833 113.928 151.303 111.658 165.848C109.314 180.391 107.9 195.048 107.268 209.667C106.151 238.941 108.682 268.253 115.454 296.523C122.188 324.832 133.499 351.91 148.344 377.093C163.525 402.091 182.203 425.005 203.15 446.207C179.189 428.538 158.055 406.665 140.977 381.78L134.913 372.221L131.937 367.422L129.22 362.437C127.471 359.089 125.573 355.817 123.9 352.394L119.1 342.128C113.146 328.216 108.236 313.82 104.626 299.128C101.24 284.36 98.9331 269.369 97.9287 254.305C97.0355 239.202 97.0726 224.099 98.5994 209.109C100.013 194.118 102.691 179.276 106.338 164.769C110.096 150.298 114.746 135.977 121.295 122.586Z" fill="#010043"/>
<path d="M570.68 60.1686C570.68 60.1686 571.647 124.372 603.013 129.691C634.34 135.047 621.542 88.253 570.68 60.1686Z" fill="#70C573"/>
<path d="M522.236 353.213C522.236 353.213 511.075 416.449 540.84 427.608C570.606 438.768 566.885 390.41 522.236 353.213Z" fill="#70C573"/>
<path d="M636.313 448.178C636.313 448.178 575.628 469.27 559.889 441.669C544.113 414.068 592.483 410.013 636.313 448.178Z" fill="#70C573"/>
<path d="M556.282 294.961C556.282 294.961 554.458 359.128 585.526 365.86C616.593 372.556 605.879 325.239 556.282 294.961Z" fill="#70C573"/>
<path d="M682.971 372.295C682.971 372.295 626.044 401.978 606.436 376.982C586.791 351.986 634.044 340.937 682.971 372.295Z" fill="#70C573"/>
<path d="M565.212 242.029C565.212 242.029 579.87 304.521 611.608 303.07C643.384 301.583 620.909 258.619 565.212 242.029Z" fill="#70C573"/>
<path d="M707.49 284.36C707.49 284.36 660.05 327.657 634.676 308.501C609.338 289.344 652.163 266.579 707.49 284.36Z" fill="#70C573"/>
<path d="M559.704 181.768C559.704 181.768 586.009 240.391 616.891 232.916C647.81 225.438 617.56 187.496 559.704 181.768Z" fill="#70C573"/>
<path d="M707.453 196.35C707.453 196.35 669.128 247.832 640.555 233.846C612.017 219.858 649.782 189.356 707.453 196.35Z" fill="#70C573"/>
<path d="M545.118 127.237C545.118 127.237 580.577 180.764 609.858 168.377C639.103 155.99 603.124 123.479 545.118 127.237Z" fill="#70C573"/>
<path d="M693.276 117.566C693.276 117.566 663.808 174.626 633.374 165.438C602.939 156.288 635.196 120.095 693.276 117.566Z" fill="#70C573"/>
<path d="M611.533 126.307C615.736 140.553 618.9 155.023 621.132 169.568C623.477 184.111 624.928 198.768 625.523 213.387C626.675 242.661 624.109 271.973 617.374 300.243C610.64 328.55 599.329 355.63 584.483 380.813C569.266 405.81 550.588 428.725 529.678 449.927C553.639 432.258 574.773 410.385 591.813 385.501L597.915 375.941L600.891 371.142L603.571 366.157C605.357 362.809 607.217 359.536 608.891 356.114L613.69 345.848C619.644 331.935 624.592 317.54 628.202 302.846C631.551 288.079 633.895 273.089 634.899 258.023C635.792 242.922 635.717 227.819 634.191 212.829C632.815 197.838 630.137 182.996 626.49 168.49C622.695 154.019 618.043 139.698 611.533 126.307Z" fill="#010043"/>
</svg>
