<svg width="800" height="794" viewBox="0 0 800 794" fill="none" xmlns="http://www.w3.org/2000/svg">
<path d="M775.855 268.625C775.855 471.796 729.513 793.689 515.269 793.689C301.017 793.689 0 576.191 0 373.013C0 337.526 1.96763 303.875 6.34414 272.479L49.9409 137.406C91.78 67.7366 163.547 26.4194 278.512 26.4194C364.768 26.4194 462.177 32.7518 547.788 53.5708L662.253 99.4776L706.65 124.832C749.442 159.824 775.855 206.566 775.855 268.625Z" fill="#70C573"/>
<path d="M412.685 367.08H304.141V453.4H332.038L338.222 581.778H378.599L384.781 453.4H412.685V367.08ZM519.458 477.612C525.262 514.161 487.065 621.084 472.556 650.868C462.885 670.71 466.96 744.051 470.755 790.778C398.247 781.611 319.407 751.339 247.346 707.795C246.96 682.383 245.098 660.418 240.448 650.868C237.165 644.131 232.858 633.427 228.235 620.498L223.58 644.702C219.469 666.031 200.752 681.447 178.974 681.447C150.447 681.447 128.984 655.552 134.369 627.625C148.675 553.454 173.618 425.089 181.425 390.915C192.587 342.029 268.122 312.079 268.122 312.079V312.086C274.683 308.476 281.889 305.787 289.549 304.23L358.411 290.26L427.277 304.23C428.685 304.517 430.073 304.852 431.445 305.216C458.018 305.586 497.645 310.459 518.575 334.056C541.865 360.308 625.522 460.996 673.768 519.23C691.933 541.152 685.562 574.139 660.534 587.789C641.426 598.204 617.589 593.633 603.716 576.883L518.898 474.442C519.107 475.552 519.304 476.628 519.458 477.612Z" fill="#010043"/>
<path d="M395.445 453.401H384.779L384.485 459.557C382.721 458.867 380.858 458.224 379.002 457.476C371.475 454.468 330.371 456.668 330.371 456.668L301.129 474.135C298.811 476.07 296.752 478.073 294.877 480.112L292.096 482.478C261.636 528.578 227.792 556.936 180.444 585.555L163.68 595.685C144.017 613.698 136.342 641.742 145.361 666.793C157.686 700.995 185.407 691.075 201.884 681.231C209.287 676.811 215.686 670.939 220.861 664.063L305.015 552.189C320.533 546.576 360.594 551.68 367.975 547.358C375.396 543.009 383.364 546.352 384.709 538.199C386.046 530.045 378.441 525.569 384.709 521.26C390.969 516.953 385.711 508.548 386.72 502.865C386.824 502.264 386.985 501.685 387.167 501.119C388.547 502.02 389.99 502.711 391.501 503.122C404.764 506.697 411.934 500.979 407.65 492.755C403.378 484.558 395.5 453.602 395.445 453.401ZM797.576 268.353C790.791 260.987 761.724 280.605 761.724 280.605C761.724 280.605 739.449 293.619 731.173 296.559C722.896 299.491 716.874 304.56 716.874 304.56C716.874 304.56 731.397 271.146 732.868 262.761C734.337 254.368 722.447 254.955 714.416 265.721C706.392 276.494 703.344 286.959 689.537 299.546C679.936 308.308 672.689 329.169 669.174 341.053L606.614 520.584C603.785 528.704 602.476 537.283 602.938 545.872C603.954 564.994 611.201 593.464 646.528 584.536C672.409 578 691.442 555.98 695.439 529.66L696.322 485.836C697.147 444.875 698.535 417.214 704.858 378.397L707.442 374.18C707.84 373.977 708.211 373.81 708.618 373.586C708.618 373.586 757.775 349.353 762.488 342.162C767.199 334.972 774.468 323.808 775.442 322.864C776.414 321.923 790.756 312.016 791.639 304.769C792.52 297.523 793.249 287.782 794.033 286.268C794.824 284.753 804.361 275.725 797.576 268.353ZM463.388 134.718C464.067 140.157 462.568 145.638 460.635 150.776C458.508 156.438 455.833 161.905 452.667 167.064C450.595 170.443 448.249 173.752 445.049 176.105C440.371 179.533 434.02 180.392 428.502 178.681C426.899 186.292 425.035 191.94 422.873 194.292C417.992 199.598 410.08 209.065 400.668 218.169C400.668 223.51 400.668 230.051 400.668 237.983C400.668 268.255 424.006 304.769 416.017 312.741C412.649 316.099 375.509 354.052 362.757 367.08H354.186C342.072 354.681 307.9 319.702 300.92 312.741C296.85 308.685 316.269 268.255 316.269 237.983C316.269 230.109 316.269 223.608 316.269 218.28C306.807 209.143 298.846 199.626 293.946 194.292C291.761 191.912 289.876 186.144 288.266 178.395C282.551 180.483 275.787 179.715 270.866 176.105C267.664 173.752 265.32 170.443 263.246 167.064C260.074 161.905 257.407 156.438 255.27 150.776C253.345 145.638 251.839 140.157 252.525 134.718C253.206 129.273 256.481 123.869 261.664 122.012C266.755 120.19 272.594 122.151 276.747 125.607C278.973 127.471 280.815 129.712 282.468 132.107C282.266 129.622 282.076 127.143 281.893 124.693C279.793 95.8587 294.085 68.2884 318.888 53.313C343.184 38.6515 373.639 38.6515 397.93 53.313C422.739 68.2814 437.031 95.8587 434.931 124.693C434.783 126.675 434.629 128.672 434.469 130.683C435.862 128.833 437.381 127.094 439.167 125.607C443.319 122.151 449.159 120.19 454.249 122.012C459.424 123.869 462.709 129.273 463.388 134.718Z" fill="#F4B47E"/>
<path d="M201.884 681.23C194.645 685.558 185.233 689.895 175.913 690.501L204.715 717.611C204.715 717.611 222.976 687.346 227.429 655.328L220.861 664.063C215.686 670.939 209.287 676.81 201.884 681.23ZM188.503 580.598C182.069 581.177 152.763 584.724 139.249 602.359C124.019 622.229 116.841 661.968 119.236 681.447L158.757 686.116C153.477 682.486 148.814 676.37 145.362 666.792C136.343 641.741 144.017 613.698 163.68 595.685L180.444 585.554C183.174 583.899 185.864 582.251 188.503 580.598ZM410.199 250.836L358.409 308.846L306.626 250.836L271.174 292.579L296.459 277.764L287.419 303.422C286.208 306.856 287.09 310.514 289.828 313.405L340.672 367.08H376.153L426.996 313.405C429.736 310.514 430.617 306.856 429.406 303.422L420.365 277.764L445.645 292.579L410.199 250.836ZM248.009 89.54C247.358 89.6238 246.699 89.7076 246.048 89.8054C245.902 90.4198 245.748 91.0271 245.601 91.6414C246.336 91.5229 247.072 91.411 247.807 91.3134C247.877 90.7199 247.946 90.1265 248.009 89.54ZM499.185 184.21C498.933 184.28 498.688 184.357 498.436 184.434C498.456 184.999 498.484 185.558 498.519 186.123C498.933 186.005 499.345 185.879 499.758 185.754C499.563 185.238 499.367 184.727 499.185 184.21ZM473.822 253.621C473.612 253.027 473.408 252.435 473.206 251.827C472.429 251.814 471.672 251.799 470.902 251.784C470.943 252.385 471.006 252.987 471.069 253.58C471.987 253.593 472.904 253.608 473.822 253.621ZM499.107 319.256C501.411 319.095 503.722 318.927 506.046 318.725C527.713 316.889 551.759 313.272 562.947 293.452C577.352 267.961 622.034 248.028 669.202 246.046C707.932 244.433 743.148 254.725 770.869 275.02C771.423 274.705 771.989 274.391 772.571 274.071C744.422 253.216 708.57 242.597 669.125 244.267C621.383 246.262 576.07 266.587 561.386 292.579C550.624 311.631 527.102 315.15 505.9 316.944C502.553 317.231 499.22 317.46 495.943 317.691C497.007 318.194 498.065 318.71 499.107 319.256ZM772.549 326.907C773.215 327.34 773.888 327.737 774.545 328.185C774.58 327.48 774.608 326.775 774.636 326.062C774.287 325.832 773.929 325.629 773.578 325.4C773.265 325.86 772.922 326.37 772.549 326.907ZM684.062 306.129C639.085 310.026 596.706 330.28 580.453 356.517C574.355 366.361 565.006 372.147 554.441 376.029C554.845 376.519 555.252 377 555.665 377.488C566.303 373.488 575.735 367.541 581.98 357.452C597.793 331.933 638.904 312.154 682.821 308.029C683.227 307.372 683.641 306.751 684.062 306.129ZM231.721 649.625L229.355 652.765C228.284 661.2 228.789 668.566 231.12 674.06L232.773 673.361C230.28 667.497 230.063 659.19 231.721 649.625ZM595.711 425.305C596.097 425.767 596.489 426.235 596.874 426.701C598.345 425.076 599.731 423.33 601.005 421.453C611.908 405.415 631.627 391.445 654.966 381.825L655.736 379.604C631.438 389.385 610.83 403.815 599.529 420.454C598.353 422.185 597.064 423.79 595.711 425.305ZM719.493 368.092C720.571 368.071 721.643 368.044 722.715 368.044C722.748 368.044 722.783 368.044 722.826 368.044C741.501 368.044 757.942 371.478 771.436 377.956C771.492 377.322 771.542 376.686 771.59 376.051C758.027 369.677 741.614 366.283 723.036 366.263C721.804 366.897 720.621 367.513 719.493 368.092ZM506.439 557.272C506.18 558.158 505.92 559.046 505.662 559.932C514.491 554.04 523.322 549.544 532.578 544.852C542.375 539.889 552.473 534.77 562.97 527.67L561.821 526.287C551.464 533.275 541.472 538.344 531.767 543.26C523.077 547.665 514.751 551.889 506.439 557.272ZM698.353 433.936C698.303 434.633 698.255 435.332 698.205 436.029C716.349 430.465 734.499 427.659 749.835 428.007C754.904 428.12 760.513 428.58 766.129 429.634C766.198 429.041 766.276 428.447 766.346 427.853C761.298 426.905 755.8 426.353 749.87 426.22C734.317 425.878 716.306 428.56 698.353 433.936ZM695.896 507.026C717.169 496.623 739.31 489.886 757.341 487.302C757.452 486.688 757.566 486.08 757.677 485.466C739.598 488 717.364 494.696 695.936 505.063L695.896 507.026ZM363.373 763.837C363.948 764.046 364.521 764.262 365.096 764.464C364.529 764.255 363.955 764.039 363.38 763.83C363.38 763.837 363.373 763.837 363.373 763.837ZM457.696 788.914C458.41 789.025 459.117 789.138 459.831 789.241C459.831 789.241 459.838 789.236 459.838 789.228C459.131 789.123 458.417 789.019 457.703 788.907L457.696 788.914ZM709.794 571.751C707.798 559.129 702.673 542.883 695.462 528.717L695.439 529.66C691.442 555.98 672.409 578 646.529 584.535C611.201 593.464 603.954 564.993 602.938 545.871C602.476 537.283 603.786 528.704 606.614 520.583L613.631 500.455C606.061 508.128 597.616 521.38 596.244 542.953C595.396 556.266 598.933 570.16 604.058 582.817C601.3 585.728 598.646 588.578 596.168 591.411C581.889 607.735 568.816 619.031 556.17 629.95C552.284 633.316 548.257 636.785 544.265 640.352L541.318 642.991C527.726 655.175 514.89 666.68 497.343 673.334C489.375 676.392 479.971 678.528 467.239 680.197C467.204 680.803 467.163 681.404 467.128 682.018C480.18 680.322 489.809 678.136 497.987 675.009C515.843 668.229 528.798 656.619 542.514 644.317L545.464 641.686C549.44 638.126 553.46 634.656 557.346 631.305C570.035 620.337 583.156 609.006 597.518 592.584C599.809 589.967 602.252 587.328 604.795 584.639C615.249 609.515 631.425 629.14 631.425 629.14L658.398 595.049L684.677 587.97C664.461 602.715 646.171 620.853 635.031 642.657C628.791 654.875 623.119 665.836 617.693 675.701H619.737C625.031 666.038 630.562 655.336 636.628 643.467C648.335 620.561 668.039 601.723 689.565 586.651L710.712 580.953C710.656 578.727 710.432 576.254 710.068 573.609C710.074 573.615 710.074 573.615 710.074 573.622C720.838 567.401 731.579 562.047 741.579 557.544C741.781 556.804 741.985 556.065 742.181 555.323C731.95 559.889 720.893 565.35 709.794 571.738C709.794 571.745 709.794 571.745 709.794 571.751ZM469.732 777.548C469.782 778.28 469.838 779 469.893 779.727C484.318 767.188 501.524 756.967 520.865 754.209C524.617 753.678 528.21 753.063 531.654 752.365V750.536C528.132 751.256 524.463 751.89 520.612 752.441C501.34 755.186 484.177 765.198 469.732 777.548ZM585.775 722.219H588.331C581.253 729.766 573.613 735.86 564.824 740.713H560.888C570.28 735.958 578.354 729.877 585.775 722.219Z" fill="white"/>
<path d="M675.982 382.887C676.598 383.207 677.249 383.423 677.908 383.612C678.573 383.78 679.245 383.919 679.931 383.946C680.617 383.982 681.311 383.974 681.997 383.821C682.124 383.787 682.242 383.695 682.298 383.564C682.389 383.347 682.285 383.103 682.068 383.011C681.437 382.746 680.814 382.572 680.198 382.384C679.588 382.195 678.972 382.049 678.356 381.888C677.733 381.748 677.123 381.581 676.487 381.461C675.856 381.335 675.225 381.197 674.539 381.126C674.435 381.119 674.317 381.154 674.239 381.239C674.1 381.385 674.112 381.614 674.259 381.748C674.778 382.223 675.374 382.578 675.982 382.887ZM686.037 351.742C687.276 351.28 688.454 350.68 689.602 350.044C690.758 349.415 691.856 348.698 692.935 347.943C694 347.181 695.05 346.379 696.024 345.5C697.003 344.628 697.957 343.719 698.802 342.701C698.916 342.575 698.936 342.379 698.838 342.225C698.719 342.029 698.467 341.974 698.27 342.092C697.157 342.776 696.1 343.523 695.043 344.258L691.891 346.492L688.775 348.781C687.746 349.549 686.703 350.316 685.694 351.154C685.583 351.244 685.533 351.4 685.59 351.539C685.659 351.72 685.856 351.81 686.037 351.742ZM777.251 317.531C776.648 318.18 776.151 318.886 775.662 319.598C775.165 320.303 774.744 321.05 774.317 321.797C773.918 322.552 773.518 323.312 773.189 324.107C772.853 324.897 772.523 325.699 772.306 326.552C772.271 326.698 772.314 326.859 772.432 326.963C772.601 327.116 772.867 327.111 773.02 326.935C773.616 326.278 774.107 325.574 774.582 324.854C775.066 324.142 775.486 323.395 775.892 322.643C776.285 321.881 776.676 321.113 776.992 320.31C777.327 319.513 777.635 318.711 777.852 317.853C777.88 317.734 777.845 317.594 777.748 317.511C777.607 317.377 777.383 317.385 777.251 317.531ZM777.131 313.015C776.018 312.504 774.877 312.756 773.939 313.063C772.112 313.767 770.431 314.69 768.834 315.752C765.647 317.88 762.93 320.505 760.038 322.789C758.617 323.954 757.154 325.05 755.6 325.979C754.038 326.907 752.35 327.682 750.69 328.575C749.032 329.455 747.344 330.363 745.817 331.564C744.304 332.758 742.974 334.288 742.217 336.074C742.154 336.235 742.217 336.424 742.371 336.507C742.532 336.598 742.744 336.542 742.835 336.374C744.647 333.184 748.03 331.466 751.363 329.923C753.057 329.163 754.767 328.366 756.44 327.425C758.12 326.467 759.675 325.344 761.166 324.177C764.101 321.775 766.788 319.199 769.745 317.05C771.208 315.968 772.783 315.01 774.408 314.285C775.193 313.936 776.033 313.755 776.676 313.999C777.314 314.23 777.839 315.038 777.559 315.604C777.468 315.785 777.524 316.016 777.706 316.127C777.895 316.247 778.147 316.19 778.266 316.001C778.609 315.473 778.566 314.766 778.322 314.243C778.077 313.719 777.671 313.287 777.131 313.015ZM784.897 296.021C782.565 296.524 780.585 297.808 778.735 299.023C775.044 301.473 771.383 303.938 767.636 306.298C763.939 308.721 760.179 311.045 756.425 313.385L745.111 320.331C744.934 320.442 744.864 320.673 744.957 320.854C745.06 321.058 745.298 321.141 745.502 321.043C749.486 319.073 753.387 316.952 757.237 314.738C761.088 312.525 764.863 310.172 768.61 307.792C772.314 305.342 776.01 302.869 779.596 300.265C781.375 298.975 783.161 297.732 785.177 297.186C787.138 296.628 789.456 296.839 790.996 298.248C791.122 298.366 791.326 298.374 791.458 298.255C791.599 298.129 791.612 297.92 791.485 297.772C789.862 295.938 787.173 295.553 784.897 296.021ZM792.376 285.926C791.024 283.782 788.531 282.602 786.08 282.295C783.588 281.974 781.054 282.582 778.834 283.566C776.571 284.537 774.569 285.911 772.601 287.211L766.692 291.133L754.997 299.156C751.671 301.488 748.358 303.833 745.075 306.242C745.313 302.605 745.53 298.967 745.648 295.317C745.648 295.148 745.522 294.995 745.348 294.967C745.159 294.947 744.99 295.078 744.962 295.267C744.452 299.289 744.011 303.309 743.569 307.337C743.534 307.359 743.499 307.387 743.463 307.415C743.297 307.533 743.246 307.77 743.36 307.953C743.387 307.994 743.443 308.016 743.486 308.044C743.45 308.364 743.415 308.685 743.38 309.007L741.924 322.753L740.488 336.487C739.991 341.058 739.479 345.632 738.765 350.163L738.758 350.177C738.73 350.379 738.856 350.575 739.06 350.631C739.277 350.686 739.501 350.555 739.557 350.338C740.698 345.828 741.405 341.254 742.063 336.681C742.701 332.109 743.206 327.521 743.71 322.927C744.122 318.333 744.563 313.74 744.886 309.139C744.927 308.56 744.962 307.981 744.997 307.4C748.666 305.138 752.28 302.814 755.887 300.461L767.699 292.607L773.547 288.592C775.485 287.252 777.418 285.946 779.464 284.942C781.508 283.928 783.721 283.314 785.962 283.488C788.188 283.614 790.423 284.529 791.816 286.31C791.921 286.449 792.116 286.491 792.27 286.393C792.431 286.295 792.474 286.086 792.376 285.926ZM715.91 306.57C715.72 306.598 715.587 306.766 715.617 306.954C716.001 309.732 716.099 312.519 715.861 315.277C715.622 318.027 715.125 320.756 714.25 323.375C713.459 326.014 712.304 328.542 710.911 330.929C709.523 333.317 707.843 335.544 705.938 337.596C705.806 337.742 705.791 337.966 705.925 338.127C706.064 338.301 706.316 338.329 706.493 338.19C708.746 336.389 710.666 334.182 712.261 331.76C713.851 329.33 715.062 326.663 715.96 323.906C716.778 321.126 717.31 318.25 717.373 315.352C717.436 312.462 717.108 309.558 716.288 306.808C716.24 306.648 716.078 306.542 715.91 306.57ZM715.049 371.31C713.361 372.364 711.701 373.426 710.013 374.439C708.32 375.436 706.632 376.434 704.903 377.363C703.18 378.313 701.429 379.199 699.67 380.079C697.914 380.96 696.12 381.775 694.328 382.628C694.16 382.711 694.063 382.9 694.104 383.096C694.16 383.312 694.377 383.445 694.596 383.395C696.556 382.927 698.459 382.271 700.323 381.524C702.193 380.784 704 379.898 705.764 378.927C707.52 377.943 709.23 376.889 710.848 375.695C712.473 374.515 714.04 373.252 715.476 371.848C715.587 371.737 715.609 371.561 715.524 371.423C715.42 371.262 715.21 371.212 715.049 371.31ZM693.342 537.766C690.239 544.496 687.082 551.198 683.259 557.489C679.427 563.751 674.917 569.643 669.288 574.307C663.742 579.047 657.076 582.405 649.975 584.166C642.925 585.932 635.565 586.219 628.24 585.827C625.285 584.689 622.464 583.208 619.893 581.351C612.576 576.199 607.373 568.332 604.789 559.771C602.206 551.205 602.205 541.738 605.427 533.27C605.489 533.094 605.413 532.906 605.244 532.83C605.069 532.76 604.867 532.837 604.797 533.011C602.983 537.248 601.974 541.829 601.736 546.443C601.527 551.066 602.087 555.723 603.333 560.191C605.832 569.112 611.239 577.316 618.851 582.803C626.497 588.242 636.042 590.707 645.32 590.204C649.968 589.953 654.57 588.982 658.903 587.306C663.217 585.597 667.25 583.167 670.696 580.088C670.857 579.948 670.878 579.698 670.738 579.53C670.597 579.361 670.338 579.334 670.163 579.48C663.174 585.24 654.204 588.292 645.249 588.627C640.551 588.8 635.817 588.214 631.314 586.873C633.925 587.09 636.552 587.301 639.186 587.105C641.055 587.042 642.938 587.027 644.795 586.664L647.588 586.252C648.519 586.134 649.45 585.98 650.354 585.693C657.714 584.04 664.666 580.528 670.444 575.676C676.199 570.775 680.829 564.715 684.561 558.257C688.321 551.784 691.227 544.921 693.972 538.038C694.041 537.869 693.965 537.675 693.796 537.605C693.629 537.522 693.418 537.598 693.342 537.766ZM220.73 661.11C218.161 665.689 214.967 669.878 211.29 673.565C207.601 677.244 203.441 680.448 198.876 682.934C194.352 685.495 189.437 687.346 184.347 688.436C179.27 689.525 173.989 689.839 168.779 689.231L168.759 689.224C168.542 689.203 168.345 689.357 168.31 689.573C168.282 689.797 168.436 689.999 168.66 690.026L172.632 690.579C173.969 690.642 175.306 690.733 176.651 690.768C177.988 690.69 179.333 690.662 180.671 690.551C181.993 690.363 183.338 690.23 184.66 689.993C189.949 689.007 195.046 687.08 199.751 684.491C204.415 681.837 208.721 678.529 212.377 674.612C216.054 670.715 219.085 666.24 221.34 661.424C221.411 661.263 221.347 661.067 221.194 660.977C221.025 660.886 220.821 660.949 220.73 661.11ZM195.368 688.156C188.379 693.03 179.248 694.076 171.287 691.508C163.262 688.967 156.428 683.43 151.596 676.552C147.325 670.66 144.279 663.943 142.094 656.962C141.611 651.872 141.576 646.763 142.108 641.708C142.724 635.955 144.033 630.272 146.106 624.868C148.095 619.429 150.819 614.27 153.991 609.411C157.177 604.551 160.825 599.978 164.796 595.691C164.943 595.532 164.943 595.286 164.796 595.133C164.642 594.974 164.382 594.966 164.221 595.12C159.943 599.175 156.029 603.643 152.674 608.531C149.306 613.404 146.526 618.69 144.426 624.247C142.395 629.817 141.05 635.661 140.602 641.575C140.329 644.969 140.378 648.375 140.644 651.761C139.776 648.25 139.111 644.682 138.635 641.092C138.053 636.876 137.731 632.617 137.668 628.352C137.668 628.169 137.521 628.023 137.332 628.016C137.143 628.01 136.989 628.156 136.982 628.345C136.744 636.931 137.57 645.583 139.636 653.968C141.723 662.338 145.105 670.479 150.147 677.593C155.181 684.658 162.352 690.509 170.825 693.022C175.039 694.265 179.543 694.6 183.883 693.915C188.225 693.196 192.356 691.417 195.843 688.813C196.012 688.68 196.055 688.436 195.934 688.255C195.802 688.071 195.55 688.023 195.368 688.156ZM358.159 368.356L384.873 368.218C393.78 368.147 402.687 368.001 411.586 367.805C411.768 367.805 411.924 367.659 411.924 367.471C411.929 367.289 411.783 367.129 411.586 367.121C403.358 366.947 395.132 366.814 386.896 366.738C390.825 365.614 393.578 361.802 393.114 357.521L386.112 292.899C385.643 288.516 381.931 285.193 377.507 285.193H339.316C334.898 285.193 331.186 288.516 330.709 292.899L323.715 357.521C323.258 361.752 325.933 365.529 329.793 366.703C321.439 366.772 313.077 366.884 304.723 367.066C304.506 367.066 304.332 367.239 304.324 367.456C304.324 367.68 304.5 367.868 304.723 367.868C313.632 368.057 322.539 368.19 331.438 368.26L358.159 368.356ZM411.965 452.492C403.065 452.304 394.158 452.171 385.251 452.108L358.538 452.004L331.822 452.143C322.923 452.221 314.016 452.359 305.109 452.555C304.927 452.563 304.78 452.709 304.773 452.89C304.773 453.079 304.92 453.24 305.109 453.24C314.016 453.436 322.923 453.582 331.822 453.652L358.538 453.791L385.251 453.693C394.158 453.624 403.065 453.491 411.965 453.302C412.182 453.302 412.358 453.127 412.364 452.905C412.371 452.681 412.189 452.5 411.965 452.492ZM380.293 546.332C379.516 546.289 378.774 546.332 378.032 546.367C377.29 546.395 376.561 546.471 375.827 546.528C375.105 546.611 374.384 546.689 373.662 546.807C374.929 545.446 376.008 543.924 376.814 542.262C376.884 542.115 376.849 541.94 376.708 541.836C376.554 541.723 376.344 541.759 376.233 541.912C374.853 543.769 373.276 545.439 371.497 546.848C369.721 548.252 367.78 549.446 365.679 550.262C363.607 551.142 361.387 551.653 359.139 551.889C356.885 552.133 354.594 552.043 352.313 551.693C352.124 551.658 351.927 551.771 351.864 551.96C351.786 552.169 351.899 552.4 352.116 552.476C354.385 553.265 356.829 553.565 359.252 553.467C361.682 553.369 364.089 552.81 366.365 551.91C368.487 550.981 370.475 549.761 372.199 548.231C372.703 548.315 373.208 548.37 373.718 548.392C374.488 548.44 375.252 548.385 376.021 548.307C376.778 548.203 377.541 548.085 378.284 547.854C379.026 547.638 379.761 547.386 380.455 546.996C380.553 546.933 380.629 546.82 380.636 546.702C380.644 546.506 380.49 546.339 380.293 546.332ZM298.682 560.295C297.897 560.03 297.14 559.799 296.411 559.507C295.684 559.205 294.976 558.913 294.289 558.543C293.598 558.201 292.939 557.789 292.273 557.371C291.615 556.944 290.986 556.463 290.313 555.96C290.214 555.889 290.075 555.869 289.956 555.917C289.775 556.002 289.697 556.204 289.775 556.385C290.138 557.195 290.684 557.907 291.307 558.536C291.93 559.178 292.672 559.695 293.457 560.128C294.249 560.539 295.089 560.868 295.972 561.029C296.853 561.195 297.749 561.258 298.632 561.105C298.773 561.077 298.904 560.966 298.954 560.818C299.023 560.596 298.899 560.365 298.682 560.295ZM303.645 556.058C302.336 555.967 301.076 555.743 299.893 555.338C298.71 554.926 297.582 554.39 296.588 553.67C295.579 552.964 294.696 552.091 293.913 551.122C293.136 550.143 292.512 549.041 291.986 547.854C291.917 547.693 291.748 547.59 291.566 547.61C291.342 547.63 291.175 547.834 291.195 548.056C291.342 549.452 291.861 550.807 292.609 552.022C293.353 553.243 294.375 554.297 295.558 555.129C296.755 555.945 298.099 556.533 299.507 556.797C300.9 557.077 302.351 557.091 303.708 556.742C303.849 556.699 303.961 556.574 303.968 556.428C303.981 556.239 303.834 556.071 303.645 556.058ZM384.207 524.214C383.83 523.69 383.395 523.195 382.864 522.818C382.345 522.427 381.771 522.106 381.133 521.945C381.035 521.924 380.916 521.939 380.826 522.008C380.664 522.133 380.636 522.357 380.755 522.518L381.799 523.886C382.115 524.34 382.443 524.765 382.73 525.22C383.038 525.66 383.304 526.128 383.599 526.588C383.893 527.056 384.151 527.544 384.474 528.048L384.481 528.06C384.55 528.166 384.663 528.244 384.789 528.257C385.027 528.284 385.236 528.118 385.272 527.879C385.35 527.23 385.244 526.581 385.062 525.96C384.88 525.331 384.572 524.752 384.207 524.214ZM386.427 500.1C385.923 499.213 385.39 498.334 384.775 497.517C384.166 496.694 383.521 495.884 382.773 495.164C382.68 495.074 382.534 495.039 382.4 495.094C382.226 495.164 382.135 495.366 382.206 495.547C382.584 496.505 383.038 497.406 383.48 498.299C383.914 499.207 384.396 500.078 384.86 500.958C385.342 501.831 385.811 502.712 386.336 503.57C386.848 504.428 387.351 505.295 387.954 506.125C388.045 506.259 388.206 506.327 388.375 506.292C388.597 506.244 388.738 506.027 388.696 505.804C388.479 504.785 388.135 503.821 387.757 502.872C387.386 501.914 386.917 501.001 386.427 500.1ZM386.155 484.14C386.553 484.301 386.967 484.412 387.421 484.37C387.492 484.364 387.568 484.335 387.638 484.286C387.842 484.14 387.891 483.854 387.744 483.645L387.724 483.617C387.492 483.295 387.254 483.059 387.037 482.82C386.82 482.576 386.589 482.367 386.372 482.15C386.14 481.941 385.923 481.718 385.665 481.509C385.413 481.292 385.168 481.061 384.83 480.83L384.81 480.817C384.762 480.782 384.698 480.762 384.635 480.747C384.418 480.726 384.222 480.88 384.201 481.089C384.144 481.542 384.25 481.954 384.411 482.352C384.557 482.757 384.825 483.099 385.11 483.414C385.413 483.708 385.756 483.972 386.155 484.14ZM392.274 489.957C391.686 488.42 390.908 486.961 389.894 485.683C389.796 485.564 389.627 485.522 389.48 485.585C389.313 485.655 389.228 485.857 389.306 486.032C389.914 487.484 390.447 488.93 390.832 490.417C391.211 491.904 391.496 493.398 391.623 494.92C391.771 496.435 391.756 497.957 391.658 499.486C391.554 501.008 391.287 502.53 390.951 504.058C390.916 504.233 390.994 504.422 391.161 504.505C391.365 504.611 391.61 504.533 391.713 504.332C392.478 502.885 392.954 501.293 393.234 499.675C393.52 498.055 393.555 496.392 393.401 494.752C393.227 493.112 392.876 491.484 392.274 489.957ZM388.759 457.819C388.62 457.75 388.438 457.791 388.34 457.931C388.226 458.085 388.262 458.294 388.416 458.407L388.423 458.412C390.244 459.74 391.721 461.443 392.68 463.411C393.668 465.353 394.201 467.524 394.143 469.675C394.143 471.824 393.472 473.904 392.407 475.859C391.365 477.821 389.977 479.65 388.66 481.557C388.549 481.718 388.564 481.934 388.703 482.073C388.864 482.234 389.124 482.234 389.284 482.073C390.923 480.44 392.506 478.694 393.78 476.649C395.069 474.631 395.874 472.181 395.937 469.695C395.894 467.23 395.286 464.772 394.012 462.686C392.778 460.578 390.936 458.839 388.759 457.819ZM333.679 97.9812C330.954 97.7228 328.181 98.0229 325.534 98.7422C322.902 99.5311 320.389 100.76 318.232 102.456C316.082 104.16 314.275 106.289 313.042 108.691C312.951 108.865 313.001 109.082 313.162 109.201C313.344 109.333 313.602 109.291 313.736 109.117C315.277 107.022 317.097 105.186 319.183 103.727C321.263 102.261 323.574 101.13 326.031 100.453C328.461 99.6986 331.032 99.4262 333.588 99.4891C336.15 99.559 338.706 100.041 341.186 100.857C341.347 100.913 341.521 100.844 341.599 100.697C341.69 100.522 341.627 100.32 341.458 100.229C339.071 98.9794 336.402 98.2395 333.679 97.9812ZM404.388 109.082C404.486 109.214 404.668 109.263 404.816 109.179C404.991 109.096 405.054 108.893 404.97 108.726C403.744 106.324 401.952 104.195 399.808 102.491C397.666 100.774 395.152 99.545 392.526 98.7422C389.879 98.0091 387.106 97.7019 384.383 97.9462C381.658 98.1905 378.976 98.9236 376.582 100.173C376.407 100.264 376.324 100.474 376.387 100.662C376.456 100.871 376.687 100.99 376.904 100.92C379.369 100.097 381.918 99.6008 384.474 99.5241C387.03 99.4403 389.599 99.7195 392.029 100.453C394.494 101.109 396.805 102.247 398.899 103.699C400.999 105.151 402.833 106.987 404.388 109.082ZM420.599 277.513C416.327 273.422 412.083 269.302 407.756 265.261C407.673 265.176 407.561 265.12 407.435 265.093C407.057 265.009 406.691 265.246 406.608 265.616V265.636C405.349 271.46 404.143 277.289 402.959 283.126C401.756 288.962 400.58 294.806 399.452 300.65C397.133 312.336 394.95 324.052 392.912 335.795C392.876 336.004 393.017 336.207 393.227 336.256C393.444 336.305 393.661 336.172 393.709 335.949C396.336 324.324 398.808 312.673 401.147 300.992C402.351 295.156 403.507 289.312 404.627 283.46C405.697 278.016 406.741 272.562 407.743 267.103C411.839 270.776 415.992 274.391 420.13 278.016C420.228 278.099 420.354 278.099 420.466 278.057L421.384 280.655C421.439 279.921 421.502 279.196 421.573 278.476L420.634 277.925C420.71 277.792 420.71 277.624 420.599 277.513ZM369.075 196.247C367.591 196.136 366.113 196.031 364.636 195.87C363.166 195.731 361.695 195.52 360.218 195.326L355.77 194.634C355.624 194.614 355.47 194.69 355.399 194.83C355.323 195.004 355.399 195.206 355.568 195.291C356.968 195.94 358.425 196.415 359.916 196.806C361.402 197.211 362.921 197.462 364.447 197.643C365.974 197.804 367.521 197.887 369.055 197.825C370.589 197.769 372.121 197.623 373.627 197.294C373.803 197.253 373.942 197.1 373.95 196.917C373.963 196.687 373.788 196.499 373.564 196.484L369.075 196.247ZM337.979 182.57C337.817 182.668 337.691 182.814 337.621 182.996C337.454 183.45 337.676 183.945 338.125 184.12C343.931 186.312 349.987 187.91 356.143 188.7C362.29 189.552 368.522 189.601 374.677 189.168C374.888 189.153 375.055 188.964 375.055 188.748C375.048 188.526 374.86 188.35 374.636 188.358C368.507 188.511 362.381 188.156 356.36 187.226C350.968 186.36 345.68 184.986 340.555 183.136C347.459 179.421 355.427 177.711 363.299 178.179C371.785 178.619 380.238 181.46 387.1 186.64C387.24 186.753 387.449 186.73 387.568 186.592C387.688 186.446 387.674 186.229 387.527 186.109C384.174 183.31 380.343 181.048 376.246 179.456C372.143 177.878 367.793 176.908 363.397 176.58C354.622 176 345.541 177.871 337.986 182.563L337.979 182.57ZM360.61 161.241C362.129 161.402 363.677 161.318 365.141 160.913C366.61 160.515 368.01 159.852 369.146 158.875C369.279 158.756 369.327 158.567 369.251 158.4C369.16 158.19 368.914 158.1 368.712 158.19C367.437 158.749 366.135 159.161 364.803 159.363C363.481 159.559 362.136 159.615 360.806 159.468C359.469 159.342 358.167 159.014 356.898 158.553C355.639 158.072 354.44 157.408 353.307 156.592C353.186 156.501 353.019 156.501 352.893 156.592C352.739 156.703 352.712 156.92 352.823 157.073C354.63 159.468 357.607 160.899 360.61 161.241ZM272.052 145.938C273.571 145.33 275.377 146.168 277.099 147.278C277.379 147.46 277.757 147.46 278.045 147.25C278.416 146.978 278.493 146.461 278.219 146.091C275.286 142.07 270.994 139.096 266.294 137.769C266.127 137.727 265.951 137.804 265.882 137.972C265.805 138.146 265.888 138.342 266.064 138.419C269.243 139.745 272.085 141.721 274.431 144.136C273.465 143.906 272.395 143.878 271.399 144.29C270.139 144.737 269.173 146.049 269.032 147.306C268.85 148.563 269.11 149.708 269.438 150.762C270.124 152.829 271.161 154.721 272.387 156.473C273.619 158.225 275.118 159.775 276.791 161.067C276.96 161.192 277.191 161.178 277.331 161.032C277.492 160.878 277.492 160.62 277.331 160.459C275.874 159.021 274.606 157.422 273.543 155.712C272.458 154.008 271.658 152.137 271.043 150.259C270.763 149.345 270.594 148.388 270.742 147.585C270.874 146.782 271.33 146.21 272.052 145.938ZM433.245 151.09C433.687 151.293 434.212 151.097 434.414 150.657L434.421 150.643C434.911 149.554 436.452 148.94 437.782 149.247C439.099 149.484 440.108 150.734 440.452 152.151C440.835 153.59 440.535 155.16 439.702 156.487C438.903 157.848 437.649 158.951 436.263 159.845C436.094 159.95 436.026 160.173 436.109 160.355C436.208 160.564 436.445 160.648 436.649 160.557C438.252 159.817 439.723 158.707 440.808 157.213C441.88 155.719 442.425 153.708 442.026 151.802C441.683 149.931 440.275 148.025 438.161 147.564C437.321 147.369 436.452 147.404 435.62 147.634C436.48 145.959 437.628 144.416 439.001 143.096C441.143 141.058 443.833 139.543 446.78 138.837C446.942 138.795 447.06 138.642 447.04 138.467C447.02 138.279 446.851 138.146 446.662 138.16C443.497 138.488 440.452 139.906 438.007 141.993C435.562 144.039 433.757 146.824 432.811 149.903C432.811 149.91 432.811 149.91 432.804 149.917H432.811C432.797 149.959 432.776 150.001 432.761 150.036C432.635 150.455 432.839 150.909 433.245 151.09ZM384.242 122.312C384.242 126.459 387.128 129.817 390.691 129.817C394.257 129.817 397.148 126.459 397.148 122.312C397.148 118.165 394.257 114.807 390.691 114.807C387.128 114.807 384.242 118.165 384.242 122.312ZM327.356 114.807C323.791 114.807 320.899 118.165 320.899 122.312C320.899 126.459 323.791 129.817 327.356 129.817C330.919 129.817 333.813 126.459 333.813 122.312C333.813 118.165 330.919 114.807 327.356 114.807ZM295.243 281.221L296.356 278.071C296.454 278.107 296.552 278.114 296.643 278.057C300.488 275.76 304.346 273.505 308.154 271.173C308.772 276.172 309.408 281.178 310.102 286.17C310.809 291.511 311.53 296.844 312.315 302.172C313.827 312.832 315.459 323.48 317.258 334.099C317.293 334.308 317.49 334.462 317.699 334.434C317.924 334.414 318.085 334.21 318.063 333.986C316.872 323.284 315.514 312.595 314.036 301.934C313.329 296.593 312.552 291.266 311.775 285.94C311.013 280.612 310.206 275.286 309.366 269.966L309.36 269.945C309.345 269.855 309.317 269.77 309.262 269.686C309.058 269.379 308.646 269.289 308.336 269.49C304.283 272.094 300.299 274.811 296.28 277.478C296.131 277.576 296.083 277.777 296.174 277.938L287.603 282.952C290.209 282.575 292.757 281.988 295.243 281.221ZM349.631 59.6033C331.956 76.3382 308.869 89.9454 296.461 93.5967C296.076 96.7034 295.816 99.6217 295.634 102.414C302.679 100.152 309.239 96.6267 315.325 92.4795C321.865 87.9975 327.929 82.8171 333.566 77.2248C339.266 71.6884 344.547 65.7262 349.631 59.6033ZM498.725 188.77C500.908 207.565 528.351 230.046 517.778 245C508.821 257.679 493.48 265.183 478.901 265.805C475.224 257.651 472.416 251.193 470.743 242.27C470.443 250.577 471.121 258.474 473.789 266.258C462.684 273.938 451.851 280.041 440.164 286.122L410.201 250.836L403.457 258.383C401.798 251.528 400.671 244.609 400.671 237.983C400.671 230.841 400.671 224.836 400.671 219.81C397.464 223.279 394.067 226.575 390.434 229.626C384.075 234.911 376.953 239.616 368.782 241.92C364.712 243.065 360.322 243.296 356.163 242.619C351.99 241.97 347.95 240.692 344.148 238.974C336.522 235.546 329.596 230.848 323.392 225.332C323.223 225.186 323.21 224.934 323.357 224.768C323.503 224.607 323.756 224.585 323.917 224.725L323.932 224.733C327.076 227.336 330.465 229.696 333.944 231.84C337.418 234.003 341.024 235.945 344.777 237.523C348.538 239.085 352.424 240.35 356.416 240.922C360.407 241.543 364.44 241.292 368.313 240.202C376.12 238.101 383.109 233.523 389.48 228.461C392.68 225.918 395.72 223.161 398.632 220.277C399.326 219.601 399.992 218.896 400.671 218.204C400.671 218.19 400.671 218.177 400.671 218.169C401.006 217.842 401.335 217.513 401.672 217.185C403.514 215.271 405.321 213.317 407.022 211.279L407.029 211.271C407.148 211.125 407.357 211.105 407.504 211.223C407.511 211.229 407.511 211.236 407.511 211.243C411.894 206.629 415.795 202.224 418.982 198.627C419.584 197.958 420.158 197.316 420.705 196.7C420.831 196.554 420.955 196.421 421.081 196.275C421.712 195.57 422.322 194.899 422.875 194.292C425.038 191.94 426.902 186.292 428.504 178.681C434.023 180.392 440.374 179.533 445.052 176.105C448.251 173.752 450.598 170.443 452.669 167.064C455.836 161.905 458.51 156.438 460.638 150.776C462.571 145.638 464.069 140.157 463.39 134.718C462.956 131.248 461.465 127.813 459.098 125.286C459.098 125.279 459.098 125.279 459.098 125.279C458.735 124.888 458.349 124.525 457.95 124.19C457.768 124.029 457.572 123.897 457.383 123.75C457.075 123.513 456.752 123.289 456.416 123.087C456.242 122.975 456.066 122.871 455.884 122.773C455.366 122.486 454.827 122.221 454.252 122.012C449.162 120.19 443.321 122.151 439.17 125.607C438.33 126.305 437.558 127.073 436.823 127.869C436.74 127.953 436.662 128.037 436.586 128.121C435.976 128.784 435.416 129.496 434.863 130.208C434.737 130.704 434.631 131.199 434.499 131.688C433.665 134.453 432.698 137.19 431.502 139.822C430.304 142.447 428.931 145.002 427.314 147.39C427.188 147.571 426.935 147.627 426.748 147.495C426.579 147.383 426.523 147.166 426.607 146.985C427.839 144.416 429.009 141.84 430.046 139.207C431.075 136.575 432.027 133.915 432.784 131.193C432.978 130.557 433.134 129.901 433.309 129.259C432.938 126.494 432.986 123.597 433.225 120.643C432.327 123.275 431.214 125.838 429.807 128.232C429.688 128.421 429.443 128.491 429.246 128.372C429.072 128.274 429.002 128.058 429.072 127.876C430.087 125.328 430.997 122.766 431.719 120.148C432.44 117.53 433.036 114.884 433.392 112.196C433.728 110.115 433.882 108.007 433.98 105.891C433.47 103.015 432.791 100.187 431.971 97.4016C414.955 93.8201 398.304 82.4749 384.704 68.9168C385.105 69.4474 385.476 69.9919 385.882 70.5224C389.803 75.5911 394.214 80.2968 399.116 84.4299C403.961 88.6327 409.277 92.2772 414.899 95.3769C420.529 98.4629 426.473 100.997 432.65 102.861C432.867 102.924 432.986 103.147 432.923 103.364C432.86 103.566 432.65 103.685 432.44 103.636C426.095 102.121 419.941 99.7963 414.15 96.7663C408.352 93.7434 402.924 90.0151 397.946 85.7843C393.017 81.4905 388.514 76.7013 384.671 71.4231C382.814 68.8957 381.12 66.2567 379.587 63.5339C373.564 56.9085 368.298 49.9618 364.084 43.2594C362.626 45.319 361.031 47.3645 359.328 49.3892C356.605 53.1872 353.797 56.9364 350.87 60.5877C345.869 66.8432 340.54 72.8474 334.827 78.4955C329.057 84.0737 322.923 89.3308 316.173 93.7364C309.829 97.8833 302.916 101.276 295.579 103.217C295.005 112.677 295.397 120.406 295.536 127.457C295.922 129.705 296.139 131.981 296.23 134.258C296.32 136.68 296.23 139.11 296.068 141.525C295.823 143.941 295.536 146.35 295.046 148.73C294.564 151.104 293.961 153.45 293.149 155.733C293.093 155.907 292.889 156.005 292.715 155.942C292.553 155.886 292.462 155.726 292.49 155.565C292.806 153.569 293.121 151.586 293.393 149.603C293.169 150.399 292.952 151.188 292.679 151.998C291.342 147.683 289.235 143.299 286.427 138.495C285.165 136.338 283.886 134.167 282.463 132.1C282.085 131.549 281.686 131.011 281.287 130.473C281.244 130.418 281.203 130.362 281.161 130.306C280.797 129.831 280.411 129.363 280.026 128.91C279.942 128.805 279.866 128.707 279.775 128.609C279.41 128.184 279.026 127.779 278.64 127.381C278.529 127.269 278.423 127.15 278.312 127.038C277.815 126.543 277.288 126.061 276.75 125.607C276.225 125.174 275.678 124.762 275.11 124.386C275.082 124.364 275.055 124.351 275.027 124.33C274.481 123.974 273.921 123.631 273.346 123.324C269.718 121.404 265.482 120.65 261.666 122.012C256.484 123.869 253.208 129.273 252.527 134.718C251.841 140.157 253.347 145.638 255.273 150.776C257.409 156.438 260.077 161.905 263.248 167.064C265.322 170.443 267.667 173.752 270.868 176.105C275.789 179.715 282.554 180.483 288.269 178.395C289.879 186.144 291.763 191.912 293.948 194.292C294.508 194.899 295.124 195.583 295.76 196.29C295.879 196.428 296 196.561 296.126 196.7C296.671 197.309 297.239 197.95 297.834 198.622C302.623 204.018 309.002 211.258 316.271 218.28C316.271 223.608 316.271 230.109 316.271 237.983C316.271 244.65 315.312 251.814 313.89 258.962L306.628 250.836L278.877 283.51C270.77 283.364 262.661 281.422 255.588 277.8C255.119 270.434 253.642 265.588 253.166 258.222C250.981 264.786 252.073 269.518 249.881 276.082C235.548 278.21 220.926 272.995 209.211 263.661C211.893 256.051 212.279 250.856 214.961 243.246C210.697 248.554 207.551 255.339 203.287 260.645C194.92 259.508 186.714 251.261 180.825 243.966C189.374 244.252 196.264 225.067 197.175 215.699C197.91 208.186 197.427 200.081 199.731 193.188C198.134 195.452 197.021 198.091 196.285 200.758C195.031 205.337 194.639 210.162 193.653 214.979C192.595 219.774 190.963 224.453 188.723 228.823C186.482 233.186 183.694 237.279 180.368 240.859C180.214 241.02 179.956 241.027 179.795 240.881C179.641 240.733 179.619 240.496 179.745 240.336C182.7 236.531 185.263 232.446 187.302 228.124C189.346 223.81 190.935 219.271 191.902 214.602C192.959 209.958 193.345 205.065 194.829 200.33C195.578 197.971 196.6 195.674 198 193.608C198.828 192.428 199.794 191.339 200.879 190.383C201.222 189.684 201.586 188.994 202.007 188.33C207.104 180.329 217.614 176.908 220.318 167.608C222.019 161.758 220.003 155.405 219.289 149.268C218.84 151.844 218.678 154.504 218.476 157.192C218.126 160.815 217.762 164.613 216.241 168.111C215.479 169.843 214.505 171.497 213.238 172.921C211.956 174.325 210.382 175.498 208.603 176.161C208.421 176.224 208.224 176.133 208.161 175.958C208.098 175.791 208.174 175.609 208.323 175.533C211.507 173.906 213.609 170.82 214.835 167.546C216.082 164.25 216.445 160.669 216.697 157.045C217.026 153.436 217.215 149.687 218.363 146.077C218.58 145.386 218.84 144.702 219.127 144.025C219.231 142.663 219.47 141.323 219.925 140.017C222.599 132.303 230.918 129.356 236.52 123.876C247.564 113.082 246.822 94.3646 249.469 78.3698C249.636 77.3436 249.84 76.3242 250.042 75.3048C249.691 76.3521 249.32 77.3924 249.005 78.4467C246.787 85.484 245.611 92.8775 243.368 100.062C242.242 103.65 240.847 107.183 239.007 110.492C237.138 113.78 234.799 116.838 231.935 119.324C231.759 119.47 231.506 119.449 231.36 119.282C231.213 119.114 231.234 118.87 231.388 118.723C234.062 116.196 236.184 113.138 237.852 109.871C239.553 106.617 240.835 103.155 241.849 99.6078C243.901 92.5215 245.099 85.135 247.291 77.923C249.063 72.2889 251.303 66.8084 254.013 61.5651C259.216 47.7764 267.73 35.4749 278.521 26.4198C290.426 9.02865 309.605 4.95837 327.257 3.49922C335.955 2.78012 344.869 2.47293 353.186 5.90788C356.8 7.40193 360.309 9.7268 363.34 12.7778C364.972 8.96581 367.773 5.88693 373.592 3.03844C389.81 -4.88566 426.516 2.84993 445.521 24.3672C448.566 26.5524 451.423 29.01 454.062 31.6839C457.403 35.049 460.358 38.7841 462.992 42.7288C465.555 46.7152 467.796 50.9183 469.552 55.3236C471.303 59.7221 472.633 64.2879 473.39 68.9447C473.425 69.1682 473.271 69.3775 473.054 69.4125C472.843 69.4474 472.648 69.3146 472.592 69.1123C471.429 64.5951 469.945 60.1827 468.089 55.9309C466.226 51.6793 464.049 47.5671 461.493 43.6991C458.993 39.7965 456.101 36.1451 452.972 32.7172C451.837 31.4814 450.646 30.2945 449.435 29.1357C457.039 38.9937 463.643 50.995 466.898 63.3385C475.631 75.1931 482.087 89.0727 485.35 103.908C488.423 117.927 488.822 132.582 492.478 146.426C494.439 153.862 497.338 161.06 498.15 168.747C498.375 170.862 498.423 172.984 498.43 175.114C498.983 177.585 499.606 180.043 500.439 182.437C501.246 185.035 502.261 187.555 503.374 190.041C504.473 192.526 505.733 194.949 507.057 197.349C507.169 197.545 507.1 197.797 506.896 197.902C506.722 198 506.505 197.95 506.378 197.797C504.676 195.591 503.22 193.203 501.938 190.725C500.664 188.239 499.629 185.636 498.738 182.989C498.612 182.598 498.506 182.207 498.388 181.809C498.388 184.141 498.451 186.459 498.725 188.77ZM433.813 285.639L437.222 287.644C436.901 287.805 436.592 287.964 436.278 288.132C435.443 287.342 434.625 286.504 433.813 285.639Z" fill="#010043"/>
</svg>
