<svg width="215" height="264" viewBox="0 0 215 264" fill="none" xmlns="http://www.w3.org/2000/svg">
<path d="M80.5922 183.149C79.5832 183.149 78.7657 182.331 78.7657 181.323C78.7657 170.984 84.9206 161.693 94.4437 157.653C95.3732 157.258 96.444 157.694 96.8357 158.623C97.2302 159.551 96.7952 160.623 95.8678 161.018C87.6957 164.484 82.4158 172.456 82.4158 181.323C82.4158 182.331 81.5984 183.149 80.5922 183.149ZM132.228 195.467C134.386 191.219 135.612 186.416 135.612 181.32C135.612 166.25 124.95 153.673 110.766 150.742V177.542H102.355V150.17C86.0942 151.237 73.2354 164.771 73.2354 181.32C73.2354 190.23 76.9663 198.26 82.9416 203.949C84.0386 196.977 86.5583 187.053 92.2973 181.32C92.2973 181.32 89.1993 197.124 93.3127 210.502C95.677 218.184 100.414 225.07 109.489 227.7C109.489 227.7 109.631 220.341 111.313 211.775C112.74 204.521 115.274 196.403 119.765 191.157C119.765 191.157 118.807 199.423 123.324 206.158C124.51 207.924 126.066 209.588 128.121 210.966C128.121 210.966 127.701 204.89 132.233 195.475L132.228 195.467Z" fill="#F4B47E"/>
<path d="M160.458 195.012L160.8 226.445L155.264 239.145H147.137L152.857 219.616L140.392 201.255C129.579 203.663 117.913 204.891 105.619 204.891C93.3266 204.891 81.811 203.665 71.2292 201.269L58.7763 219.616L64.496 239.145H56.3693L50.8337 226.445L51.1778 194.844C16.2857 179.912 -3.60075 148.716 0.541468 103.859C4.03833 65.9612 38.8181 10.1357 105.816 10.1357C172.815 10.1357 210.377 75.2375 213.443 101.918C218.781 148.333 196.877 180.037 160.458 195.012Z" fill="#70C573"/>
<path d="M160.429 192.544L160.238 174.941L152.876 170.574C151.736 176.241 150.415 181.509 148.995 186.297L160.429 192.544ZM62.639 186.297C61.2192 181.509 59.8974 176.241 58.7573 170.574L33.1128 185.785L51.3931 174.941L51.2018 192.544L62.639 186.297ZM179.345 202.876L185.228 206.087L156.975 256.181H149.898L142.742 250.011L147.334 235.393L131.07 218.04C125.903 221.019 118.708 222.984 110.022 223.463V256.181H101.611V223.463C92.9251 222.984 85.7308 221.019 80.563 218.04L64.2977 235.393L68.581 250.011L61.7355 256.181H54.6581L26.4059 206.087L32.2882 202.876L23.1768 183.921L57.7271 165.05C50.131 120.813 54.2637 55.5504 105.816 1.80469C157.37 55.5529 161.497 120.81 153.901 165.048L188.455 183.921L179.345 202.876ZM97.213 236.788C97.5309 237.535 97.5359 238.363 97.2322 239.117C96.9264 239.871 96.3481 240.462 95.5995 240.778C87.8772 244.054 82.8889 251.584 82.8889 259.963C82.8889 261.64 81.5237 263.007 79.8484 263.007C78.1703 263.007 76.8058 261.64 76.8058 259.963C76.8058 249.133 83.2522 239.402 93.2267 235.17C93.6042 235.01 94.0029 234.929 94.4117 234.929C95.6357 234.929 96.7355 235.659 97.213 236.788Z" fill="#FBEEE6"/>
<path d="M123.754 127.604C123.754 136.996 115.723 144.606 105.816 144.606C95.9101 144.606 87.8791 136.996 87.8791 127.604C87.8791 126.46 88.0061 125.348 88.2353 124.266C89.8894 132.035 97.1319 137.883 105.816 137.883C114.502 137.883 121.743 132.035 123.395 124.266C123.624 125.348 123.754 126.46 123.754 127.604ZM105.816 150.46C92.4615 150.46 81.5952 140.207 81.5952 127.607C81.5952 115.004 92.4615 104.752 105.816 104.752C119.172 104.752 130.035 115.004 130.035 127.607C130.035 140.207 119.172 150.46 105.816 150.46ZM105.816 96.3458C117.016 96.3458 126.405 103.421 129.187 113.19C124.211 105.919 115.599 101.097 105.816 101.097C96.035 101.097 87.4229 105.917 82.4467 113.19C85.2282 103.421 94.6172 96.3458 105.816 96.3458ZM133.685 127.614C133.685 127.612 133.685 127.609 133.685 127.607V118.297C133.685 118.168 133.673 118.041 133.646 117.919C132.939 103.748 120.778 92.6918 105.816 92.6918C90.8551 92.6918 78.6916 103.748 77.9863 117.921C77.96 118.041 77.9459 118.168 77.9459 118.297V127.607C77.9459 142.222 90.4485 154.114 105.816 154.114C121.182 154.114 133.681 142.227 133.685 127.614ZM178.533 200.351L175.005 198.422L179.806 187.403L185.246 186.381L178.533 200.351ZM155.909 254.352H152.89L175.865 209.703L181.711 208.607L155.909 254.352ZM149.336 253.282L144.843 249.41L149.075 235.941C149.271 235.311 149.117 234.624 148.665 234.143L128.003 212.097L135.81 187.156L172.241 208.766L149.336 253.282ZM112.886 220.593L113.992 210.412L111.846 201.47V187.168C111.846 186.161 111.031 185.342 110.022 185.342H101.611C100.602 185.342 99.785 186.161 99.785 187.168V201.47L96.3308 210.151L98.351 219.353C92.0408 218.822 90.9984 218.285 86.6196 216.22L90.0731 214.327C90.5251 213.846 90.6805 213.159 90.4847 212.53L83.3975 199.135L78.6171 183.861C78.6121 183.847 78.6029 183.832 78.5979 183.818C78.5625 183.715 78.5192 183.614 78.4667 183.519C78.4567 183.501 78.4496 183.485 78.4404 183.471C78.3808 183.368 78.3092 183.274 78.2276 183.186C78.2084 183.165 78.1892 183.146 78.1701 183.126C78.0892 183.043 78.0005 182.964 77.9026 182.896C77.9004 182.896 77.8976 182.894 77.8933 182.892C77.7926 182.822 77.6847 182.77 77.5705 182.721C77.5563 182.717 77.5442 182.707 77.53 182.7C77.518 182.695 77.5031 182.695 77.4889 182.691C77.4626 182.681 77.4392 182.669 77.4123 182.662L70.524 180.537C70.0532 180.393 69.544 180.444 69.1114 180.68L63.743 183.612C59.7705 169.434 56.7278 151.41 56.6059 131.604C56.4816 111.225 59.4526 85.2893 70.6627 58.3959C80.6536 63.6036 92.4204 66.3511 104.845 66.3511C117.797 66.3511 130.403 63.2303 140.612 57.5391C152.118 84.7386 155.151 111.009 155.027 131.604C154.905 151.41 151.863 169.434 147.888 183.612L142.522 180.68C142.089 180.444 141.58 180.393 141.109 180.537L134.221 182.662C134.194 182.669 134.17 182.681 134.144 182.691C134.13 182.695 134.118 182.695 134.103 182.7C134.089 182.707 134.077 182.717 134.063 182.721C133.948 182.77 133.838 182.822 133.738 182.892C133.735 182.892 133.735 182.894 133.733 182.896C133.632 182.964 133.544 183.043 133.461 183.126C133.441 183.146 133.424 183.165 133.405 183.183C133.326 183.274 133.253 183.368 133.192 183.471C133.183 183.485 133.176 183.501 133.169 183.516C133.114 183.614 133.068 183.715 133.033 183.823C133.028 183.837 133.021 183.847 133.016 183.861L128.235 199.135L119.468 212.108C119.313 212.599 120.393 213.698 121.088 214.387C121.402 214.696 121.773 214.94 122.178 215.107L125.269 216.481C120.891 218.547 119.195 220.062 112.886 220.593ZM108.196 208.617H103.434V188.997H108.196V208.617ZM108.196 224.937V254.352H103.434V212.271H108.196V224.937ZM62.9686 234.143C62.5264 234.615 62.3663 235.285 62.548 235.907L66.5061 249.422L62.2731 253.237L39.3893 208.766L75.8228 187.156L83.6295 212.097L62.9686 234.143ZM55.7215 254.352L29.9217 208.607L35.7658 209.703L58.7427 254.352H55.7215ZM26.3842 186.381L31.8266 187.403L36.6286 198.422L33.0983 200.351L26.3842 186.381ZM70.1846 184.256L72.3977 184.94L36.6405 206.15L31.7741 205.235L70.1846 184.256ZM51.2255 190.449L39.8458 196.665L35.4287 186.534L51.3714 177.078L57.5237 173.428C58.432 177.648 59.4383 181.642 60.5091 185.378L51.2255 190.449ZM56.4075 167.852C56.5199 168.451 56.6274 169.054 56.7421 169.645L32.7732 183.861L28.5473 183.069L56.4075 167.852ZM105.816 4.45627C120.979 20.5774 131.682 37.5098 139.142 54.1694C129.421 59.6715 117.317 62.6942 104.845 62.6942C92.9057 62.6942 81.6292 60.0449 72.1061 55.0237C79.5828 38.0914 90.3939 20.855 105.816 4.45627ZM179.857 205.235L174.992 206.15L139.235 184.94L141.448 184.256L179.857 205.235ZM160.407 190.449L151.124 185.378C152.195 181.642 153.201 177.648 154.109 173.428L160.262 177.078L176.204 186.534L171.787 196.665L160.407 190.449ZM183.086 183.069L178.86 183.861L154.891 169.645C155.006 169.054 155.113 168.451 155.225 167.852L183.086 183.069ZM190.254 183.634C190.249 183.617 190.252 183.6 190.249 183.583C190.242 183.552 190.23 183.521 190.221 183.49C190.206 183.423 190.187 183.356 190.163 183.293C190.144 183.241 190.123 183.191 190.099 183.141C190.074 183.088 190.046 183.035 190.015 182.985C189.986 182.932 189.953 182.884 189.917 182.839C189.884 182.793 189.85 182.748 189.812 182.707C189.771 182.662 189.728 182.619 189.683 182.578C189.644 182.539 189.601 182.506 189.559 182.473C189.508 182.434 189.454 182.399 189.398 182.365C189.374 182.348 189.355 182.329 189.329 182.317L185.44 180.192L155.892 164.054C157.549 154.072 158.606 143.132 158.674 131.626C158.806 110.191 155.579 82.7209 143.229 54.3656C143.186 54.2315 143.133 54.1 143.057 53.9731C143.055 53.9731 143.055 53.9731 143.055 53.9707C136.725 39.5369 128.027 24.8805 116.198 10.6788C113.359 7.26839 110.345 3.88428 107.133 0.538487C106.444 -0.179496 105.189 -0.179496 104.501 0.538487C101.315 3.86035 98.3219 7.21574 95.5013 10.5998C83.3812 25.1365 74.5371 40.1496 68.1649 54.916C68.1625 54.9209 68.1577 54.9232 68.1553 54.928C68.0884 55.0501 68.0382 55.1769 67.9999 55.3037C55.9844 83.3269 52.827 110.425 52.956 131.626C53.0278 143.132 54.0842 154.072 55.7383 164.054L26.965 179.771L22.3041 182.317C22.2778 182.331 22.2563 182.351 22.2324 182.365C22.1774 182.399 22.1272 182.432 22.0771 182.471C22.0317 182.504 21.9886 182.542 21.9456 182.581C21.9026 182.619 21.8619 182.66 21.8237 182.702C21.7854 182.748 21.7472 182.793 21.7114 182.841C21.6779 182.887 21.6468 182.932 21.6181 182.98C21.587 183.033 21.5584 183.088 21.532 183.143C21.5105 183.193 21.4866 183.241 21.47 183.293C21.446 183.356 21.4293 183.421 21.4126 183.487C21.403 183.519 21.3911 183.55 21.3839 183.583C21.3815 183.602 21.3815 183.617 21.3791 183.636C21.3671 183.705 21.3648 183.772 21.3624 183.842C21.36 183.892 21.3552 183.942 21.3576 183.992C21.36 184.055 21.3696 184.117 21.3791 184.176C21.3863 184.234 21.3911 184.289 21.4054 184.344C21.4174 184.397 21.4365 184.447 21.4556 184.5C21.4747 184.559 21.4939 184.622 21.5201 184.679C21.5249 184.692 21.5273 184.703 21.532 184.713L29.8906 202.103L25.5309 204.483C25.507 204.496 25.4878 204.515 25.464 204.529C25.4066 204.565 25.3516 204.601 25.2967 204.644C25.256 204.675 25.2178 204.709 25.1771 204.744C25.1294 204.788 25.0839 204.835 25.0409 204.886C25.005 204.924 24.9716 204.964 24.9405 205.008C24.9023 205.06 24.8664 205.116 24.833 205.173C24.8066 205.218 24.7804 205.269 24.7565 205.317C24.7302 205.374 24.7087 205.434 24.6872 205.494C24.6776 205.525 24.6608 205.553 24.6513 205.585C24.6442 205.613 24.6417 205.642 24.6346 205.669C24.6298 205.697 24.6178 205.723 24.6107 205.752C24.6059 205.783 24.6083 205.814 24.6035 205.846C24.5963 205.908 24.5892 205.97 24.5868 206.032C24.5868 206.094 24.5868 206.154 24.5915 206.214C24.5963 206.272 24.6011 206.329 24.6107 206.384C24.6202 206.449 24.6346 206.508 24.6513 206.571C24.6657 206.623 24.6824 206.676 24.7015 206.729C24.7254 206.788 24.7517 206.846 24.7804 206.903C24.7923 206.93 24.8019 206.961 24.8162 206.987L53.0684 257.078C53.3911 257.652 53.9982 258.007 54.6579 258.007H61.7353C61.8763 258.007 62.0149 257.985 62.1487 257.952C62.187 257.945 62.2252 257.932 62.2611 257.92C62.3663 257.89 62.469 257.849 62.567 257.799C62.5934 257.784 62.622 257.773 62.6483 257.758C62.7583 257.693 62.861 257.624 62.9567 257.537L69.7998 251.368C70.3232 250.899 70.5288 250.171 70.3304 249.496L66.3436 235.881L80.914 220.334C85.9264 222.928 92.3658 224.594 99.785 225.173V256.181C99.785 257.189 100.602 258.007 101.611 258.007H110.022C111.031 258.007 111.846 257.189 111.846 256.181V225.173C119.268 224.594 125.706 222.928 130.719 220.334L145.273 235.864L140.999 249.463C140.782 250.159 140.997 250.918 141.551 251.395L148.708 257.564C148.796 257.64 148.894 257.708 148.992 257.765C149.011 257.775 149.033 257.782 149.052 257.792C149.154 257.846 149.264 257.89 149.377 257.923C149.412 257.935 149.449 257.945 149.484 257.952C149.62 257.985 149.757 258.007 149.898 258.007H156.975C157.633 258.007 158.239 257.652 158.564 257.078L186.817 206.987C186.831 206.958 186.841 206.93 186.853 206.901C186.881 206.846 186.908 206.788 186.929 206.729C186.948 206.676 186.967 206.623 186.982 206.568C186.996 206.508 187.01 206.449 187.02 206.386C187.03 206.329 187.037 206.272 187.042 206.211C187.046 206.154 187.046 206.094 187.044 206.034C187.044 205.97 187.037 205.908 187.027 205.843C187.025 205.812 187.025 205.781 187.02 205.752C187.015 205.723 187.003 205.699 186.998 205.673C186.991 205.644 186.991 205.616 186.982 205.585C186.972 205.551 186.955 205.522 186.944 205.491C186.925 205.431 186.903 205.374 186.876 205.319C186.853 205.269 186.827 205.221 186.798 205.173C186.766 205.116 186.731 205.06 186.69 205.008C186.661 204.964 186.628 204.926 186.595 204.886C186.549 204.835 186.504 204.788 186.453 204.742C186.415 204.709 186.377 204.675 186.336 204.644C186.282 204.604 186.226 204.565 186.167 204.529C186.145 204.515 186.126 204.496 186.102 204.483L181.743 202.103L190.099 184.713C190.106 184.703 190.106 184.692 190.111 184.679C190.137 184.624 190.156 184.564 190.175 184.505C190.194 184.452 190.213 184.4 190.228 184.342C190.24 184.292 190.245 184.237 190.254 184.184C190.261 184.12 190.273 184.057 190.275 183.99C190.278 183.942 190.273 183.894 190.271 183.847C190.268 183.774 190.264 183.705 190.254 183.634Z" fill="#010043"/>
<path d="M124.614 213.82L128.097 217.537C123.718 219.602 118.159 220.971 111.846 221.503V201.471C117.668 201.138 123.185 200.334 128.235 199.135L124.203 212.023C124.005 212.652 124.162 213.339 124.614 213.82ZM83.3975 199.135C88.4482 200.334 93.9644 201.138 99.785 201.471V221.503C93.4748 220.971 87.9153 219.602 83.5365 217.537L87.0191 213.82C87.4704 213.339 87.6279 212.652 87.43 212.023L83.3975 199.135ZM104.441 121.722C100.963 121.722 98.131 124.362 98.131 127.607C98.131 128.615 97.3136 129.433 96.3074 129.433C95.2984 129.433 94.481 128.615 94.481 127.607C94.481 122.347 98.9484 118.07 104.441 118.07C105.45 118.07 106.267 118.886 106.267 119.896C106.267 120.906 105.45 121.722 104.441 121.722ZM123.395 124.266C123.397 124.259 123.4 124.252 123.402 124.245C123.393 124.201 123.378 124.159 123.369 124.115C123.278 123.701 123.173 123.295 123.051 122.893C123.037 122.847 123.025 122.802 123.011 122.756C122.874 122.33 122.723 121.909 122.557 121.497C122.535 121.447 122.513 121.397 122.492 121.347C122.32 120.93 122.131 120.523 121.925 120.123C121.911 120.097 121.897 120.073 121.882 120.047C121.452 119.229 120.955 118.449 120.398 117.711C120.367 117.671 120.338 117.629 120.307 117.589C120.04 117.242 119.757 116.907 119.464 116.579C119.42 116.534 119.38 116.488 119.337 116.44C119.038 116.117 118.727 115.801 118.404 115.5C118.371 115.469 118.337 115.44 118.306 115.411C117.967 115.098 117.618 114.796 117.255 114.511C117.253 114.509 117.253 114.509 117.25 114.509C116.891 114.226 116.521 113.963 116.138 113.707C116.088 113.673 116.041 113.64 115.988 113.607C115.623 113.367 115.244 113.14 114.86 112.927C114.793 112.891 114.729 112.855 114.664 112.819C114.274 112.611 113.875 112.412 113.468 112.23C113.416 112.206 113.361 112.185 113.309 112.161C112.883 111.977 112.453 111.802 112.011 111.649C112.006 111.646 112.001 111.644 111.996 111.644C111.557 111.491 111.107 111.357 110.653 111.237C110.586 111.218 110.519 111.199 110.452 111.182C110.015 111.072 109.573 110.978 109.124 110.9C109.04 110.885 108.956 110.871 108.872 110.857C108.42 110.785 107.964 110.725 107.503 110.684C107.433 110.677 107.362 110.675 107.292 110.667C106.805 110.632 106.315 110.605 105.816 110.605C105.318 110.605 104.826 110.632 104.34 110.667C104.269 110.675 104.199 110.677 104.13 110.684C103.666 110.725 103.21 110.785 102.758 110.857C102.677 110.871 102.593 110.885 102.51 110.9C102.061 110.978 101.616 111.072 101.181 111.182C101.114 111.199 101.047 111.218 100.98 111.237C100.526 111.357 100.077 111.491 99.6367 111.644C99.6317 111.644 99.6268 111.646 99.6225 111.649C99.1805 111.802 98.7497 111.977 98.3247 112.161C98.2715 112.185 98.2169 112.206 98.1622 112.23C97.7556 112.412 97.359 112.611 96.9694 112.819C96.9049 112.855 96.8375 112.891 96.7729 112.927C96.3883 113.14 96.0108 113.367 95.6447 113.607C95.5922 113.64 95.5446 113.673 95.4942 113.707C95.1118 113.963 94.7392 114.226 94.3809 114.509C94.3809 114.509 94.3809 114.509 94.3781 114.511C94.0148 114.796 93.6635 115.098 93.3265 115.411C93.2931 115.44 93.2598 115.469 93.2286 115.5C92.9057 115.801 92.5949 116.117 92.2962 116.44C92.2536 116.488 92.2103 116.534 92.1699 116.579C91.8754 116.907 91.5937 117.242 91.3262 117.589C91.295 117.629 91.2638 117.671 91.2354 117.711C90.6784 118.449 90.1788 119.229 89.751 120.044C89.7368 120.071 89.7219 120.097 89.7077 120.123C89.5019 120.523 89.3132 120.93 89.1386 121.347C89.1173 121.397 89.096 121.447 89.0769 121.497C88.9094 121.909 88.7561 122.33 88.6227 122.756C88.6086 122.802 88.5965 122.847 88.5823 122.893C88.4603 123.295 88.3552 123.704 88.2644 124.115C88.2545 124.159 88.2403 124.201 88.2304 124.245C88.2304 124.252 88.2332 124.259 88.2353 124.266C89.8893 132.035 97.1319 137.884 105.816 137.884C114.502 137.884 121.743 132.035 123.395 124.266Z" fill="#B89AD3"/>
</svg>
