<svg width="363" height="300" viewBox="0 0 363 300" fill="none" xmlns="http://www.w3.org/2000/svg">
<g filter="url(#filter0_d_1022_211)">
<path d="M356.714 176.463C356.714 273.922 277.757 291.947 180.357 291.947C82.9578 291.947 4 273.922 4 176.463C4 79.0053 82.9578 0 180.357 0C277.757 0 356.714 79.0053 356.714 176.463Z" fill="#70C573"/>
<mask id="mask0_1022_211" style="mask-type:alpha" maskUnits="userSpaceOnUse" x="4" y="0" width="355" height="292">
<path d="M359 176.463C359 273.922 279.531 291.947 181.5 291.947C83.4695 291.947 4 273.922 4 176.463C4 79.0053 83.4695 0 181.5 0C279.531 0 359 79.0053 359 176.463Z" fill="#70C573"/>
</mask>
<g mask="url(#mask0_1022_211)">
<path d="M368.202 144.427C368.202 144.881 368.202 145.379 368.165 145.839C368.112 155.281 367.361 164.565 365.934 173.644C359.222 217.497 337.576 256.427 306.297 285.153H306.271C271.868 316.794 225.862 336.136 175.357 336.136C150.631 336.136 126.995 331.526 105.313 323.065C102.626 322.055 99.9656 320.944 97.3233 319.783C60.6452 303.63 30.0102 276.451 9.63147 242.434C-0.606989 225.339 -8.28361 206.515 -12.8003 186.528C-15.862 172.965 -17.4688 158.874 -17.4688 144.427C-17.4688 139.356 -17.2812 134.337 -16.8438 129.393C-13.5946 87.3451 3.32953 49.1158 29.5014 19.0763C39.5702 7.50579 51.0227 -2.85704 63.5909 -11.7406L63.6179 -11.7708C67.0188 -14.1631 70.5088 -16.5031 74.1061 -18.6843C96.0025 -32.1564 120.809 -41.4182 147.382 -45.2594C156.514 -46.588 165.859 -47.2598 175.357 -47.2598C197.994 -47.2598 219.765 -43.358 239.939 -36.2172C272.547 -24.7149 301.066 -4.72854 322.908 21.0392C351.186 54.3843 368.202 97.4363 368.202 144.427Z" fill="#03A8E8"/>
<path d="M206.486 295.976C206.486 295.976 195.98 281.418 197.149 256.457C198.31 231.497 195.98 227.339 179.663 222.138C163.337 216.938 147.002 207.572 144.672 195.095C142.342 182.612 158.498 169.223 158.498 169.223C158.498 169.223 186.258 174.389 202.585 176.464C218.911 178.547 235.639 145.175 248.458 156.618C261.294 168.053 269.444 194.053 275.272 195.095C281.109 196.137 267.114 240.857 264.784 248.14C262.454 255.416 255.465 284.542 249.627 295.976C243.798 307.418 237.969 317.82 233.301 317.82C228.632 317.82 207.647 319.904 206.486 295.976Z" fill="#70C573"/>
<path d="M115.874 293.597C114.856 298.512 113.035 311.586 110.679 324.588C107.992 323.578 105.332 322.469 102.69 321.306C66.0115 305.153 35.3766 277.974 14.9977 243.957C4.75925 226.862 -2.91736 208.038 -7.43408 188.052C-0.319808 184.294 8.59756 180.912 17.3453 181.071C36.528 181.44 38.9379 186.127 55.2732 197.773C71.5726 209.435 84.3549 238.523 91.2551 239.021C98.1463 239.481 117.641 284.859 115.874 293.597Z" fill="#70C573"/>
<path d="M362.833 183.694C362.833 184.148 362.833 184.646 362.799 185.106C362.743 194.548 361.995 203.832 360.565 212.911C351.916 200.27 342.572 181.295 337.803 177.973C330.476 172.834 303.599 169.762 313.363 183.106C323.146 196.488 327.28 196.488 327.28 196.488C327.28 196.488 308.481 234.128 295.055 230.475C281.603 226.845 254.718 177.973 254.718 177.973C238.838 165.55 269.375 156.387 269.375 156.387C269.375 156.387 279.158 147.897 264.484 138.175C257.345 133.444 252.382 138.217 248.039 144.079C243.465 150.253 239.581 157.634 234.572 156.387C224.797 153.957 232.135 168.252 229.073 177.973C226.02 187.688 215.853 207.253 213.782 191.72C211.676 176.187 178.952 209.252 171.623 209.252C164.295 209.252 143.205 196.488 129.744 196.488C116.319 196.488 92.4118 164.902 94.8577 156.387C97.3036 147.897 107.513 184.895 127.062 183.694C146.611 182.472 162.369 195.01 168.466 191.72C174.589 188.399 212.163 164.219 229.881 171.51C238.18 174.928 235.759 112.994 242.454 114.35C250.04 115.887 257.28 116.469 265.724 116.649C281.603 116.988 231.519 104.165 247.381 92.014C263.287 79.8693 229.073 68.9253 230.278 55.5738C231.519 42.1991 220.495 26.4171 220.495 11.8428C220.495 7.20097 225.699 4.1821 234.572 3.0498C267.179 14.552 295.698 34.5384 317.542 60.3061C345.821 93.6512 362.833 136.703 362.833 183.694Z" fill="#70C573"/>
<path d="M100.585 81.1482C100.585 81.1482 107.672 89.4658 113.126 81.1482C118.598 72.8228 119.366 66.1888 115.956 65.5926C112.519 64.9811 92.1851 77.6839 100.585 81.1482Z" fill="#70C573"/>
<path d="M59.3174 81.1477C59.3174 81.1477 73.8851 77.4491 77.1166 70.2107C80.3568 62.9652 98.968 66.1883 103.815 58.942C108.68 51.7044 121.239 49.1229 124.274 42.3675C127.282 35.6198 130.576 25.1665 118.008 24.3519C105.44 23.5515 93.0501 17.9281 93.1839 24.3519C93.2999 30.797 90.0687 29.1818 78.7412 33.2052C67.4137 37.2276 55.2739 31.4234 55.2739 42.3675C55.2739 53.3194 58.5141 65.5617 58.5141 65.5617C58.5141 65.5617 52.0424 74.3921 59.3174 81.1477Z" fill="#70C573"/>
<path d="M152.749 -43.7344C152.749 -43.7344 131.067 -14.948 127.041 -14.1777C122.997 -13.4155 110.59 -4.96228 108.296 3.50596C105.984 11.9671 89.738 17.3411 77.3661 11.9671C64.9942 6.57808 62.1468 0.645931 68.9577 -10.2156L68.9846 -10.2458C72.3855 -12.6381 75.8755 -14.9781 79.4728 -17.1593C101.369 -30.6314 126.175 -39.8931 152.749 -43.7344Z" fill="#70C573"/>
<path d="M31.2173 69.3737C29.1643 75.525 29.6642 82.6948 22.9873 84.8388C16.2659 86.9979 18.8366 94.9903 14.195 105.233C10.0264 114.463 -7.88867 128.238 -11.4771 130.917C-8.22786 88.8692 8.6963 50.6402 34.8682 20.6006C37.5819 28.8124 36.5285 42.3679 38.9387 46.7987C42.5627 53.4708 33.2793 63.2223 31.2173 69.3737Z" fill="#70C573"/>
<path d="M180.357 173.796C218.854 173.796 250.062 143.251 250.062 105.573C250.062 67.8948 218.854 37.3506 180.357 37.3506C141.86 37.3506 110.652 67.8948 110.652 105.573C110.652 143.251 141.86 173.796 180.357 173.796Z" fill="#FFB7A6" fill-opacity="0.98"/>
<path d="M163.506 79.0322C161.857 78.8801 160.178 79.0568 158.576 79.4802C156.983 79.9447 155.461 80.6681 154.156 81.6671C152.854 82.67 151.761 83.9237 151.014 85.3377C150.959 85.4406 150.989 85.5678 151.087 85.6376C151.197 85.7159 151.353 85.6913 151.434 85.5884C152.367 84.3551 153.468 83.2741 154.732 82.4151C155.99 81.5518 157.389 80.886 158.877 80.4872C160.348 80.0434 161.904 79.8828 163.451 79.9198C165.002 79.9611 166.549 80.2446 168.05 80.7255C168.147 80.7585 168.253 80.7173 168.3 80.6311C168.355 80.5282 168.317 80.4091 168.215 80.3557C166.77 79.6199 165.154 79.1843 163.506 79.0322ZM206.307 85.5678C206.367 85.6458 206.477 85.6747 206.567 85.6255C206.673 85.576 206.711 85.457 206.66 85.3583C205.918 83.9441 204.833 82.6904 203.535 81.6874C202.239 80.6763 200.717 79.9529 199.127 79.4802C197.525 79.0486 195.847 78.8677 194.198 79.0116C192.549 79.1554 190.925 79.5868 189.476 80.3229C189.37 80.3763 189.32 80.4996 189.358 80.6104C189.4 80.7339 189.54 80.8038 189.671 80.7625C191.164 80.2777 192.706 79.9857 194.253 79.9405C195.8 79.8913 197.356 80.0555 198.827 80.4872C200.319 80.8736 201.718 81.5435 202.985 82.3987C204.256 83.2538 205.367 84.3347 206.307 85.5678ZM126.201 107.267C127.121 106.91 128.215 107.403 129.257 108.057C129.426 108.163 129.655 108.163 129.829 108.04C130.054 107.88 130.101 107.576 129.935 107.358C128.16 104.99 125.562 103.239 122.716 102.458C122.616 102.433 122.509 102.479 122.467 102.577C122.42 102.68 122.471 102.795 122.577 102.841C124.502 103.621 126.222 104.785 127.642 106.207C127.057 106.071 126.409 106.055 125.806 106.297C125.044 106.56 124.459 107.333 124.374 108.073C124.264 108.813 124.421 109.487 124.619 110.108C125.035 111.325 125.662 112.438 126.405 113.47C127.15 114.502 128.058 115.414 129.07 116.175C129.172 116.249 129.313 116.241 129.397 116.155C129.495 116.064 129.495 115.912 129.397 115.817C128.516 114.971 127.748 114.029 127.104 113.022C126.448 112.019 125.964 110.918 125.591 109.812C125.421 109.273 125.319 108.71 125.409 108.237C125.489 107.765 125.765 107.428 126.201 107.267ZM223.776 110.301C224.043 110.42 224.361 110.305 224.483 110.046L224.488 110.038C224.784 109.397 225.717 109.035 226.522 109.216C227.319 109.355 227.93 110.091 228.138 110.926C228.37 111.773 228.188 112.697 227.684 113.478C227.2 114.28 226.441 114.929 225.603 115.455C225.5 115.517 225.459 115.649 225.509 115.756C225.569 115.879 225.713 115.928 225.836 115.875C226.806 115.439 227.697 114.786 228.353 113.906C229.002 113.026 229.333 111.843 229.091 110.72C228.883 109.619 228.031 108.496 226.751 108.225C226.242 108.11 225.717 108.131 225.213 108.266C225.734 107.28 226.429 106.371 227.26 105.594C228.557 104.394 230.185 103.502 231.969 103.087C232.067 103.062 232.138 102.972 232.126 102.869C232.114 102.758 232.012 102.68 231.897 102.688C229.981 102.882 228.138 103.716 226.658 104.945C225.178 106.149 224.086 107.789 223.513 109.602C223.513 109.606 223.513 109.606 223.509 109.61H223.513C223.504 109.635 223.492 109.66 223.483 109.68C223.406 109.927 223.53 110.194 223.776 110.301ZM157.122 90.7095C154.964 90.7095 155.77 90.9156 155.77 93.3574C155.77 95.7989 159.916 95.2974 162.074 95.2974C164.231 95.2974 165.502 95.8193 165.502 93.3775C165.502 92.3219 165.29 91.6789 164.201 91.2951C162.772 90.791 158.347 90.7095 157.122 90.7095ZM173.162 56.4363C162.463 66.2895 148.488 74.3009 140.977 76.4507C140.744 78.2797 140.587 79.9981 140.477 81.6422C144.741 80.3105 148.712 78.2347 152.396 75.7929C156.355 73.1541 160.025 70.104 163.438 66.8113C166.888 63.5517 170.084 60.0413 173.162 56.4363ZM263.412 132.486C264.734 143.552 281.347 156.788 274.944 165.592C269.523 173.057 260.237 177.476 251.412 177.841C249.187 173.041 247.487 169.238 246.474 163.985C246.292 168.876 246.703 173.525 248.318 178.108C241.596 182.63 235.038 186.223 227.964 189.804L209.826 169.028L205.744 173.472C204.74 169.436 204.057 165.362 204.057 161.461C204.057 157.256 204.057 153.72 204.057 150.761C202.116 152.804 200.061 154.744 197.861 156.54C194.012 159.652 189.7 162.423 184.755 163.779C182.291 164.453 179.634 164.589 177.116 164.191C174.59 163.808 172.145 163.056 169.843 162.045C165.227 160.026 161.035 157.26 157.279 154.012C157.177 153.926 157.169 153.778 157.258 153.68C157.346 153.586 157.499 153.572 157.597 153.655L157.606 153.66C159.509 155.193 161.56 156.582 163.667 157.844C165.77 159.118 167.952 160.261 170.224 161.19C172.501 162.11 174.853 162.855 177.269 163.191C179.685 163.557 182.126 163.409 184.471 162.768C189.196 161.531 193.427 158.835 197.284 155.855C199.221 154.357 201.061 152.734 202.824 151.036C203.244 150.638 203.647 150.223 204.057 149.816C204.057 149.807 204.057 149.8 204.057 149.795C204.261 149.603 204.46 149.409 204.664 149.216C205.779 148.089 206.872 146.938 207.902 145.738L207.906 145.734C207.978 145.648 208.105 145.636 208.194 145.706C208.198 145.709 208.198 145.713 208.198 145.717C210.851 143.001 213.213 140.407 215.142 138.289C215.507 137.895 215.854 137.517 216.185 137.155C216.261 137.069 216.336 136.99 216.413 136.905C216.794 136.49 217.164 136.094 217.498 135.737C218.808 134.352 219.936 131.027 220.906 126.546C224.246 127.553 228.091 127.047 230.923 125.029C232.859 123.644 234.28 121.695 235.534 119.706C237.45 116.668 239.069 113.45 240.357 110.116C241.527 107.091 242.434 103.864 242.023 100.662C241.761 98.6189 240.858 96.5964 239.425 95.1086C239.425 95.1044 239.425 95.1044 239.425 95.1044C239.205 94.8742 238.971 94.6605 238.73 94.4632C238.62 94.3685 238.501 94.2905 238.387 94.204C238.2 94.0644 238.005 93.9329 237.802 93.8136C237.696 93.7478 237.59 93.6861 237.48 93.6288C237.166 93.46 236.839 93.304 236.491 93.1807C233.41 92.1077 229.875 93.2627 227.362 95.2974C226.853 95.7085 226.386 96.1607 225.942 96.6294C225.891 96.6786 225.844 96.7281 225.798 96.7773C225.429 97.1677 225.089 97.5872 224.755 98.0064C224.679 98.2981 224.614 98.5901 224.535 98.8779C224.029 100.506 223.445 102.117 222.721 103.667C221.995 105.212 221.164 106.717 220.185 108.122C220.109 108.229 219.956 108.262 219.843 108.184C219.741 108.118 219.707 107.991 219.757 107.884C220.503 106.371 221.211 104.855 221.839 103.305C222.462 101.755 223.038 100.189 223.496 98.5861C223.614 98.2119 223.709 97.8255 223.814 97.4472C223.589 95.8195 223.619 94.1138 223.764 92.3751C223.22 93.9244 222.546 95.4331 221.694 96.8431C221.622 96.9539 221.474 96.9952 221.355 96.9254C221.249 96.8677 221.207 96.7402 221.249 96.6334C221.864 95.1332 222.415 93.6245 222.852 92.083C223.289 90.5416 223.649 88.9837 223.865 87.401C224.068 86.1761 224.161 84.9349 224.221 83.6894C223.912 81.9958 223.501 80.3309 223.004 78.6907C212.704 76.5822 202.625 69.9024 194.393 61.9198C194.635 62.2324 194.86 62.553 195.106 62.8653C197.479 65.8496 200.149 68.6202 203.117 71.0535C206.049 73.5281 209.267 75.6737 212.671 77.4987C216.078 79.3157 219.677 80.808 223.415 81.9054C223.547 81.9424 223.619 82.0739 223.581 82.2013C223.542 82.3204 223.415 82.3905 223.289 82.3616C219.448 81.4698 215.722 80.1007 212.217 78.3167C208.707 76.537 205.422 74.3419 202.408 71.8509C199.425 69.3229 196.699 66.5032 194.372 63.3954C193.249 61.9076 192.224 60.3537 191.295 58.7506C187.649 54.8496 184.462 50.7598 181.911 46.8135C181.028 48.0262 180.063 49.2305 179.032 50.4225C177.384 52.6588 175.684 54.8663 173.912 57.0161C170.885 60.6989 167.659 64.2341 164.201 67.5596C160.708 70.8438 156.995 73.9391 152.909 76.533C149.069 78.9745 144.885 80.9722 140.443 82.1151C140.096 87.6848 140.333 92.2351 140.417 96.3869C140.651 97.7104 140.782 99.0503 140.837 100.391C140.892 101.817 140.837 103.247 140.739 104.669C140.591 106.092 140.417 107.51 140.121 108.912C139.829 110.309 139.464 111.69 138.972 113.035C138.938 113.137 138.815 113.195 138.709 113.158C138.612 113.125 138.557 113.03 138.574 112.936C138.764 111.76 138.955 110.593 139.12 109.426C138.984 109.894 138.853 110.358 138.688 110.835C137.878 108.295 136.603 105.714 134.903 102.886C134.14 101.615 133.365 100.337 132.504 99.1204C132.275 98.7956 132.033 98.479 131.792 98.1627C131.766 98.1296 131.741 98.0968 131.715 98.064C131.496 97.7845 131.262 97.5091 131.028 97.2417C130.978 97.1801 130.932 97.1227 130.877 97.065C130.656 96.8143 130.423 96.576 130.19 96.3417C130.122 96.2758 130.058 96.206 129.991 96.1401C129.69 95.8484 129.371 95.5646 129.045 95.2974C128.728 95.0427 128.396 94.8002 128.053 94.5783C128.036 94.5658 128.019 94.5576 128.002 94.5452C127.672 94.3357 127.333 94.1342 126.985 93.9533C124.789 92.8231 122.225 92.379 119.915 93.1807C116.778 94.2741 114.795 97.4557 114.383 100.662C113.968 103.864 114.88 107.091 116.045 110.116C117.338 113.45 118.953 116.668 120.873 119.706C122.128 121.695 123.547 123.644 125.485 125.029C128.464 127.154 132.559 127.606 136.018 126.377C136.993 130.94 138.133 134.336 139.456 135.737C139.795 136.094 140.168 136.497 140.553 136.913C140.625 136.995 140.698 137.073 140.774 137.155C141.104 137.513 141.448 137.891 141.808 138.286C144.707 141.463 148.569 145.726 152.969 149.86C152.969 152.998 152.969 156.825 152.969 161.461C152.969 165.386 152.388 169.605 151.527 173.813L147.131 169.028L130.333 188.266C125.426 188.18 120.517 187.037 116.236 184.904C115.952 180.567 115.058 177.714 114.769 173.377C113.447 177.242 114.108 180.028 112.781 183.892C104.105 185.145 95.2544 182.075 88.1628 176.579C89.7864 172.099 90.0198 169.04 91.6433 164.56C89.0621 167.685 87.1578 171.68 84.5766 174.804C79.5117 174.134 74.5446 169.279 70.9798 164.983C76.1547 165.152 80.3259 153.857 80.877 148.34C81.3216 143.918 81.0298 139.145 82.4241 135.087C81.4575 136.42 80.7839 137.974 80.338 139.544C79.5791 142.24 79.3423 145.081 78.7449 147.917C78.1049 150.74 77.1168 153.495 75.7605 156.068C74.4043 158.637 72.7167 161.046 70.7036 163.154C70.6103 163.249 70.4543 163.253 70.3565 163.167C70.2635 163.08 70.25 162.941 70.3264 162.846C72.1149 160.606 73.6665 158.201 74.9004 155.657C76.1378 153.116 77.0999 150.444 77.6849 147.695C78.3248 144.961 78.5585 142.08 79.4567 139.292C79.9103 137.903 80.5291 136.551 81.3766 135.334C81.8775 134.64 82.4625 133.998 83.1193 133.435C83.3271 133.024 83.547 132.618 83.8018 132.227C86.8874 127.516 93.2491 125.502 94.8861 120.026C95.9157 116.582 94.695 112.841 94.2628 109.228C93.9911 110.745 93.8936 112.311 93.7712 113.894C93.5589 116.027 93.3387 118.263 92.4181 120.322C91.9568 121.342 91.3673 122.316 90.6005 123.155C89.8244 123.981 88.8712 124.671 87.7946 125.062C87.6844 125.099 87.5654 125.045 87.5274 124.943C87.489 124.844 87.5353 124.737 87.6249 124.692C89.5527 123.734 90.8249 121.917 91.5672 119.99C92.3216 118.049 92.5418 115.941 92.6943 113.807C92.8931 111.682 93.0075 109.475 93.7027 107.35C93.8341 106.943 93.9911 106.54 94.1653 106.141C94.2282 105.34 94.3728 104.55 94.648 103.782C96.267 99.2394 101.303 97.5049 104.693 94.2781C111.379 87.9231 110.929 76.9028 112.532 67.4855C112.633 66.8814 112.756 66.2813 112.879 65.6809C112.667 66.2977 112.442 66.91 112.251 67.5307C110.908 71.6743 110.196 76.0273 108.839 80.2571C108.157 82.3698 107.313 84.4498 106.199 86.3983C105.067 88.3341 103.652 90.1345 101.918 91.598C101.811 91.6842 101.659 91.672 101.57 91.5734C101.481 91.4747 101.494 91.3308 101.587 91.2446C103.206 89.7566 104.49 87.9562 105.5 86.0323C106.529 84.1168 107.305 82.0781 107.919 79.9899C109.161 75.8175 109.886 71.4688 111.213 67.2223C112.286 63.9053 113.642 60.6785 115.282 57.5914C118.432 49.473 123.585 42.2304 130.118 36.899C137.324 26.6595 148.933 24.2631 159.619 23.404C164.884 22.9806 170.28 22.7997 175.314 24.8221C177.501 25.7018 179.626 27.0705 181.46 28.8669C182.448 26.6224 184.144 24.8098 187.666 23.1327C197.484 18.4672 219.702 23.0217 231.206 35.6903C233.05 36.9771 234.779 38.4238 236.377 39.9984C238.399 41.9797 240.188 44.1787 241.782 46.5012C243.334 48.8483 244.69 51.3229 245.753 53.9165C246.813 56.5064 247.618 59.1944 248.076 61.9364C248.098 62.0679 248.005 62.1911 247.873 62.2118C247.745 62.2324 247.627 62.1541 247.593 62.0351C246.89 59.3754 245.991 56.7775 244.867 54.2741C243.74 51.7709 242.422 49.3498 240.875 47.0725C239.361 44.7748 237.611 42.625 235.717 40.6067C235.029 39.8791 234.309 39.1803 233.576 38.4979C238.179 44.3019 242.176 51.3681 244.147 58.6356C249.432 65.6153 253.341 73.787 255.316 82.5219C257.176 90.7759 257.418 99.4039 259.631 107.555C260.818 111.933 262.572 116.171 263.064 120.697C263.2 121.942 263.229 123.192 263.234 124.445C263.568 125.901 263.946 127.348 264.45 128.757C264.938 130.286 265.552 131.77 266.226 133.234C266.892 134.697 267.654 136.124 268.455 137.537C268.524 137.653 268.481 137.801 268.357 137.863C268.253 137.92 268.121 137.891 268.045 137.801C267.014 136.501 266.133 135.096 265.357 133.637C264.586 132.174 263.959 130.64 263.42 129.082C263.344 128.852 263.28 128.622 263.208 128.387C263.208 129.76 263.246 131.125 263.412 132.486Z" fill="#383838"/>
<path d="M201.41 93.3568C201.41 90.915 202.216 90.709 200.058 90.709C198.833 90.709 194.408 90.7905 192.979 91.2946C191.891 91.6784 191.678 92.3213 191.678 93.3769C191.678 95.8187 192.949 95.2969 195.106 95.2969C197.264 95.2969 201.41 95.7984 201.41 93.3568Z" fill="#383838"/>
<path d="M305.031 160.837H57.2083C56.4465 160.837 55.8422 161.48 55.8893 162.241L62.8606 275.458C62.9036 276.157 63.4815 276.701 64.1799 276.701H170.263H171.504H189.805H191.51H298.058C298.758 276.701 299.334 276.157 299.377 275.458L306.35 162.241C306.397 161.48 305.792 160.837 305.031 160.837Z" fill="#383838"/>
<path d="M298.258 278.987H63.9804C63.2504 278.987 62.6587 279.579 62.6587 280.31V290.623C62.6587 291.354 63.2504 291.946 63.9804 291.946H298.258C298.988 291.946 299.579 291.354 299.579 290.623V280.31C299.579 279.579 298.988 278.987 298.258 278.987Z" fill="#383838"/>
<path d="M182.655 189.582C171.479 189.582 162.42 198.653 162.42 209.842C162.42 213.475 163.377 216.885 165.049 219.833L169.661 228.098V228.098V233.245C169.661 233.249 169.661 233.253 169.661 233.257V238.404C169.661 240.41 170.946 242.237 173.052 243.61V245.48C173.052 248.637 177.358 251.197 182.67 251.197C185.617 251.197 188.253 250.409 190.017 249.169L190.017 244.786C190.712 244.503 191.355 244.179 191.944 243.823V233.52C194.254 232.125 195.68 230.21 195.68 228.098L200.418 219.549C201.992 216.667 202.888 213.359 202.888 209.842C202.888 198.653 193.829 189.582 182.655 189.582ZM195.68 233.257C195.68 233.253 195.68 233.249 195.68 233.245C195.68 233.249 195.68 233.253 195.68 233.257H195.68ZM195.202 240.486C195.233 240.42 195.262 240.352 195.291 240.285C195.262 240.352 195.233 240.42 195.202 240.486ZM195.164 240.562C195.177 240.537 195.19 240.512 195.202 240.486C195.19 240.512 195.177 240.537 195.164 240.562ZM195.164 240.562C195.134 240.626 195.102 240.689 195.068 240.751C195.102 240.689 195.134 240.626 195.164 240.562ZM195.026 240.828C194.992 240.89 194.956 240.952 194.919 241.014C194.956 240.952 194.991 240.89 195.026 240.828ZM195.026 240.828C195.04 240.802 195.055 240.777 195.068 240.751C195.055 240.777 195.04 240.802 195.026 240.828ZM195.291 240.285C195.3 240.263 195.31 240.24 195.319 240.218C195.31 240.24 195.3 240.263 195.291 240.285ZM192.289 243.61C192.902 243.211 193.443 242.773 193.906 242.303C193.419 242.798 192.841 243.257 192.188 243.673C192.221 243.651 192.257 243.632 192.289 243.61ZM192.188 243.673C192.108 243.724 192.026 243.774 191.944 243.823V243.826C192.027 243.776 192.107 243.724 192.188 243.673ZM195.319 240.218C195.356 240.128 195.39 240.038 195.421 239.947C195.39 240.038 195.356 240.128 195.319 240.218ZM193.924 242.283C193.918 242.29 193.912 242.297 193.906 242.303C193.912 242.297 193.918 242.29 193.924 242.283ZM194.159 242.033C194.219 241.966 194.278 241.899 194.334 241.831C194.277 241.899 194.219 241.966 194.159 242.033ZM194.375 241.782C194.361 241.798 194.347 241.815 194.334 241.831C194.347 241.815 194.361 241.798 194.375 241.782ZM194.127 242.069C194.061 242.141 193.994 242.213 193.924 242.283C193.994 242.213 194.061 242.141 194.127 242.069ZM194.919 241.014C194.904 241.038 194.889 241.062 194.874 241.086C194.889 241.062 194.904 241.038 194.919 241.014ZM194.159 242.033C194.148 242.045 194.137 242.057 194.127 242.069C194.137 242.057 194.148 242.045 194.159 242.033ZM194.375 241.782C194.427 241.717 194.478 241.652 194.528 241.588C194.478 241.652 194.427 241.717 194.375 241.782ZM194.754 241.272C194.796 241.211 194.835 241.149 194.874 241.086C194.835 241.149 194.796 241.211 194.754 241.272ZM194.754 241.272C194.739 241.295 194.723 241.317 194.708 241.34C194.723 241.317 194.739 241.295 194.754 241.272ZM194.528 241.588C194.543 241.568 194.558 241.548 194.572 241.529C194.558 241.548 194.543 241.568 194.528 241.588ZM194.708 241.34C194.664 241.403 194.619 241.466 194.572 241.529C194.619 241.466 194.664 241.403 194.708 241.34ZM195.68 238.406C195.68 238.405 195.68 238.405 195.68 238.404C195.68 238.405 195.68 238.405 195.68 238.406Z" fill="#383838"/>
<path d="M176.801 234.859V229.575C174.79 230.178 173.08 231.082 171.835 232.188C172.934 233.048 174.692 234.213 176.801 234.859ZM180.566 228.848V235.625H184.744V228.848C184.063 228.783 183.366 228.749 182.655 228.749C181.944 228.749 181.246 228.783 180.566 228.848ZM188.509 235.194C190.726 234.408 192.523 232.95 193.413 232.134C192.174 231.053 190.486 230.168 188.509 229.575V235.194ZM196.104 228.098C196.104 228.332 195.915 228.521 195.681 228.521C195.447 228.521 195.258 228.332 195.258 228.098C195.258 224.067 189.612 220.789 182.671 220.789C175.731 220.789 170.084 224.067 170.084 228.098C170.084 228.332 169.895 228.521 169.662 228.521C169.428 228.521 169.238 228.332 169.238 228.098C169.238 225.877 170.665 223.805 173.256 222.266C175.777 220.767 179.121 219.941 182.671 219.941C186.221 219.941 189.565 220.767 192.086 222.266C194.677 223.805 196.104 225.877 196.104 228.098Z" fill="#B89AD3"/>
<path d="M165.149 226.595C165.315 226.758 165.319 227.027 165.155 227.193L162.085 230.338C162.002 230.423 161.892 230.465 161.783 230.465C161.676 230.465 161.569 230.425 161.487 230.345C161.319 230.181 161.317 229.913 161.48 229.745L164.551 226.602C164.714 226.434 164.982 226.431 165.149 226.595ZM202.815 229.245C202.979 229.413 202.976 229.681 202.809 229.845C202.727 229.925 202.62 229.965 202.513 229.965C202.403 229.965 202.293 229.923 202.21 229.838L199.629 227.193C199.465 227.027 199.468 226.758 199.635 226.595C199.802 226.431 200.07 226.434 200.233 226.602L202.815 229.245ZM161.48 189.797C161.317 189.629 161.319 189.361 161.487 189.197C161.654 189.034 161.922 189.037 162.085 189.204L165.155 192.348C165.319 192.515 165.315 192.784 165.149 192.947C165.066 193.028 164.96 193.068 164.853 193.068C164.743 193.068 164.633 193.025 164.551 192.94L161.48 189.797ZM203.345 189.254C203.462 189.418 203.45 189.647 203.304 189.797L200.233 192.94C200.151 193.025 200.041 193.068 199.931 193.068C199.824 193.068 199.717 193.028 199.635 192.947C199.468 192.784 199.465 192.515 199.629 192.348L202.699 189.204C202.839 189.061 203.054 189.039 203.219 189.138C203.247 189.155 203.273 189.174 203.297 189.197C203.315 189.215 203.33 189.235 203.345 189.254ZM158.323 209.188C158.323 209.422 158.134 209.612 157.9 209.612H153.737C153.503 209.612 153.314 209.422 153.314 209.188C153.314 208.954 153.503 208.764 153.737 208.764H157.9C158.134 208.764 158.323 208.954 158.323 209.188ZM211.47 209.188C211.47 209.422 211.281 209.612 211.047 209.612H206.884C206.65 209.612 206.461 209.422 206.461 209.188C206.461 208.954 206.65 208.764 206.884 208.764H211.047C211.281 208.764 211.47 208.954 211.47 209.188ZM182.551 185.248V181.08C182.551 180.863 182.714 180.686 182.924 180.661C182.941 180.659 182.957 180.656 182.974 180.656C183.009 180.656 183.042 180.661 183.074 180.67C183.259 180.715 183.397 180.881 183.397 181.08V185.248C183.397 185.482 183.207 185.672 182.974 185.672C182.74 185.672 182.551 185.482 182.551 185.248ZM195.257 238.405C195.257 240.305 194 242.039 191.943 243.341C189.641 244.798 186.336 245.713 182.671 245.713C175.73 245.713 170.084 242.435 170.084 238.405V236.121C170.761 237.225 171.832 238.232 173.256 239.078C175.777 240.576 179.121 241.402 182.671 241.402C186.155 241.402 189.439 240.605 191.943 239.158C191.99 239.131 192.039 239.105 192.086 239.078C193.509 238.232 194.58 237.225 195.257 236.121V238.405ZM191.866 245.48C191.866 246.673 191.177 247.774 190.017 248.66C189.491 249.062 188.868 249.42 188.168 249.721V245.853C188.808 245.68 189.427 245.478 190.017 245.244C190.67 244.986 191.287 244.69 191.866 244.361V245.48ZM183.094 246.554C184.558 246.527 185.981 246.36 187.322 246.062V250.044C186.07 250.468 184.631 250.727 183.094 250.767V246.554ZM178.019 246.062C179.36 246.36 180.784 246.527 182.247 246.554V250.767C180.71 250.727 179.27 250.468 178.019 250.044V246.062ZM173.475 245.48V244.361C174.576 244.987 175.825 245.489 177.174 245.853V249.721C174.93 248.755 173.475 247.213 173.475 245.48ZM182.671 236.254C186.155 236.254 189.439 235.457 191.943 234.011C191.99 233.984 192.039 233.957 192.086 233.93C193.509 233.084 194.58 232.078 195.257 230.974V233.245C195.257 235.147 194 236.881 191.943 238.182C189.641 239.639 186.336 240.555 182.671 240.555C175.73 240.555 170.084 237.275 170.084 233.245V230.974C170.761 232.078 171.832 233.084 173.256 233.93C175.777 235.429 179.121 236.254 182.671 236.254ZM182.655 189.159C171.264 189.159 161.998 198.437 161.998 209.842C161.998 213.419 162.925 216.945 164.68 220.04L164.681 220.041L165.1 220.791L169.238 228.208V233.245C169.238 233.249 169.238 233.251 169.238 233.255C169.238 233.255 169.238 233.256 169.238 233.257V238.405C169.238 239.543 169.614 240.641 170.327 241.649C170.89 242.443 171.662 243.181 172.629 243.838V245.48C172.629 247.162 173.703 248.728 175.653 249.887C177.535 251.005 180.026 251.621 182.671 251.621C185.315 251.621 187.807 251.005 189.688 249.887C191.638 248.728 192.712 247.162 192.712 245.48V243.838C193.434 243.347 194.048 242.811 194.547 242.24C195.564 241.077 196.103 239.769 196.103 238.405V233.257C196.103 233.256 196.103 233.255 196.103 233.255C196.103 233.251 196.103 233.249 196.103 233.245V228.207L200.788 219.755L200.789 219.752C202.439 216.732 203.311 213.305 203.311 209.842C203.311 198.437 194.045 189.159 182.655 189.159Z" fill="#70C573"/>
<path d="M180.924 220.138C180.646 221.375 180.157 221.991 179.992 223.249C179.857 224.273 180.36 224.929 179.992 225.894C179.608 226.898 178.638 226.971 178.126 227.916L187.454 227.138C186.936 225.818 185.612 225.756 184.967 224.493C184.24 223.07 184.425 222.045 184.345 220.449C184.305 219.66 184.345 219.216 184.345 218.427C184.345 217.454 183.75 216.706 184.345 215.938C184.727 215.443 185.744 215.16 185.744 215.16L185.278 214.226C185.278 214.226 183.636 215.003 182.635 214.693C181.81 214.438 180.924 213.293 180.924 213.293L179.681 213.915C179.681 213.915 180.94 214.114 181.391 214.693C181.988 215.46 181.46 216.212 181.391 217.182C181.308 218.348 181.181 218.998 180.924 220.138Z" fill="#383838"/>
<path d="M171.818 203.689C171.818 203.689 174.496 208.644 178.534 206.694C178.534 206.694 177.701 202.679 171.818 203.689Z" fill="#383838"/>
<path d="M191.083 206.594C191.083 206.594 186.759 204.295 185.57 208.219C185.57 208.219 188.314 210.876 191.083 206.594Z" fill="#383838"/>
<path d="M187.759 215.313C187.759 215.313 186.908 210.496 183.078 211.98C183.078 211.98 182.674 215.775 187.759 215.313Z" fill="#383838"/>
<path d="M183.901 203.408C183.901 203.408 181.258 203.504 181.753 206.42C181.753 206.42 184.351 206.149 183.901 203.408Z" fill="#383838"/>
<path d="M176.238 214.938C176.238 214.938 180.583 216.933 182.215 212.596C182.215 212.596 178.426 210.649 176.238 214.938Z" fill="#383838"/>
<path d="M171.596 208.27C171.596 208.27 173.42 209.932 175.217 208.025C175.217 208.025 173.382 206.238 171.596 208.27Z" fill="#383838"/>
<path d="M187.635 197.932C187.635 197.932 183.766 198.747 184.277 202.796C184.277 202.796 188.559 202.231 187.635 197.932Z" fill="#383838"/>
<path d="M191.246 211.414C191.246 211.414 188.128 207.642 185.528 210.818C185.528 210.818 187.051 214.318 191.246 211.414Z" fill="#383838"/>
<path d="M180.706 197.426C180.706 197.426 178.481 201.783 182.434 202.899C182.434 202.899 185.045 200.111 180.706 197.426Z" fill="#383838"/>
<path d="M179.023 210.418C179.023 210.418 181.64 213.005 184.993 210.302C184.993 210.302 181.937 207.121 179.023 210.418Z" fill="#383838"/>
<path d="M190.998 202.11C190.998 202.11 186.108 200.558 184.858 205.019C184.858 205.019 189.221 206.695 190.998 202.11Z" fill="#383838"/>
<path d="M173.017 210.935C173.017 210.935 175.114 213.775 178.159 211.682C178.159 211.682 176.412 208.742 173.017 210.935Z" fill="#383838"/>
<path d="M179.219 206.728C179.219 206.728 179.977 209.07 182.371 207.959C182.371 207.959 181.474 205.637 179.219 206.728Z" fill="#383838"/>
<path d="M176.141 200.747C176.141 200.747 176.32 205.472 180.956 205.253C180.956 205.253 181.355 201.116 176.141 200.747Z" fill="#383838"/>
<path d="M175.523 208.721C175.523 208.721 177.319 210.894 179.504 208.745C179.504 208.745 177.631 206.533 175.523 208.721Z" fill="#383838"/>
<path d="M190.004 209.07C190.004 209.07 191.8 211.243 193.984 209.095C193.984 209.095 192.111 206.883 190.004 209.07Z" fill="#383838"/>
<path d="M184.076 205.61C184.076 205.61 182.295 207.536 184.243 208.991C184.243 208.991 185.856 207.189 184.076 205.61Z" fill="#383838"/>
</g>
</g>
<defs>
<filter id="filter0_d_1022_211" x="0" y="0" width="363" height="300" filterUnits="userSpaceOnUse" color-interpolation-filters="sRGB">
<feFlood flood-opacity="0" result="BackgroundImageFix"/>
<feColorMatrix in="SourceAlpha" type="matrix" values="0 0 0 0 0 0 0 0 0 0 0 0 0 0 0 0 0 0 127 0" result="hardAlpha"/>
<feOffset dy="4"/>
<feGaussianBlur stdDeviation="2"/>
<feComposite in2="hardAlpha" operator="out"/>
<feColorMatrix type="matrix" values="0 0 0 0 0 0 0 0 0 0 0 0 0 0 0 0 0 0 0.25 0"/>
<feBlend mode="normal" in2="BackgroundImageFix" result="effect1_dropShadow_1022_211"/>
<feBlend mode="normal" in="SourceGraphic" in2="effect1_dropShadow_1022_211" result="shape"/>
</filter>
</defs>
</svg>
