<svg width="461" height="74" viewBox="0 0 461 74" fill="none" xmlns="http://www.w3.org/2000/svg">
<path d="M34.5723 74C28.7291 74 23.6325 72.9614 19.2826 70.8842C14.9327 68.807 11.3293 66.0158 8.47265 62.5105C5.61597 58.9404 3.47346 54.9807 2.04512 50.6316C0.681699 46.2175 0 41.7061 0 37.0974C0 32.4886 0.681699 27.9772 2.04512 23.5632C3.47346 19.1491 5.61597 15.1895 8.47265 11.6842C11.3943 8.11403 15.03 5.29035 19.38 3.21316C23.7949 1.07105 28.9564 0 34.8645 0C39.4092 0 43.3047 0.584207 46.5509 1.75263C49.8621 2.92105 52.6214 4.41403 54.8288 6.23158C57.0362 8.04912 58.8217 9.99649 60.1851 12.0737C61.5485 14.086 62.5873 16.0009 63.3015 17.8184C64.0156 19.636 64.4701 21.1289 64.6649 22.2974C64.9246 23.4658 65.0544 24.05 65.0544 24.05H55.4131C55.4131 24.05 55.2833 23.5307 55.0236 22.4921C54.7639 21.4535 54.2445 20.1877 53.4654 18.6947C52.6863 17.1368 51.5177 15.6114 49.9595 14.1184C48.4662 12.5605 46.486 11.2623 44.0189 10.2237C41.6167 9.18509 38.5977 8.66579 34.9619 8.66579C30.6769 8.66579 26.9437 9.47719 23.7624 11.1C20.5811 12.7228 17.9516 14.8974 15.8741 17.6237C13.7965 20.2851 12.2383 23.3035 11.1995 26.6789C10.1607 29.9895 9.6413 33.3974 9.6413 36.9026C9.6413 40.4728 10.1607 43.9781 11.1995 47.4184C12.2383 50.7939 13.7965 53.8447 15.8741 56.571C18.0166 59.2325 20.646 61.3746 23.7624 62.9974C26.8788 64.5553 30.4821 65.3342 34.5723 65.3342C41.2596 65.3342 46.5509 63.3868 50.4464 59.4921C54.4068 55.5325 56.5493 50.2096 56.8739 43.5237H35.4488V35.6368H66.0283V40.6026C66.0283 48.0026 64.6 54.1693 61.7433 59.1026C58.9515 64.036 55.1859 67.7684 50.4464 70.3C45.7069 72.7667 40.4156 74 34.5723 74ZM175.667 74C169.823 74 164.726 72.9614 160.376 70.8842C156.027 68.807 152.423 66.0158 149.565 62.5105C146.709 58.9404 144.566 54.9807 143.138 50.6316C141.774 46.2175 141.094 41.7061 141.094 37.0974C141.094 32.4886 141.774 27.9772 143.138 23.5632C144.566 19.1491 146.709 15.1895 149.565 11.6842C152.487 8.11403 156.123 5.29035 160.473 3.21316C164.888 1.07105 170.049 0 175.958 0C180.503 0 184.399 0.584207 187.645 1.75263C190.954 2.92105 193.714 4.41403 195.923 6.23158C198.129 8.04912 199.914 9.99649 201.279 12.0737C202.641 14.086 203.681 16.0009 204.396 17.8184C205.108 19.636 205.562 21.1289 205.758 22.2974C206.019 23.4658 206.148 24.05 206.148 24.05H196.506C196.506 24.05 196.377 23.5307 196.118 22.4921C195.857 21.4535 195.337 20.1877 194.558 18.6947C193.78 17.1368 192.61 15.6114 191.053 14.1184C189.56 12.5605 187.579 11.2623 185.111 10.2237C182.709 9.18509 179.691 8.66579 176.055 8.66579C171.771 8.66579 168.038 9.47719 164.855 11.1C161.675 12.7228 159.045 14.8974 156.968 17.6237C154.891 20.2851 153.331 23.3035 152.294 26.6789C151.254 29.9895 150.734 33.3974 150.734 36.9026C150.734 40.4728 151.254 43.9781 152.294 47.4184C153.331 50.7939 154.891 53.8447 156.968 56.571C159.111 59.2325 161.738 61.3746 164.855 62.9974C167.972 64.5553 171.576 65.3342 175.667 65.3342C182.352 65.3342 187.645 63.3868 191.54 59.4921C195.499 55.5325 197.642 50.2096 197.967 43.5237H176.542V35.6368H207.122V40.6026C207.122 48.0026 205.694 54.1693 202.836 59.1026C200.044 64.036 196.28 67.7684 191.54 70.3C186.8 72.7667 181.51 74 175.667 74ZM219.803 73.0263V0.973683H245.316C250.447 0.973683 254.7 1.97982 258.075 3.9921C261.451 6.00438 263.982 8.60087 265.671 11.7816C267.36 14.9623 268.202 18.3053 268.202 21.8105C268.202 24.7316 267.619 27.5553 266.449 30.2816C265.28 33.0079 263.528 35.4096 261.192 37.4868C258.92 39.4991 256.029 40.9596 252.524 41.8684L270.736 73.0263H259.924L242.493 42.7447H229.346V73.0263H219.803ZM245.22 9.34737H229.346V34.5658H245.22C248.207 34.5658 250.672 33.9491 252.62 32.7158C254.568 31.4825 256.029 29.9246 257.002 28.0421C257.976 26.0947 258.463 24.0825 258.463 22.0053C258.463 19.8632 257.976 17.8509 257.002 15.9684C256.029 14.0211 254.568 12.4307 252.62 11.1974C250.672 9.96404 248.207 9.34737 245.22 9.34737ZM284.854 73.0263V0.973683H330.626V9.34737H294.397V32.1316H326.145V40.5053H294.397V64.6526H331.113V73.0263H284.854ZM364.331 73.0263V9.34737H341.836V0.973683H396.372V9.34737H373.877V73.0263H364.331ZM397.377 73.0263L422.793 0.973683H434.774L460.287 73.0263H450.161L444.122 55.7921H413.542L407.506 73.0263H397.377ZM416.463 47.2237H441.201L428.832 11.8789L416.463 47.2237Z" fill="white"/>
<path d="M108.99 73.0259V57.3252L75.939 57.234V49.1098L106.981 5.47656H117.937V49.5662H129.715V57.3252H117.937V73.0259H108.99ZM85.1603 49.5662H108.99V15.9741L85.1603 49.5662Z" fill="#70C573"/>
</svg>
